<svg width="44" height="44" viewBox="0 0 44 44" fill="none" xmlns="http://www.w3.org/2000/svg">
<path d="M41.94 34.66C41.94 35.38 41.78 36.12 41.44 36.84C41.1 37.56 40.66 38.24 40.08 38.88C39.1 39.96 38.02 40.74 36.8 41.24C35.6 41.74 34.3 42 32.9 42C30.86 42 28.68 41.52 26.38 40.54C24.08 39.56 21.78 38.24 19.5 36.58C17.2 34.9 15.02 33.04 12.94 30.98C10.88 28.9 9.02 26.72 7.36 24.44C5.72 22.16 4.4 19.88 3.44 17.62C2.48 15.34 2 13.16 2 11.08C2 9.72 2.24 8.42 2.72 7.22C3.2 6 3.96 4.88 5.02 3.88C6.3 2.62 7.7 2 9.18 2C9.74 2 10.3 2.12 10.8 2.36C11.32 2.6 11.78 2.96 12.14 3.48L16.78 10.02C17.14 10.52 17.4 10.98 17.58 11.42C17.76 11.84 17.86 12.26 17.86 12.64C17.86 13.12 17.72 13.6 17.44 14.06C17.18 14.52 16.8 15 16.32 15.48L14.8 17.06C14.58 17.28 14.48 17.54 14.48 17.86C14.48 18.02 14.5 18.16 14.54 18.32C14.6 18.48 14.66 18.6 14.7 18.72C15.06 19.38 15.68 20.24 16.56 21.28C17.46 22.32 18.42 23.38 19.46 24.44C20.54 25.5 21.58 26.48 22.64 27.38C23.68 28.26 24.54 28.86 25.22 29.22C25.32 29.26 25.44 29.32 25.58 29.38C25.74 29.44 25.9 29.46 26.08 29.46C26.42 29.46 26.68 29.34 26.9 29.12L28.42 27.62C28.92 27.12 29.4 26.74 29.86 26.5C30.32 26.22 30.78 26.08 31.28 26.08C31.66 26.08 32.06 26.16 32.5 26.34C32.94 26.52 33.4 26.78 33.9 27.12L40.52 31.82C41.04 32.18 41.4 32.6 41.62 33.1C41.82 33.6 41.94 34.1 41.94 34.66Z" fill="#FEFEFE" stroke="#FEFEFE" stroke-width="2.25" stroke-miterlimit="10"/>
</svg>
