<svg width="48" height="48" viewBox="0 0 48 48" fill="none" xmlns="http://www.w3.org/2000/svg">
<path d="M39 16C41.7614 16 44 13.7614 44 11C44 8.23858 41.7614 6 39 6C36.2386 6 34 8.23858 34 11C34 13.7614 36.2386 16 39 16Z" fill="#FEFEFE"/>
<path d="M39 16C41.7614 16 44 13.7614 44 11C44 8.23858 41.7614 6 39 6C36.2386 6 34 8.23858 34 11C34 13.7614 36.2386 16 39 16Z" fill="#F95555"/>
<path d="M41.44 18.62C40.04 19.06 38.5 19.14 36.9 18.74C34.22 18.04 32.04 15.9 31.3 13.22C30.94 11.92 30.92 10.64 31.14 9.48C31.4 8.2 30.5 7 29.22 7H14C8 7 4 10 4 17V31C4 38 8 41 14 41H34C40 41 44 38 44 31V20.52C44 19.2 42.72 18.2 41.44 18.62ZM31.04 22.3L28.68 24.18C27.36 25.24 25.68 25.76 24 25.76C22.32 25.76 20.62 25.24 19.32 24.18L13.06 19.18C12.42 18.66 12.32 17.7 12.82 17.06C13.34 16.42 14.28 16.3 14.92 16.82L21.18 21.82C22.7 23.04 25.28 23.04 26.8 21.82L29.16 19.94C29.8 19.42 30.76 19.52 31.26 20.18C31.78 20.82 31.68 21.78 31.04 22.3Z" fill="#FEFEFE"/>
</svg>
