<svg width="38" height="40" viewBox="0 0 38 40" fill="none" xmlns="http://www.w3.org/2000/svg">
<path d="M34.0198 7.7L22.1398 0.84C20.1998 -0.28 17.7998 -0.28 15.8398 0.84L3.97984 7.7C2.03984 8.82 0.839844 10.9 0.839844 13.16V26.84C0.839844 29.08 2.03984 31.16 3.97984 32.3L15.8598 39.16C17.7998 40.28 20.1998 40.28 22.1598 39.16L34.0398 32.3C35.9798 31.18 37.1798 29.1 37.1798 26.84V13.16C37.1598 10.9 35.9598 8.84 34.0198 7.7ZM18.9998 10.68C21.5798 10.68 23.6598 12.76 23.6598 15.34C23.6598 17.92 21.5798 20 18.9998 20C16.4198 20 14.3398 17.92 14.3398 15.34C14.3398 12.78 16.4198 10.68 18.9998 10.68ZM24.3598 29.32H13.6398C12.0198 29.32 11.0798 27.52 11.9798 26.18C13.3398 24.16 15.9798 22.8 18.9998 22.8C22.0198 22.8 24.6598 24.16 26.0198 26.18C26.9198 27.5 25.9598 29.32 24.3598 29.32Z" fill="#FEFEFE"/>
</svg>
