<svg width="79" height="79" viewBox="0 0 79 79" fill="none" xmlns="http://www.w3.org/2000/svg">
<g clip-path="url(#clip0_10216_24)">
<path d="M12.015 43.2749C12.015 43.2749 12.353 42.3393 13.0213 40.4305C13.6502 38.6254 15.2588 33.9524 15.1282 31.6677C14.787 25.6629 8.58249 21.2697 6.02269 15.018C4.62014 11.5949 5.18619 10.5289 4.35126 10.2631C3.51634 9.99739 1.34019 15.9598 4.28208 20.9961C4.28208 20.9961 1.57761 20.6061 1.19081 21.386C0.804008 22.1659 2.45656 23.787 3.84496 24.4034C3.84496 24.4034 0.509977 25.449 0.385761 26.6047C0.261544 27.7604 3.03519 28.6786 4.31667 28.773C4.31667 28.773 2.26002 29.685 2.31662 30.5859C2.40153 31.9727 5.4472 31.9712 5.4472 31.9712C5.4472 31.9712 4.1217 32.6457 4.34655 33.2951C4.6453 34.1788 7.03529 34.3423 7.03529 34.3423C7.03529 34.3423 6.25697 36.7464 9.30264 37.1317C9.30264 37.1317 8.91583 39.05 11.2822 39.1144C11.2822 39.1144 11.7414 40.2151 11.6061 41.1396C11.4709 42.0642 11.647 43.1711 12.015 43.2749Z" fill="#EBEBEB"/>
<path d="M12.3074 40.6317C12.3129 40.4096 12.2626 40.1895 12.1611 39.9918C11.8938 39.3833 11.6894 38.627 12.3058 37.976V38.0877C11.5196 37.7528 11.1721 36.9021 11.8875 35.943C12.069 35.6973 12.2738 35.4698 12.4992 35.2637L12.5495 35.4823C9.57302 35.9272 9.75227 34.5388 12.224 32.6976L12.2822 32.9979C9.13748 33.6567 8.22551 33.0262 11.2397 30.0985L11.301 30.3909C11.0792 30.4048 10.8566 30.3819 10.6422 30.3233C9.30415 29.9648 9.58403 28.4522 10.0038 27.1078C10.301 26.1393 10.2554 25.1518 9.80573 24.427C9.36889 23.7309 8.76168 23.1578 8.04154 22.7618C7.69374 22.5554 7.32862 22.3797 6.95032 22.2367C7.34066 22.35 7.71883 22.5017 8.07928 22.6895C9.59346 23.4584 10.8844 24.8201 10.2366 27.1393C10.0479 27.8673 9.82303 28.5953 9.97869 29.2557C10.1438 29.8846 10.7649 30.0812 11.3341 30.0529L11.7193 30.0324L11.4048 30.3469C11.0683 30.6614 9.46296 32.2809 9.73183 32.7055C10.2035 33.1001 11.6391 32.8029 12.2885 32.6772L12.9395 32.5372C12.364 32.9775 10.7381 34.0891 10.6139 34.858C10.6674 35.4367 12.1328 35.2873 12.5699 35.2385L12.9143 35.1945C12.4347 35.6269 11.8136 36.1269 11.6831 36.8219C11.5935 37.421 12.0479 37.8094 12.4505 38.0012C11.7791 38.6301 11.963 39.3188 12.1973 39.9745C12.2873 40.1835 12.3256 40.4111 12.3089 40.638L12.3074 40.6317Z" fill="#C7C7C7"/>
<path d="M8.98638 29.4413C8.68163 29.7343 8.39444 30.0452 8.1263 30.3721C7.91561 30.6535 7.66403 30.9586 7.61214 31.3155C7.58069 32.1489 8.63418 32.347 9.20652 32.424L9.36375 32.4398C9.10789 32.7462 8.88495 33.0788 8.69864 33.4319C8.02724 34.6977 9.69709 34.5797 10.3433 34.5137L10.1767 34.7118C9.87005 35.0766 9.34488 35.8722 9.78043 36.1663C10.2018 36.3911 10.7647 36.3612 11.2632 36.3376H11.3669C11.0257 36.7197 10.8245 37.3235 11.0761 37.7198C11.1414 37.8399 11.2289 37.9466 11.3339 38.0342C10.8135 37.7103 10.7694 37.0012 11.227 36.3738L11.2537 36.4634C10.7396 36.5059 9.86219 36.6207 9.52413 36.1898C9.26627 35.6883 9.70653 35.0231 10.0509 34.5876L10.1028 34.7653C9.675 34.8276 9.23871 34.7933 8.826 34.6646C7.84956 34.314 8.5477 33.1803 9.11375 32.4791L9.14991 32.652C8.50367 32.5545 7.40773 32.2982 7.47849 31.3422C7.60742 30.6473 8.48952 29.8894 8.97852 29.4554L8.98638 29.4413Z" fill="#C7C7C7"/>
<path d="M14.2994 34.27C14.9284 32.3061 14.5887 30.152 13.8843 28.251C13.2003 26.5796 12.1154 25.1063 11.1044 23.6267C10.1342 22.2729 8.73326 20.3483 7.81028 18.9898C6.77567 17.4174 5.70174 15.8277 5.21902 13.9849C5.31179 14.9283 5.64985 15.8545 6.03822 16.7271C6.83384 18.4693 7.88575 20.0763 8.95496 21.6549C10.0242 23.2336 11.1563 24.7446 12.2003 26.3233C12.7324 27.0889 13.1835 27.9078 13.5463 28.7667C14.2428 30.4963 14.628 32.413 14.2994 34.27Z" fill="white"/>
<path d="M8.16271 36.5515C8.16271 36.5515 5.9504 30.435 11.8405 27.3044C17.7306 24.1738 21.2747 29.7636 21.2747 29.7636C21.2747 29.7636 16.4318 34.7165 8.16271 36.5515Z" fill="white"/>
<path d="M8.16415 36.5515C16.4316 34.7165 21.2729 29.7636 21.2729 29.7636C21.2729 29.7636 13.8168 31.0969 8.16415 36.5515Z" fill="white"/>
<path d="M12.4063 28.3988C12.3296 28.4408 12.2453 28.4671 12.1583 28.4764C12.0713 28.4857 11.9833 28.4777 11.8994 28.4529C11.8156 28.428 11.7374 28.3868 11.6695 28.3317C11.6016 28.2765 11.5453 28.2085 11.5038 28.1315L11.0525 27.2997C10.9686 27.1445 10.9496 26.9624 10.9997 26.7932C11.0498 26.624 11.1649 26.4816 11.3198 26.3971C11.475 26.3132 11.6571 26.2942 11.8263 26.3443C11.9955 26.3944 12.1379 26.5095 12.2224 26.6645L12.6736 27.4962C12.7576 27.6514 12.7766 27.8336 12.7265 28.0027C12.6764 28.1719 12.5612 28.3143 12.4063 28.3988Z" fill="white"/>
<path opacity="0.4" d="M12.4063 28.3988C12.3296 28.4408 12.2453 28.4671 12.1583 28.4764C12.0713 28.4857 11.9833 28.4777 11.8994 28.4529C11.8156 28.428 11.7374 28.3868 11.6695 28.3317C11.6016 28.2765 11.5453 28.2085 11.5038 28.1315L11.0525 27.2997C10.9686 27.1445 10.9496 26.9624 10.9997 26.7932C11.0498 26.624 11.1649 26.4816 11.3198 26.3971C11.475 26.3132 11.6571 26.2942 11.8263 26.3443C11.9955 26.3944 12.1379 26.5095 12.2224 26.6645L12.6736 27.4962C12.7576 27.6514 12.7766 27.8336 12.7265 28.0027C12.6764 28.1719 12.5612 28.3143 12.4063 28.3988Z" fill="white"/>
<path opacity="0.2" d="M8.16415 36.5515C16.4316 34.7165 21.2729 29.7636 21.2729 29.7636C21.2729 29.7636 13.8168 31.0969 8.16415 36.5515Z" fill="black"/>
<path d="M15.3647 34.8954L15.6249 34.7535C15.7463 34.6872 15.8365 34.5755 15.8756 34.4427C15.9146 34.31 15.8993 34.1672 15.833 34.0457L14.196 31.0445L13.0241 31.6837L14.6611 34.6849C14.7269 34.8057 14.8378 34.8956 14.9696 34.935C15.1014 34.9744 15.2434 34.9602 15.3647 34.8954Z" fill="white"/>
<path opacity="0.3" d="M15.3647 34.8954L15.6249 34.7535C15.7463 34.6872 15.8365 34.5755 15.8756 34.4427C15.9146 34.31 15.8993 34.1672 15.833 34.0457L14.196 31.0445L13.0241 31.6837L14.6611 34.6849C14.7269 34.8057 14.8378 34.8956 14.9696 34.935C15.1014 34.9744 15.2434 34.9602 15.3647 34.8954Z" fill="black"/>
<path d="M8.16415 36.5515C13.8168 31.0969 21.2729 29.7636 21.2729 29.7636C21.2729 29.7636 17.7288 24.1722 11.8388 27.3044C5.94869 30.4365 8.16415 36.5515 8.16415 36.5515Z" fill="white"/>
<path opacity="0.4" d="M8.16415 36.5515C13.8168 31.0969 21.2729 29.7636 21.2729 29.7636C21.2729 29.7636 17.7288 24.1722 11.8388 27.3044C5.94869 30.4365 8.16415 36.5515 8.16415 36.5515Z" fill="white"/>
<g opacity="0.3">
<path d="M13.2431 26.7006C15.5544 27.045 17.4397 29.1378 18.4523 30.5262C19.0561 30.3265 19.586 30.1724 20.0247 30.0545C16.9758 26.0182 13.4365 26.6613 13.2635 26.6959L13.2431 26.7006Z" fill="white"/>
<path d="M12.7305 26.8877C14.542 27.856 16.0878 29.2544 17.2321 30.9601C17.4193 30.8878 17.6032 30.8218 17.7825 30.7573C15.5466 27.7399 12.7305 26.8877 12.7305 26.8877Z" fill="white"/>
</g>
<path opacity="0.1" d="M8.16419 36.5499C10.68 34.1222 13.5605 32.5074 15.9741 31.4665C14.3782 32.1158 10.2366 33.6678 9.32774 32.8816C8.54156 32.2007 9.27428 29.4916 10.6438 28.0623C6.26949 31.3139 8.16419 36.5499 8.16419 36.5499Z" fill="black"/>
<path d="M39.6524 53.6273C39.0606 55.5757 38.0892 57.3878 36.7943 58.9593C35.4994 60.5308 33.9064 61.8306 32.1072 62.7841C30.3079 63.7375 28.3378 64.3256 26.3103 64.5146C24.2828 64.7037 22.238 64.4898 20.2935 63.8854L15.2776 62.3603L25.2653 33.13L28.5091 34.1096C28.7669 34.1735 29.0258 34.2453 29.2858 34.325C31.2375 34.9061 33.055 35.8674 34.6337 37.1536C36.2125 38.4398 37.5212 40.0255 38.4847 41.8195C39.4482 43.6135 40.0474 45.5804 40.2478 47.6068C40.4482 49.6333 40.2458 51.6794 39.6524 53.6273Z" fill="white"/>
<path opacity="0.2" d="M39.6524 53.6273C39.0606 55.5757 38.0892 57.3878 36.7943 58.9593C35.4994 60.5308 33.9064 61.8306 32.1072 62.7841C30.3079 63.7375 28.3378 64.3256 26.3103 64.5146C24.2828 64.7037 22.238 64.4898 20.2935 63.8854L15.2776 62.3603L25.2653 33.13L28.5091 34.1096C28.7669 34.1735 29.0258 34.2453 29.2858 34.325C31.2375 34.9061 33.055 35.8674 34.6337 37.1536C36.2125 38.4398 37.5212 40.0255 38.4847 41.8195C39.4482 43.6135 40.0474 45.5804 40.2478 47.6068C40.4482 49.6333 40.2458 51.6794 39.6524 53.6273Z" fill="black"/>
<g opacity="0.05">
<path d="M16.7917 57.9388L29.1411 63.9782C30.7024 63.5321 32.1834 62.8422 33.5295 61.9341L18.0182 54.3475L16.7917 57.9388Z" fill="black"/>
<path d="M18.3482 53.3726L34.4587 61.2517C34.7826 60.997 35.0971 60.7287 35.4021 60.4467L18.7193 52.2877L18.3482 53.3726Z" fill="black"/>
</g>
<path d="M15.4213 62.4187C8.04153 59.5829 4.54552 50.8134 7.61274 42.8313C10.6799 34.8493 19.1489 30.6774 26.5286 33.5132C33.9084 36.349 37.4044 45.1186 34.3372 53.1006C31.27 61.0826 22.801 65.2545 15.4213 62.4187Z" fill="white"/>
<path opacity="0.1" d="M14.6211 61.7943C7.76134 59.1597 4.57188 50.8492 7.49728 43.2322C10.4227 35.6152 18.3552 31.5762 25.215 34.2109C32.0748 36.8455 35.2642 45.156 32.3388 52.773C29.4134 60.3899 21.481 64.4289 14.6211 61.7943Z" fill="black"/>
<path d="M14.956 60.9209C8.52994 58.4528 5.54214 50.6677 8.2826 43.5322C11.0231 36.3968 18.454 32.6131 24.8801 35.0812C31.3062 37.5492 34.294 45.3344 31.5536 52.4698C28.8131 59.6052 21.3821 63.3889 14.956 60.9209Z" fill="white"/>
<path opacity="0.5" d="M9.01479 41.8991C13.3938 47.0879 20.5921 55.5991 24.6346 60.2957C26.4843 59.3416 28.1012 57.9921 29.3706 56.3428L17.8279 34.7008C14.1973 35.6332 10.9331 38.2323 9.01479 41.8991Z" fill="#EBEBEB"/>
<path opacity="0.5" d="M7.77261 45.1004C7.3776 46.5758 7.21161 48.103 7.28045 49.6288L19.9285 61.637C20.6579 61.5804 21.3805 61.4573 22.0874 61.269C18.4238 57.118 11.7224 49.5533 7.77261 45.1004Z" fill="#EBEBEB"/>
<path d="M23.3705 36.031L23.0041 37.2606L23.1174 37.2905L23.229 37.3235L23.5969 36.0939L23.3705 36.031Z" fill="#263238"/>
<path d="M27.4617 39.9918C27.5151 40.05 27.5686 40.1097 27.6189 40.1711L28.4932 39.2622L28.3359 39.083L27.4617 39.9918Z" fill="#263238"/>
<path d="M29.8991 44.8708C29.9163 44.9526 29.9321 45.0281 29.9478 45.1177L31.1003 44.7734L31.0516 44.5265L29.8991 44.8708Z" fill="#263238"/>
<path d="M29.6239 50.7106C29.6114 50.7531 29.5988 50.7939 29.5846 50.8348L30.6994 51.1493L30.7749 50.9009L29.6601 50.5864C29.6475 50.6273 29.6349 50.6697 29.6239 50.7106Z" fill="#263238"/>
<path d="M26.6346 55.794L27.4208 56.6777L27.5969 56.4937L26.8107 55.6101L26.6346 55.794Z" fill="#263238"/>
<path d="M21.8816 58.6621L22.1206 59.8806L22.3533 59.8115L22.1143 58.5913C22.0372 58.618 21.9602 58.64 21.8816 58.6621Z" fill="#263238"/>
<path d="M16.6047 58.6731L16.2368 59.9027L16.4617 59.9655L16.8296 58.736L16.7164 58.7045L16.6047 58.6731Z" fill="#263238"/>
<path d="M11.3373 56.7296L11.4946 56.9089L12.3704 56C12.3169 55.9419 12.2634 55.8821 12.2131 55.8224L11.3373 56.7296Z" fill="#263238"/>
<path d="M8.73811 51.22L8.78528 51.4669L9.93311 51.1226C9.91581 51.0408 9.90008 50.9653 9.88593 50.8757L8.73811 51.22Z" fill="#263238"/>
<path d="M9.13275 44.8457L9.05885 45.0941L10.1737 45.4086C10.1862 45.3662 10.1972 45.3253 10.2098 45.2844L10.2476 45.1602L9.13275 44.8457Z" fill="#263238"/>
<path d="M12.2319 39.4997L13.0181 40.3833C13.0763 40.3204 13.1345 40.2607 13.1958 40.1994L12.4096 39.3157L12.2319 39.4997Z" fill="#263238"/>
<path d="M17.479 36.1883L17.718 37.41C17.7966 37.3833 17.8752 37.3612 17.9507 37.3392L17.7117 36.1191L17.479 36.1883Z" fill="#263238"/>
<path d="M17.5828 36.7339L19.4979 49.058L20.6709 48.698L17.902 36.6348L17.5828 36.7339Z" fill="#37474F"/>
<path d="M26.3266 41.451L18.8909 48.1288L19.6833 49.0408L26.542 41.6978L26.3266 41.451Z" fill="#455A64"/>
<path d="M19.5277 47.8882C19.5092 47.9406 19.5012 47.9962 19.5043 48.0517C19.5074 48.1073 19.5215 48.1616 19.5458 48.2117C19.5701 48.2617 19.604 48.3064 19.6458 48.3432C19.6875 48.38 19.7361 48.4081 19.7887 48.426C19.8989 48.4504 20.0142 48.4314 20.1106 48.3728C20.2071 48.3142 20.2771 48.2205 20.306 48.1115C20.3248 48.0591 20.333 48.0034 20.33 47.9479C20.327 47.8923 20.3129 47.8378 20.2886 47.7877C20.2643 47.7377 20.2302 47.6929 20.1884 47.6562C20.1466 47.6194 20.0978 47.5914 20.045 47.5737C19.9349 47.5493 19.8195 47.5683 19.7231 47.6269C19.6267 47.6855 19.5567 47.7792 19.5277 47.8882Z" fill="#C7C7C7"/>
<path d="M19.7526 47.5659C19.6417 47.625 19.5559 47.722 19.5108 47.8393C19.4658 47.9566 19.4645 48.0861 19.5073 48.2043C19.5266 48.2595 19.5577 48.3098 19.5984 48.3518C19.6391 48.3939 19.6885 48.4265 19.743 48.4476C19.7976 48.4687 19.8561 48.4777 19.9145 48.4739C19.9729 48.4702 20.0298 48.4538 20.0812 48.426C20.1921 48.3669 20.2779 48.2698 20.3229 48.1525C20.368 48.0353 20.3693 47.9057 20.3265 47.7876C20.3071 47.7324 20.2761 47.682 20.2353 47.64C20.1946 47.598 20.1453 47.5653 20.0907 47.5442C20.0361 47.5231 19.9776 47.5141 19.9193 47.5179C19.8609 47.5216 19.804 47.538 19.7526 47.5659Z" fill="white"/>
<path d="M19.8469 47.8127L11.6737 52.0974L11.7225 52.2248L19.9868 48.1807L19.8469 47.8127Z" fill="white"/>
<path d="M37.3301 38.1307L36.4034 36.8996L34.3482 38.4466C34.2379 38.5296 34.1651 38.653 34.1458 38.7897C34.1265 38.9264 34.1623 39.0651 34.2453 39.1754L34.5461 39.5749C34.6291 39.6852 34.7525 39.758 34.8892 39.7773C35.0258 39.7965 35.1646 39.7607 35.2749 39.6777L37.3301 38.1307Z" fill="white"/>
<path opacity="0.3" d="M37.3301 38.1307L36.4034 36.8996L34.3482 38.4466C34.2379 38.5296 34.1651 38.653 34.1458 38.7897C34.1265 38.9264 34.1623 39.0651 34.2453 39.1754L34.5461 39.5749C34.6291 39.6852 34.7525 39.758 34.8892 39.7773C35.0258 39.7965 35.1646 39.7607 35.2749 39.6777L37.3301 38.1307Z" fill="black"/>
<path d="M41.4118 44.679C41.4118 44.679 46.684 39.3031 41.9873 33.1756C37.2907 27.0481 30.8723 31.229 30.8723 31.229C30.8723 31.229 34.5705 39.1757 41.4118 44.679Z" fill="white"/>
<path opacity="0.4" d="M41.4118 44.679C41.4118 44.679 46.684 39.3031 41.9873 33.1756C37.2907 27.0481 30.8723 31.229 30.8723 31.229C30.8723 31.229 34.5705 39.1757 41.4118 44.679Z" fill="white"/>
<g opacity="0.3">
<path d="M39.0485 42.5799C39.4668 42.9887 39.9007 43.3944 40.3504 43.7891C44.503 38.465 42.6508 34.1976 42.58 34.0404C42.7215 37.5735 40.2089 41.1318 39.0485 42.5799Z" fill="white"/>
<path d="M37.9871 41.4934C38.1443 41.6695 38.3188 41.8441 38.4902 42.0217C38.5185 41.9871 38.5468 41.951 38.5767 41.9164C41.9117 37.8534 42.2356 33.52 42.2356 33.52C41.2214 37.7166 39.0468 40.3896 37.9871 41.4934Z" fill="white"/>
</g>
<path opacity="0.1" d="M30.8707 31.2369C32.4795 34.4575 34.4789 37.4676 36.8237 40.1994C34.6051 37.1773 32.9368 33.413 33.4101 32.0136C33.6412 31.3265 34.5327 30.0498 38.3992 30.3438C34.5595 28.8296 30.8707 31.2369 30.8707 31.2369Z" fill="black"/>
<path d="M42.9407 32.433L43.0032 32.5159C43.2418 32.833 43.1783 33.2835 42.8612 33.5222L41.9027 34.2437C41.5856 34.4823 41.1351 34.4188 40.8964 34.1017L40.834 34.0188C40.5954 33.7017 40.6589 33.2512 40.976 33.0126L41.9345 32.2911C42.2516 32.0524 42.7021 32.1159 42.9407 32.433Z" fill="white"/>
<path opacity="0.4" d="M42.9407 32.433L43.0032 32.5159C43.2418 32.833 43.1783 33.2835 42.8612 33.5222L41.9027 34.2437C41.5856 34.4823 41.1351 34.4188 40.8964 34.1017L40.834 34.0188C40.5954 33.7017 40.6589 33.2512 40.976 33.0126L41.9345 32.2911C42.2516 32.0524 42.7021 32.1159 42.9407 32.433Z" fill="white"/>
<path d="M36.0768 52.011C36.0768 52.011 36.3583 50.9795 36.9558 48.8898C37.5218 46.9118 39.0171 41.8142 40.8112 39.888C45.5283 34.8266 55.8902 34.825 63.3589 30.9256C67.447 28.7903 67.5587 27.5025 68.7191 27.7887C69.8795 28.0749 68.1169 34.6599 61.079 37.2528C61.079 37.2528 64.5004 38.5924 64.3809 39.5154C64.2614 40.4384 61.1859 40.8393 59.1292 40.517C59.1292 40.517 62.2488 43.5045 61.5538 44.6051C60.8588 45.7058 56.9845 44.7797 55.4373 44.0705C55.4373 44.0705 57.1669 46.1492 56.4562 46.9008C55.3556 48.0643 51.824 46.1712 51.824 46.1712C51.824 46.1712 52.8759 47.5863 52.1558 48.0219C51.1747 48.6115 48.2831 47.2719 48.2831 47.2719C48.2831 47.2719 47.4544 49.8568 43.6383 48.3018C43.6383 48.3018 42.709 50.2263 39.9134 48.8128C39.9134 48.8128 38.591 49.492 38.0816 50.3851C37.5721 51.2782 36.58 52.1493 36.0768 52.011Z" fill="#EBEBEB"/>
<path d="M37.1822 49.264C37.3221 49.0329 37.5863 48.9228 37.8111 48.7923C38.558 48.4244 39.3363 47.8851 39.0941 46.9322L39.0045 47.0281C40.1665 47.2263 41.1744 46.6916 41.0329 45.4039C40.9976 45.071 40.9237 44.7433 40.8127 44.4274L40.5958 44.5847C43.731 46.8237 44.5267 45.4935 42.9763 42.3425L42.6917 42.5689C45.8726 45.102 47.3821 45.113 45.9937 40.6711L45.7122 40.8896C45.9666 41.0418 46.2399 41.1597 46.5251 41.2403C48.3365 41.7544 49.1007 40.2544 49.5802 38.8125C49.7438 38.2997 50.0236 37.8315 50.3978 37.4445C50.772 37.0575 51.2305 36.7621 51.7375 36.5814C52.7674 36.2071 53.8948 36.1442 54.9845 36.215C55.5368 36.252 56.0861 36.3244 56.6292 36.432C56.0921 36.2893 55.5449 36.1878 54.9923 36.1285C52.6809 35.8644 50.2045 36.2574 49.2878 38.6946C48.9733 39.4525 48.7217 40.2308 48.0645 40.7135C47.4198 41.1632 46.555 40.9494 45.9166 40.5704L45.4842 40.3141L45.6415 40.7859C45.7987 41.278 46.5031 43.69 45.8899 43.8928C45.0628 43.9494 43.6068 42.7922 42.9402 42.2796L42.286 41.7513C42.6367 42.495 43.7248 44.4809 43.3159 45.2325C42.8442 45.7042 41.2451 44.6664 40.7734 44.3535L40.4055 44.1004C40.6492 44.7781 41.0109 45.6036 40.6634 46.2938C40.3363 46.874 39.5281 46.9338 38.9243 46.8536C39.2545 47.8175 38.5422 48.3128 37.7985 48.7404C37.5784 48.8835 37.3268 49.0125 37.1916 49.2515L37.1822 49.264Z" fill="#C7C7C7"/>
<path d="M49.0865 41.5028C49.2293 41.9449 49.3391 42.3968 49.4152 42.8551C49.4576 43.2324 49.5299 43.657 49.3365 43.9982C48.7752 44.7482 47.4088 44.2686 46.6887 43.9809L46.4921 43.896C46.5687 44.3197 46.5882 44.7517 46.5503 45.1806C46.4214 46.7089 44.5676 45.569 43.8647 45.1083L43.915 45.3866C44.0094 45.896 44.0455 46.9212 43.3285 46.9071C42.6776 46.8442 42.0471 46.4684 41.4842 46.1382L41.3678 46.0674C41.4904 46.6162 41.2892 47.2703 40.7121 47.4637C40.545 47.5252 40.3695 47.5613 40.1917 47.5706C41.0282 47.6115 41.5895 47.014 41.5109 46.1806L41.415 46.2419C41.981 46.5989 42.9229 47.2388 43.6163 47.0722C44.2782 46.7923 44.2452 45.9338 44.1587 45.3426L43.9701 45.4668C44.4398 45.7957 44.9666 46.0346 45.5236 46.1712C46.9088 46.4715 46.9167 45.0422 46.7626 44.0737L46.5959 44.2042C47.4151 44.5186 48.8727 44.9762 49.4781 44.0925C49.8287 43.4023 49.3491 42.1884 49.0913 41.5076L49.0865 41.5028Z" fill="#C7C7C7"/>
<path opacity="0.1" d="M36.0768 52.0094C36.5799 52.1493 37.5768 51.2877 38.0878 50.3914C38.5988 49.4952 39.9196 48.8191 39.9196 48.8191C42.7153 50.2342 43.6445 48.308 43.6445 48.308C47.4607 49.8631 48.2893 47.2781 48.2893 47.2781C46.6493 48.8332 43.6461 47.6036 43.6461 47.6036C41.8363 49.4574 39.929 48.275 39.929 48.275C39.5186 48.334 39.1047 48.3655 38.69 48.3694C38.1601 48.3615 39.0847 45.3599 39.918 43.0799C40.7042 40.9258 43.632 37.726 44.9606 37.0483H44.948C43.3316 37.7936 41.9181 38.7025 40.8127 39.888C39.0171 41.8126 37.5202 46.9134 36.9557 48.8898C36.3582 50.9795 36.0768 52.0094 36.0768 52.0094Z" fill="black"/>
<path d="M60.8085 36.7401C63.8887 35.7763 66.8243 33.586 68.1184 30.5592C68.3324 30.0538 68.4906 29.5266 68.5901 28.9868C68.6233 28.8638 68.6233 28.7341 68.5901 28.611C68.4722 28.3327 68.142 28.5261 67.98 28.6488C67.7611 28.8102 67.5512 28.9834 67.3511 29.1676C67.5917 29.045 67.8228 28.9098 68.0665 28.7997C68.1631 28.746 68.2706 28.7149 68.381 28.7085C68.381 28.7085 68.348 28.6912 68.3511 28.6928C68.3407 28.7679 68.3206 28.8414 68.2914 28.9113C67.0948 32.4743 63.9626 34.8989 60.8085 36.7401Z" fill="white"/>
<path d="M63.7644 39.0468C63.1166 39.5185 62.2549 39.5059 61.486 39.6207C60.7565 39.7009 59.7454 39.7606 59.0363 39.9352C60.2539 40.3882 61.5943 40.3854 62.81 39.9273C63.1952 39.7433 63.6512 39.4839 63.7628 39.0405L63.7644 39.0468Z" fill="white"/>
<path d="M59.0255 41.2198C59.3014 41.7974 59.6388 42.3436 60.0318 42.8488C60.362 43.3519 60.8463 43.7796 60.947 44.3928C61.1812 44.1161 61.1121 43.6837 61.013 43.3645C60.8394 42.8937 60.5744 42.4619 60.2333 42.0938C59.8922 41.7258 59.4818 41.4287 59.0255 41.2198Z" fill="white"/>
<path d="M49.0251 37.4666C48.6409 37.9763 48.313 38.5262 48.0471 39.1066C47.7531 39.6317 47.5943 40.2575 47.1037 40.6286C47.4575 40.7104 47.8097 40.4494 48.0471 40.2151C48.7246 39.4648 49.0763 38.4762 49.0251 37.4666Z" fill="white"/>
<path d="M41.8425 4.2027L44.1198 6.95865C46.1567 9.42358 49.5381 10.316 52.5261 9.17734L55.8669 7.90419L53.1109 10.1816C50.646 12.2185 49.7535 15.5998 50.8923 18.5878L52.1654 21.9286L49.888 19.1727C47.8511 16.7077 44.4697 15.8153 41.4817 16.954L38.141 18.2271L40.8969 15.9498C43.3618 13.9129 44.2543 10.5315 43.1156 7.54348L41.8425 4.2027Z" fill="#D9D6FE"/>
</g>
<defs>
<clipPath id="clip0_10216_24">
<rect width="78.6182" height="78.6182" fill="white" transform="matrix(-1 0 0 1 79 0)"/>
</clipPath>
</defs>
</svg>
