<svg width="14" height="14" viewBox="0 0 14 14" fill="none" xmlns="http://www.w3.org/2000/svg">
<path d="M7.00004 0.333313C3.32671 0.333313 0.333374 3.32665 0.333374 6.99998C0.333374 10.6733 3.32671 13.6666 7.00004 13.6666C10.6734 13.6666 13.6667 10.6733 13.6667 6.99998C13.6667 3.32665 10.6734 0.333313 7.00004 0.333313ZM10.1867 5.46665L6.40671 9.24665C6.31337 9.33998 6.18671 9.39331 6.05337 9.39331C5.92004 9.39331 5.79337 9.33998 5.70004 9.24665L3.81337 7.35998C3.62004 7.16665 3.62004 6.84665 3.81337 6.65331C4.00671 6.45998 4.32671 6.45998 4.52004 6.65331L6.05337 8.18665L9.48004 4.75998C9.67337 4.56665 9.99337 4.56665 10.1867 4.75998C10.38 4.95331 10.38 5.26665 10.1867 5.46665Z" fill="#F95555"/>
</svg>
