<svg width="36" height="40" viewBox="0 0 36 40" fill="none" xmlns="http://www.w3.org/2000/svg">
<path d="M35.8202 18.24V9.46001C35.8202 7.82001 34.5802 5.96001 33.0402 5.34001L21.9002 0.780015C19.4002 -0.239985 16.5802 -0.239985 14.0802 0.780015L2.94018 5.34001C1.42018 5.96001 0.180176 7.82001 0.180176 9.46001V18.24C0.180176 28.02 7.28018 37.18 16.9802 39.86C17.6402 40.04 18.3602 40.04 19.0202 39.86C28.7202 37.18 35.8202 28.02 35.8202 18.24ZM19.5002 21.74V27C19.5002 27.82 18.8202 28.5 18.0002 28.5C17.1802 28.5 16.5002 27.82 16.5002 27V21.74C14.4802 21.1 13.0002 19.22 13.0002 17C13.0002 14.24 15.2402 12 18.0002 12C20.7602 12 23.0002 14.24 23.0002 17C23.0002 19.24 21.5202 21.1 19.5002 21.74Z" fill="#FEFEFE"/>
</svg>
