<svg width="14" height="14" viewBox="0 0 14 14" fill="none" xmlns="http://www.w3.org/2000/svg">
<path d="M6.99992 0.333313C3.31992 0.333313 0.333252 3.31998 0.333252 6.99998C0.333252 10.68 3.31992 13.6666 6.99992 13.6666C10.6799 13.6666 13.6666 10.68 13.6666 6.99998C13.6666 3.31998 10.6799 0.333313 6.99992 0.333313ZM4.68659 7.97998C4.87992 8.17331 4.87992 8.49331 4.68659 8.68665C4.58659 8.78665 4.45992 8.83331 4.33325 8.83331C4.20659 8.83331 4.07992 8.78665 3.97992 8.68665L2.64659 7.35331C2.45325 7.15998 2.45325 6.83998 2.64659 6.64665L3.97992 5.31331C4.17325 5.11998 4.49325 5.11998 4.68659 5.31331C4.87992 5.50665 4.87992 5.82665 4.68659 6.01998L3.70659 6.99998L4.68659 7.97998ZM8.12659 5.63998L6.79325 8.75331C6.71325 8.93998 6.52659 9.05331 6.33325 9.05331C6.26659 9.05331 6.19992 9.03998 6.13992 9.01331C5.88659 8.90665 5.76659 8.61331 5.87992 8.35331L7.21325 5.23998C7.31992 4.98665 7.61325 4.86665 7.86659 4.97998C8.11992 5.09331 8.23325 5.38665 8.12659 5.63998ZM11.3533 7.35331L10.0199 8.68665C9.91992 8.78665 9.79325 8.83331 9.66659 8.83331C9.53992 8.83331 9.41325 8.78665 9.31325 8.68665C9.11992 8.49331 9.11992 8.17331 9.31325 7.97998L10.2933 6.99998L9.31325 6.01998C9.11992 5.82665 9.11992 5.50665 9.31325 5.31331C9.50659 5.11998 9.82659 5.11998 10.0199 5.31331L11.3533 6.64665C11.5466 6.83998 11.5466 7.15998 11.3533 7.35331Z" fill="#7A5AF8"/>
</svg>
