<svg width="14" height="14" viewBox="0 0 14 14" fill="none" xmlns="http://www.w3.org/2000/svg">
<path d="M6.99992 0.333313C3.32659 0.333313 0.333252 3.32665 0.333252 6.99998C0.333252 10.6733 3.32659 13.6666 6.99992 13.6666C10.6733 13.6666 13.6666 10.6733 13.6666 6.99998C13.6666 3.32665 10.6733 0.333313 6.99992 0.333313ZM9.89992 9.37998C9.80659 9.53998 9.63992 9.62665 9.46659 9.62665C9.37992 9.62665 9.29325 9.60665 9.21325 9.55331L7.14659 8.31998C6.63325 8.01331 6.25325 7.33998 6.25325 6.74665V4.01331C6.25325 3.73998 6.47992 3.51331 6.75325 3.51331C7.02659 3.51331 7.25325 3.73998 7.25325 4.01331V6.74665C7.25325 6.98665 7.45325 7.33998 7.65992 7.45998L9.72659 8.69331C9.96659 8.83331 10.0466 9.13998 9.89992 9.37998Z" fill="#F79009"/>
</svg>
