<svg width="363" height="510" viewBox="0 0 363 510" fill="none" xmlns="http://www.w3.org/2000/svg">
<g filter="url(#filter0_dddd_8117_13323)">
<path d="M96 91.0524C96 87.9377 98.4389 84.7593 101.447 83.9532L338.409 20.4596C341.417 19.6535 343.856 21.5249 343.856 24.6396V211.769C343.856 214.884 341.417 218.062 338.409 218.868L101.447 282.362C98.4389 283.168 96 281.297 96 278.182L96 91.0524Z" fill="#FEFEFE"/>
<path d="M108.966 101.352L107.02 94.7346L108.364 94.3747L109.606 99.2875L109.67 99.2704L110.997 93.6692L112.219 93.3417L113.549 98.2346L113.609 98.2184L114.851 92.6363L116.195 92.2763L114.249 99.9361L113.017 100.266L111.636 95.6275L111.582 95.6419L110.199 101.021L108.966 101.352ZM118.735 98.8386C118.23 98.9739 117.792 98.9762 117.422 98.8454C117.052 98.7146 116.764 98.4697 116.56 98.1108C116.358 97.7513 116.257 97.2951 116.257 96.742C116.257 96.189 116.358 95.6774 116.56 95.2074C116.764 94.7367 117.052 94.3367 117.422 94.0074C117.792 93.6782 118.23 93.4459 118.735 93.3106C119.24 93.1752 119.678 93.173 120.048 93.3038C120.418 93.4346 120.705 93.6809 120.907 94.0427C121.111 94.4039 121.213 94.8611 121.213 95.4141C121.213 95.9671 121.111 96.4778 120.907 96.9462C120.705 97.4139 120.418 97.8124 120.048 98.1417C119.678 98.471 119.24 98.7033 118.735 98.8386ZM118.742 97.826C119.016 97.7526 119.245 97.6134 119.429 97.4084C119.613 97.2011 119.75 96.953 119.839 96.664C119.931 96.3745 119.977 96.067 119.977 95.7417C119.977 95.4141 119.931 95.1301 119.839 94.8899C119.75 94.6467 119.613 94.4708 119.429 94.3621C119.245 94.2534 119.016 94.2357 118.742 94.3091C118.461 94.3843 118.228 94.5258 118.042 94.7338C117.857 94.9411 117.719 95.1907 117.627 95.4826C117.538 95.7715 117.493 96.0798 117.493 96.4075C117.493 96.7328 117.538 97.0159 117.627 97.2567C117.719 97.497 117.857 97.6714 118.042 97.7801C118.228 97.8859 118.461 97.9012 118.742 97.826ZM122.247 97.7929V92.4391L123.429 92.1225V93.0148L123.483 93.0003C123.577 92.666 123.739 92.3846 123.968 92.1559C124.199 91.9243 124.463 91.7688 124.759 91.6895C124.826 91.6714 124.902 91.6548 124.985 91.6395C125.07 91.6213 125.141 91.6105 125.197 91.607V92.7677C125.145 92.763 125.063 92.7686 124.951 92.7848C124.841 92.798 124.734 92.8184 124.631 92.8461C124.409 92.9056 124.209 93.0091 124.032 93.1565C123.857 93.301 123.719 93.474 123.618 93.6753C123.517 93.8766 123.466 94.0912 123.466 94.3189V97.4663L122.247 97.7929ZM127.117 94.808L127.114 93.2857L127.309 93.2334L129.168 90.5848L130.592 90.2032L128.306 93.4508L128.053 93.5185L127.117 94.808ZM126.006 96.7857V89.6473L127.225 89.3207V96.4591L126.006 96.7857ZM129.252 95.916L127.569 93.9307L128.39 92.8218L130.71 95.5254L129.252 95.916ZM131.404 95.3394V89.9856L132.623 89.659V95.0128L131.404 95.3394ZM132.017 89.0615C131.824 89.1133 131.658 89.0915 131.519 88.9964C131.38 88.8989 131.31 88.756 131.31 88.5678C131.31 88.3773 131.38 88.1971 131.519 88.0274C131.658 87.8553 131.824 87.7434 132.017 87.6917C132.212 87.6394 132.378 87.6623 132.515 87.7604C132.654 87.8555 132.724 87.9984 132.724 88.1889C132.724 88.3771 132.654 88.5573 132.515 88.7293C132.378 88.8985 132.212 89.0092 132.017 89.0615ZM135.095 91.2134V94.3504L133.876 94.677V89.3232L135.041 89.0111V89.9208L135.102 89.9045C135.221 89.5729 135.41 89.2839 135.671 89.0375C135.933 88.7906 136.258 88.6154 136.644 88.5119C137.001 88.4163 137.312 88.412 137.576 88.4991C137.843 88.5855 138.05 88.7591 138.196 89.0197C138.344 89.2798 138.417 89.6239 138.415 90.0521V93.4609L137.196 93.7875V90.5738C137.196 90.216 137.106 89.96 136.927 89.806C136.749 89.6513 136.503 89.6161 136.189 89.7003C135.976 89.7574 135.786 89.857 135.62 89.9991C135.456 90.1383 135.327 90.3112 135.233 90.5177C135.141 90.7236 135.095 90.9555 135.095 91.2134ZM141.903 94.6455C141.465 94.7628 141.089 94.802 140.775 94.763C140.461 94.7264 140.208 94.6314 140.017 94.478C139.826 94.3246 139.694 94.1336 139.62 93.9048L140.718 93.3353C140.767 93.4267 140.839 93.5108 140.933 93.5878C141.027 93.6671 141.154 93.7191 141.313 93.7438C141.475 93.7702 141.678 93.7506 141.923 93.6851C142.269 93.5925 142.555 93.4286 142.781 93.1936C143.008 92.9609 143.121 92.6471 143.121 92.252V91.2377L143.061 91.254C142.998 91.4009 142.906 91.5592 142.785 91.7288C142.666 91.8978 142.508 92.0552 142.31 92.2011C142.115 92.3463 141.869 92.4587 141.573 92.538C141.175 92.6445 140.815 92.6446 140.492 92.5383C140.171 92.4291 139.915 92.2072 139.724 91.8726C139.536 91.5351 139.442 91.0747 139.442 90.4914C139.442 89.9035 139.536 89.3822 139.724 88.9273C139.915 88.4696 140.172 88.0928 140.495 87.7971C140.819 87.499 141.179 87.2968 141.576 87.1903C141.879 87.1091 142.128 87.0958 142.324 87.1504C142.521 87.202 142.678 87.2866 142.795 87.404C142.912 87.5191 143 87.6336 143.061 87.7475L143.128 87.7295V86.8442L144.33 86.5221V91.963C144.33 92.4208 144.225 92.8278 144.014 93.1841C143.803 93.5404 143.514 93.8419 143.148 94.0887C142.783 94.3354 142.367 94.521 141.903 94.6455ZM141.913 91.457C142.171 91.3879 142.391 91.2639 142.573 91.085C142.754 90.9062 142.892 90.6821 142.987 90.4129C143.081 90.1436 143.128 89.8382 143.128 89.4966C143.128 89.1597 143.081 88.8772 142.987 88.6492C142.895 88.4206 142.758 88.2609 142.576 88.1702C142.396 88.0766 142.175 88.0649 141.913 88.1353C141.641 88.2081 141.414 88.342 141.233 88.5371C141.051 88.7322 140.914 88.9699 140.822 89.2502C140.73 89.5281 140.684 89.8286 140.684 90.1516C140.684 90.4792 140.73 90.7539 140.822 90.9755C140.916 91.1943 141.054 91.3478 141.236 91.4362C141.42 91.5217 141.646 91.5286 141.913 91.457ZM147.985 90.8966V83.7582L149.234 83.4236V89.4779L152.271 88.6642V89.7482L147.985 90.8966ZM155.59 88.9633C155.072 89.1022 154.624 89.1107 154.247 88.9886C153.872 88.8637 153.584 88.6226 153.382 88.2654C153.18 87.9059 153.079 87.4462 153.079 86.8862C153.079 86.3355 153.18 85.8251 153.382 85.355C153.586 84.882 153.871 84.4803 154.237 84.1499C154.603 83.8172 155.033 83.5847 155.526 83.4524C155.845 83.367 156.146 83.3398 156.429 83.3709C156.714 83.3991 156.965 83.4944 157.183 83.6568C157.403 83.8186 157.576 84.0535 157.701 84.3614C157.827 84.667 157.89 85.0545 157.89 85.5239V85.9108L153.651 87.0465V86.1961L156.722 85.3733C156.719 85.1323 156.669 84.9308 156.57 84.7691C156.471 84.605 156.333 84.4921 156.156 84.4304C155.981 84.3681 155.777 84.3682 155.543 84.4308C155.294 84.4975 155.075 84.6189 154.887 84.7949C154.698 84.9686 154.551 85.1706 154.446 85.4011C154.342 85.6286 154.29 85.8623 154.287 86.1022V86.8447C154.287 87.156 154.342 87.4085 154.452 87.6021C154.562 87.7934 154.716 87.9218 154.914 87.9874C155.111 88.0507 155.342 88.0468 155.607 87.9759C155.784 87.9283 155.945 87.8598 156.089 87.7702C156.232 87.6782 156.357 87.567 156.462 87.4365C156.568 87.306 156.647 87.158 156.701 86.9925L157.839 86.8201C157.767 87.1507 157.631 87.4592 157.429 87.7457C157.229 88.0293 156.973 88.2768 156.661 88.4882C156.349 88.6973 155.992 88.8556 155.59 88.9633ZM163.392 81.4145L161.55 87.2617L160.204 87.6226L158.362 82.7623L159.662 82.414L160.85 86.0726L160.904 86.0582L162.096 81.7618L163.392 81.4145ZM166.349 86.0806C165.83 86.2195 165.383 86.2279 165.005 86.1059C164.631 85.9809 164.342 85.7399 164.14 85.3827C163.938 85.0232 163.837 84.5635 163.837 84.0035C163.837 83.4527 163.938 82.9423 164.14 82.4723C164.344 81.9993 164.629 81.5976 164.995 81.2672C165.361 80.9345 165.791 80.7019 166.285 80.5696C166.604 80.4842 166.904 80.4571 167.187 80.4882C167.472 80.5164 167.724 80.6117 167.941 80.7741C168.161 80.9359 168.334 81.1708 168.46 81.4787C168.585 81.7843 168.648 82.1717 168.648 82.6411V83.028L164.41 84.1638V83.3133L167.48 82.4906C167.478 82.2495 167.427 82.0481 167.329 81.8864C167.23 81.7223 167.092 81.6094 166.914 81.5477C166.739 81.4854 166.535 81.4855 166.302 81.548C166.053 81.6148 165.834 81.7362 165.645 81.9122C165.457 82.0859 165.31 82.2879 165.204 82.5183C165.101 82.7458 165.048 82.9796 165.046 83.2195V83.9619C165.046 84.2733 165.101 84.5258 165.211 84.7194C165.321 84.9107 165.475 85.0391 165.672 85.1047C165.87 85.1679 166.101 85.1641 166.366 85.0931C166.543 85.0456 166.703 84.9771 166.847 84.8874C166.991 84.7955 167.115 84.6843 167.221 84.5538C167.326 84.4233 167.406 84.2753 167.46 84.1098L168.598 83.9373C168.526 84.268 168.389 84.5765 168.187 84.863C167.987 85.1466 167.731 85.3941 167.419 85.6055C167.107 85.8145 166.751 85.9729 166.349 86.0806ZM170.898 77.6186V84.757L169.679 85.0836V77.9452L170.898 77.6186Z" fill="#101828"/>
<path d="M107.043 109.151L107.863 108.931L109.502 111.348L109.571 111.329L111.21 108.034L112.03 107.814L109.894 111.984V114.505L109.178 114.697V112.175L107.043 109.151ZM114.037 113.491C113.637 113.598 113.285 113.593 112.983 113.477C112.683 113.36 112.449 113.147 112.279 112.838C112.112 112.529 112.028 112.137 112.028 111.663C112.028 111.185 112.112 110.745 112.279 110.344C112.449 109.942 112.683 109.602 112.983 109.324C113.285 109.046 113.637 108.854 114.037 108.746C114.437 108.639 114.787 108.644 115.087 108.761C115.389 108.877 115.624 109.091 115.791 109.403C115.961 109.714 116.045 110.108 116.045 110.586C116.045 111.06 115.961 111.497 115.791 111.897C115.624 112.297 115.389 112.635 115.087 112.914C114.787 113.191 114.437 113.384 114.037 113.491ZM114.037 112.857C114.341 112.776 114.591 112.628 114.787 112.414C114.983 112.2 115.129 111.949 115.223 111.661C115.317 111.373 115.364 111.076 115.364 110.769C115.364 110.462 115.317 110.189 115.223 109.949C115.129 109.71 114.983 109.534 114.787 109.424C114.591 109.313 114.341 109.298 114.037 109.38C113.733 109.461 113.483 109.61 113.286 109.826C113.09 110.042 112.945 110.295 112.851 110.585C112.756 110.875 112.709 111.174 112.709 111.48C112.709 111.787 112.756 112.059 112.851 112.297C112.945 112.534 113.09 112.708 113.286 112.816C113.483 112.925 113.733 112.939 114.037 112.857ZM119.878 109.954V107.241L120.559 107.058V111.647L119.878 111.83V111.053L119.832 111.066C119.728 111.326 119.567 111.568 119.347 111.79C119.128 112.01 118.851 112.165 118.516 112.255C118.239 112.329 117.993 112.332 117.777 112.264C117.562 112.195 117.393 112.049 117.27 111.827C117.146 111.603 117.085 111.296 117.085 110.905V107.989L117.766 107.807V110.675C117.766 111.01 117.856 111.252 118.037 111.403C118.22 111.553 118.453 111.59 118.736 111.515C118.905 111.469 119.077 111.378 119.252 111.242C119.429 111.105 119.577 110.928 119.697 110.71C119.818 110.493 119.878 110.241 119.878 109.954ZM121.807 111.313V106.724L122.465 106.548V107.241L122.511 107.229C122.592 106.98 122.738 106.757 122.95 106.558C123.161 106.36 123.4 106.226 123.665 106.155C123.715 106.141 123.778 106.125 123.853 106.107C123.928 106.089 123.985 106.077 124.023 106.071V106.788C124 106.788 123.947 106.793 123.864 106.803C123.784 106.811 123.698 106.827 123.607 106.851C123.392 106.909 123.2 107.007 123.03 107.146C122.863 107.283 122.73 107.446 122.632 107.635C122.536 107.822 122.488 108.02 122.488 108.227V111.131L121.807 111.313ZM130.256 105.488L129.644 105.831C129.605 105.736 129.549 105.649 129.474 105.569C129.401 105.487 129.3 105.43 129.173 105.399C129.047 105.367 128.884 105.378 128.686 105.431C128.415 105.503 128.188 105.629 128.008 105.807C127.829 105.982 127.739 106.168 127.739 106.366C127.739 106.541 127.801 106.663 127.924 106.731C128.047 106.8 128.239 106.833 128.501 106.831L129.159 106.822C129.555 106.815 129.851 106.888 130.045 107.041C130.239 107.192 130.336 107.428 130.336 107.749C130.336 108.012 130.263 108.266 130.117 108.513C129.973 108.759 129.771 108.976 129.511 109.165C129.251 109.354 128.949 109.495 128.605 109.587C128.153 109.708 127.779 109.707 127.482 109.583C127.186 109.459 126.999 109.213 126.92 108.844L127.566 108.503C127.628 108.734 127.744 108.888 127.915 108.965C128.088 109.042 128.314 109.044 128.593 108.969C128.911 108.884 129.163 108.747 129.35 108.557C129.538 108.365 129.632 108.171 129.632 107.973C129.632 107.814 129.578 107.695 129.471 107.616C129.363 107.536 129.198 107.498 128.974 107.504L128.236 107.523C127.83 107.532 127.531 107.458 127.341 107.3C127.152 107.139 127.058 106.901 127.058 106.584C127.058 106.325 127.128 106.077 127.269 105.84C127.411 105.603 127.605 105.395 127.849 105.216C128.095 105.036 128.374 104.905 128.686 104.821C129.124 104.704 129.469 104.711 129.719 104.843C129.971 104.975 130.15 105.19 130.256 105.488ZM133.289 103.647V104.245L130.992 104.86V104.263L133.289 103.647ZM131.662 102.984L132.343 102.802V107.176C132.343 107.375 132.371 107.517 132.427 107.601C132.484 107.683 132.557 107.729 132.646 107.74C132.736 107.747 132.831 107.738 132.932 107.711C133.007 107.691 133.068 107.67 133.116 107.649C133.164 107.627 133.203 107.608 133.232 107.595L133.37 108.191C133.324 108.221 133.26 108.256 133.177 108.296C133.094 108.339 132.989 108.377 132.862 108.411C132.67 108.462 132.481 108.47 132.297 108.434C132.114 108.397 131.962 108.307 131.841 108.165C131.721 108.021 131.662 107.816 131.662 107.549V102.984ZM136.067 107.588C135.667 107.695 135.316 107.69 135.014 107.574C134.714 107.457 134.479 107.245 134.31 106.935C134.142 106.626 134.058 106.234 134.058 105.76C134.058 105.282 134.142 104.842 134.31 104.441C134.479 104.039 134.714 103.699 135.014 103.421C135.316 103.143 135.667 102.951 136.067 102.843C136.467 102.736 136.817 102.741 137.117 102.858C137.419 102.974 137.654 103.188 137.822 103.5C137.991 103.811 138.075 104.205 138.075 104.683C138.075 105.157 137.991 105.594 137.822 105.994C137.654 106.394 137.419 106.732 137.117 107.011C136.817 107.288 136.467 107.481 136.067 107.588ZM136.067 106.954C136.371 106.873 136.621 106.725 136.817 106.511C137.014 106.297 137.159 106.046 137.253 105.758C137.347 105.47 137.394 105.173 137.394 104.866C137.394 104.559 137.347 104.286 137.253 104.046C137.159 103.807 137.014 103.632 136.817 103.521C136.621 103.41 136.371 103.395 136.067 103.477C135.763 103.558 135.513 103.707 135.317 103.923C135.12 104.139 134.975 104.392 134.881 104.682C134.787 104.972 134.739 105.271 134.739 105.577C134.739 105.884 134.787 106.156 134.881 106.394C134.975 106.632 135.12 106.805 135.317 106.913C135.513 107.022 135.763 107.036 136.067 106.954ZM139.115 106.675V102.086L139.773 101.91V102.603L139.819 102.591C139.9 102.342 140.046 102.119 140.258 101.921C140.469 101.723 140.708 101.588 140.974 101.517C141.024 101.503 141.086 101.488 141.161 101.47C141.236 101.451 141.293 101.439 141.331 101.433V102.15C141.308 102.15 141.255 102.155 141.173 102.166C141.092 102.173 141.006 102.189 140.916 102.213C140.7 102.271 140.508 102.37 140.339 102.509C140.171 102.645 140.039 102.808 139.94 102.998C139.844 103.185 139.796 103.382 139.796 103.589V106.493L139.115 106.675ZM142.712 107.432C142.597 107.463 142.494 107.481 142.403 107.485C142.313 107.492 142.251 107.49 142.216 107.482L142.389 106.814C142.554 106.813 142.701 106.79 142.828 106.744C142.955 106.698 143.067 106.609 143.165 106.477C143.265 106.347 143.357 106.154 143.439 105.899L143.566 105.507L141.927 101.333L142.666 101.135L143.89 104.464L143.936 104.452L145.159 100.467L145.898 100.269L144.017 106.031C143.932 106.291 143.827 106.515 143.702 106.704C143.577 106.895 143.432 107.05 143.266 107.17C143.103 107.29 142.918 107.377 142.712 107.432ZM149.083 105.725V99.4157L149.741 99.2394V99.9683L149.821 99.9467C149.871 99.8536 149.941 99.7335 150.029 99.5863C150.12 99.4366 150.249 99.2905 150.416 99.1481C150.585 99.0031 150.814 98.892 151.103 98.8146C151.476 98.7146 151.805 98.7231 152.09 98.84C152.374 98.9569 152.597 99.1712 152.756 99.483C152.916 99.7947 152.996 100.192 152.996 100.674C152.996 101.16 152.916 101.602 152.756 102.002C152.597 102.399 152.375 102.733 152.093 103.004C151.81 103.273 151.484 103.457 151.114 103.556C150.83 103.632 150.602 103.644 150.43 103.593C150.259 103.539 150.127 103.462 150.035 103.361C149.943 103.258 149.871 103.172 149.821 103.102L149.764 103.117V105.543L149.083 105.725ZM149.752 101.531C149.752 101.877 149.801 102.17 149.899 102.409C149.997 102.645 150.141 102.813 150.329 102.912C150.518 103.009 150.749 103.02 151.022 102.947C151.307 102.871 151.544 102.73 151.735 102.523C151.927 102.314 152.071 102.065 152.168 101.774C152.266 101.481 152.315 101.171 152.315 100.844C152.315 100.521 152.267 100.244 152.17 100.01C152.076 99.7747 151.933 99.607 151.74 99.5072C151.55 99.4048 151.31 99.3923 151.022 99.4697C150.745 99.5439 150.512 99.679 150.324 99.8749C150.135 100.069 149.993 100.308 149.896 100.593C149.8 100.876 149.752 101.188 149.752 101.531ZM155.835 102.291C155.435 102.398 155.084 102.394 154.782 102.277C154.482 102.161 154.247 101.948 154.078 101.638C153.911 101.329 153.827 100.937 153.827 100.463C153.827 99.9848 153.911 99.5451 154.078 99.1437C154.247 98.7419 154.482 98.4021 154.782 98.1245C155.084 97.8464 155.435 97.6537 155.835 97.5465C156.236 97.4393 156.586 97.4441 156.886 97.5608C157.188 97.6771 157.423 97.891 157.59 98.2027C157.759 98.5139 157.844 98.9084 157.844 99.3865C157.844 99.8605 157.759 100.297 157.59 100.697C157.423 101.097 157.188 101.435 156.886 101.714C156.586 101.991 156.236 102.184 155.835 102.291ZM155.835 101.657C156.139 101.576 156.39 101.428 156.586 101.214C156.782 101.001 156.927 100.749 157.022 100.461C157.116 100.173 157.163 99.8757 157.163 99.569C157.163 99.2622 157.116 98.989 157.022 98.7494C156.927 98.5098 156.782 98.3346 156.586 98.2238C156.39 98.1131 156.139 98.0984 155.835 98.1799C155.531 98.2613 155.281 98.41 155.085 98.6259C154.889 98.8418 154.744 99.0948 154.649 99.385C154.555 99.6752 154.508 99.9736 154.508 100.28C154.508 100.587 154.555 100.859 154.649 101.097C154.744 101.335 154.889 101.508 155.085 101.617C155.281 101.725 155.531 101.739 155.835 101.657ZM158.884 101.378V96.7895L159.565 96.607V101.196L158.884 101.378ZM159.23 95.9319C159.097 95.9675 158.983 95.9513 158.886 95.8835C158.792 95.8152 158.745 95.7152 158.745 95.5838C158.745 95.4523 158.792 95.3272 158.886 95.2083C158.983 95.0889 159.097 95.0114 159.23 94.9759C159.363 94.9403 159.476 94.9567 159.57 95.025C159.667 95.0929 159.715 95.1925 159.715 95.324C159.715 95.4554 159.667 95.5809 159.57 95.7002C159.476 95.8191 159.363 95.8963 159.23 95.9319ZM161.493 97.9187V100.679L160.812 100.862V96.2728L161.47 96.0965V96.8135L161.528 96.7981C161.632 96.5372 161.789 96.3077 162.001 96.1096C162.213 95.9095 162.486 95.7646 162.821 95.6749C163.121 95.5944 163.383 95.5878 163.608 95.655C163.833 95.7201 164.009 95.8644 164.134 96.0879C164.259 96.3093 164.321 96.6152 164.321 97.0056V99.9215L163.64 100.104V97.2359C163.64 96.8754 163.55 96.6188 163.369 96.4661C163.188 96.3114 162.94 96.2763 162.624 96.3608C162.407 96.4191 162.213 96.5199 162.041 96.6634C161.872 96.8064 161.738 96.9846 161.64 97.1981C161.542 97.4116 161.493 97.6518 161.493 97.9187ZM167.493 94.4825V95.0801L165.196 95.6956V95.098L167.493 94.4825ZM165.866 93.8192L166.547 93.6367V98.0106C166.547 98.2097 166.575 98.3517 166.631 98.4363C166.688 98.5184 166.761 98.5646 166.85 98.5747C166.94 98.5823 167.035 98.5728 167.136 98.546C167.211 98.5258 167.272 98.5054 167.32 98.4845C167.368 98.4617 167.407 98.4434 167.436 98.4297L167.574 99.0259C167.528 99.0562 167.464 99.0914 167.381 99.1315C167.298 99.1736 167.193 99.2117 167.066 99.2457C166.874 99.2972 166.685 99.3049 166.501 99.2688C166.318 99.2321 166.166 99.1424 166.045 98.9996C165.925 98.8563 165.866 98.6512 165.866 98.3843V93.8192ZM173.943 93.7821L173.331 94.1252C173.293 94.03 173.236 93.9426 173.161 93.8631C173.088 93.7812 172.988 93.7243 172.861 93.6926C172.734 93.6609 172.571 93.6716 172.373 93.7247C172.102 93.7974 171.876 93.9227 171.695 94.1006C171.516 94.276 171.427 94.4623 171.427 94.6595C171.427 94.8348 171.488 94.9567 171.611 95.0253C171.735 95.0939 171.927 95.127 172.189 95.1246L172.847 95.1156C173.243 95.109 173.538 95.1822 173.732 95.3353C173.927 95.4864 174.024 95.7223 174.024 96.0429C174.024 96.3058 173.951 96.5605 173.805 96.8068C173.66 97.0526 173.458 97.27 173.199 97.4591C172.939 97.6482 172.637 97.7889 172.292 97.8812C171.84 98.0023 171.466 98.001 171.17 97.8772C170.874 97.7535 170.686 97.507 170.607 97.1377L171.254 96.7972C171.315 97.0277 171.432 97.1817 171.603 97.2593C171.776 97.3364 172.002 97.3376 172.281 97.2629C172.598 97.1778 172.85 97.0406 173.037 96.8511C173.226 96.6592 173.32 96.4646 173.32 96.2675C173.32 96.1081 173.266 95.9891 173.158 95.9104C173.05 95.8297 172.885 95.7924 172.662 95.7984L171.923 95.8171C171.517 95.8263 171.219 95.7519 171.028 95.5938C170.84 95.4332 170.746 95.1945 170.746 94.8778C170.746 94.6189 170.816 94.371 170.956 94.1342C171.099 93.8969 171.292 93.6888 171.536 93.5098C171.783 93.3302 172.062 93.1987 172.373 93.1152C172.812 92.9977 173.156 93.005 173.406 93.1372C173.658 93.2688 173.837 93.4838 173.943 93.7821ZM176.85 96.66C176.45 96.7673 176.099 96.7627 175.797 96.6465C175.496 96.5297 175.262 96.3168 175.092 96.0076C174.925 95.6979 174.841 95.3061 174.841 94.832C174.841 94.354 174.925 93.9143 175.092 93.5129C175.262 93.1111 175.496 92.7713 175.797 92.4937C176.099 92.2156 176.45 92.0229 176.85 91.9157C177.25 91.8085 177.6 91.8133 177.9 91.93C178.202 92.0463 178.437 92.2602 178.604 92.5719C178.774 92.8831 178.858 93.2776 178.858 93.7557C178.858 94.2297 178.774 94.6667 178.604 95.0666C178.437 95.4659 178.202 95.8047 177.9 96.0828C177.6 96.3604 177.25 96.5528 176.85 96.66ZM176.85 96.0267C177.154 95.9452 177.404 95.7975 177.6 95.5836C177.796 95.3697 177.942 95.1187 178.036 94.8305C178.13 94.5423 178.177 94.2449 178.177 93.9382C178.177 93.6314 178.13 93.3582 178.036 93.1186C177.942 92.879 177.796 92.7038 177.6 92.593C177.404 92.4823 177.154 92.4676 176.85 92.5491C176.546 92.6305 176.296 92.7792 176.1 92.9951C175.903 93.211 175.758 93.464 175.664 93.7542C175.57 94.0444 175.522 94.3428 175.522 94.6495C175.522 94.9563 175.57 95.2285 175.664 95.4661C175.758 95.7038 175.903 95.877 176.1 95.9857C176.296 96.0945 176.546 96.1081 176.85 96.0267ZM184.157 90.0174V90.6149L181.768 91.2552V90.6577L184.157 90.0174ZM182.484 95.0549V89.8325C182.484 89.5696 182.543 89.3345 182.663 89.1273C182.782 88.9201 182.937 88.7471 183.127 88.6084C183.318 88.4698 183.519 88.3721 183.73 88.3154C183.898 88.2705 184.034 88.2479 184.14 88.2474C184.246 88.2469 184.325 88.2517 184.377 88.2617L184.181 88.9237C184.146 88.9211 184.098 88.919 184.036 88.9176C183.977 88.9156 183.898 88.9278 183.8 88.9541C183.575 89.0144 183.412 89.1167 183.312 89.261C183.214 89.4049 183.165 89.5903 183.165 89.8173V94.8724L182.484 95.0549ZM186.289 94.1427C186.008 94.2179 185.754 94.2315 185.525 94.1833C185.296 94.1331 185.114 94.0215 184.979 93.8484C184.844 93.6734 184.777 93.4365 184.777 93.1377C184.777 92.8748 184.827 92.6483 184.927 92.4582C185.027 92.266 185.161 92.1008 185.328 91.9623C185.496 91.8238 185.68 91.7046 185.882 91.6047C186.086 91.5023 186.291 91.4095 186.497 91.3265C186.766 91.2184 186.985 91.133 187.152 91.0703C187.321 91.005 187.445 90.9391 187.522 90.8727C187.6 90.8058 187.64 90.7155 187.64 90.602V90.5781C187.64 90.2833 187.562 90.0751 187.406 89.9536C187.252 89.8315 187.018 89.8125 186.705 89.8965C186.38 89.9836 186.125 90.1256 185.94 90.3225C185.755 90.5194 185.626 90.7115 185.551 90.8989L184.904 90.8331C185.02 90.5233 185.173 90.265 185.366 90.0581C185.56 89.8487 185.772 89.6824 186.001 89.5593C186.232 89.4338 186.459 89.3411 186.682 89.2813C186.824 89.2431 186.988 89.2172 187.172 89.2036C187.359 89.1874 187.539 89.2099 187.712 89.2711C187.887 89.3317 188.032 89.4552 188.148 89.6413C188.263 89.8275 188.321 90.1028 188.321 90.4673V93.4908L187.64 93.6733V93.0518L187.605 93.0611C187.559 93.1731 187.482 93.3002 187.374 93.4426C187.267 93.585 187.123 93.72 186.944 93.8477C186.765 93.9753 186.547 94.0736 186.289 94.1427ZM186.393 93.4815C186.663 93.4093 186.89 93.2937 187.074 93.1347C187.261 92.9751 187.401 92.7961 187.496 92.5975C187.592 92.3985 187.64 92.2033 187.64 92.0121V91.3668C187.611 91.4104 187.548 91.4603 187.449 91.5164C187.353 91.5701 187.242 91.6249 187.115 91.6808C186.99 91.7343 186.867 91.7849 186.748 91.8328C186.631 91.8782 186.536 91.9157 186.462 91.9452C186.285 92.0165 186.12 92.0997 185.966 92.1947C185.814 92.2872 185.691 92.3989 185.597 92.5297C185.504 92.658 185.458 92.8118 185.458 92.9911C185.458 93.2361 185.546 93.3978 185.721 93.4764C185.898 93.5525 186.122 93.5542 186.393 93.4815ZM189.564 93.1577V88.5687L190.222 88.3924V89.0855L190.268 89.0732C190.349 88.8245 190.495 88.6011 190.707 88.4029C190.918 88.2048 191.157 88.0702 191.422 87.9991C191.472 87.9856 191.535 87.9699 191.61 87.9518C191.685 87.9337 191.742 87.9214 191.78 87.9151V88.6321C191.757 88.6324 191.704 88.6376 191.622 88.6478C191.541 88.6555 191.455 88.6715 191.365 88.6957C191.149 88.7534 190.957 88.8518 190.788 88.9908C190.62 89.1272 190.487 89.2903 190.389 89.4799C190.293 89.667 190.245 89.8641 190.245 90.0712V92.9752L189.564 93.1577Z" fill="#475467"/>
<path d="M106.835 126.738L333.021 66.1317" stroke="#EBEFFA" stroke-width="0.701091"/>
<path d="M132.569 242.534L322.863 191.544" stroke="#E2E6F0" stroke-width="0.701091" stroke-dasharray="2.8 2.8"/>
<path d="M132.569 164.712L322.863 113.723" stroke="#E2E6F0" stroke-width="0.701091" stroke-dasharray="2.8 2.8"/>
<path d="M132.569 215.191L322.863 164.202" stroke="#E2E6F0" stroke-width="0.701091" stroke-dasharray="2.8 2.8"/>
<path d="M132.569 189.952L322.863 138.963" stroke="#E2E6F0" stroke-width="0.701091" stroke-dasharray="2.8 2.8"/>
<path d="M132.569 139.473L322.863 88.4841" stroke="#E2E6F0" stroke-width="0.701091" stroke-dasharray="2.8 2.8"/>
<path d="M109.077 143.462V148.561L108.48 148.721V144.27L108.451 144.277L107.249 145.426V144.799L108.48 143.622L109.077 143.462ZM110.154 148.273V147.824L111.78 145.546C111.971 145.28 112.128 145.05 112.251 144.857C112.375 144.663 112.466 144.488 112.526 144.331C112.586 144.172 112.617 144.014 112.617 143.858C112.617 143.679 112.575 143.535 112.492 143.426C112.41 143.317 112.298 143.246 112.155 143.213C112.012 143.18 111.852 143.187 111.674 143.234C111.485 143.285 111.32 143.37 111.179 143.489C111.039 143.606 110.931 143.747 110.854 143.912C110.779 144.077 110.741 144.256 110.741 144.451L110.174 144.603C110.174 144.304 110.24 144.024 110.373 143.762C110.506 143.501 110.687 143.276 110.917 143.089C111.148 142.901 111.406 142.768 111.693 142.692C111.982 142.614 112.238 142.609 112.461 142.675C112.683 142.742 112.858 142.865 112.985 143.045C113.112 143.225 113.175 143.447 113.175 143.709C113.175 143.896 113.142 144.089 113.076 144.285C113.012 144.48 112.9 144.709 112.74 144.971C112.581 145.231 112.36 145.555 112.078 145.945L110.972 147.466V147.506L113.261 146.892V147.44L110.154 148.273ZM115.522 146.904C115.16 147.001 114.851 146.982 114.597 146.846C114.342 146.708 114.147 146.462 114.012 146.109C113.878 145.753 113.81 145.298 113.81 144.744C113.81 144.192 113.878 143.704 114.012 143.278C114.148 142.85 114.344 142.498 114.599 142.224C114.855 141.948 115.163 141.762 115.522 141.666C115.882 141.569 116.189 141.591 116.443 141.73C116.7 141.867 116.896 142.113 117.03 142.469C117.167 142.823 117.235 143.275 117.235 143.826C117.235 144.38 117.167 144.871 117.033 145.299C116.898 145.725 116.703 146.075 116.448 146.35C116.193 146.622 115.885 146.807 115.522 146.904ZM115.522 146.356C115.882 146.26 116.161 146.006 116.359 145.594C116.558 145.182 116.658 144.645 116.658 143.981C116.658 143.539 116.612 143.175 116.52 142.889C116.431 142.603 116.301 142.401 116.131 142.284C115.963 142.167 115.76 142.14 115.522 142.203C115.167 142.299 114.888 142.555 114.688 142.972C114.488 143.388 114.387 143.927 114.387 144.589C114.387 145.03 114.432 145.393 114.522 145.678C114.612 145.963 114.741 146.163 114.909 146.279C115.079 146.394 115.284 146.42 115.522 146.356Z" fill="#2D2D2D"/>
<path d="M109.077 168.289V173.388L108.48 173.547V169.096L108.451 169.104L107.249 170.252V169.625L108.48 168.448L109.077 168.289ZM111.886 167.536V172.635L111.289 172.795V168.343L111.261 168.351L110.058 169.5V168.872L111.289 167.696L111.886 167.536ZM114.57 171.985C114.208 172.082 113.899 172.063 113.644 171.927C113.389 171.79 113.195 171.544 113.06 171.19C112.925 170.834 112.858 170.379 112.858 169.825C112.858 169.274 112.925 168.785 113.06 168.359C113.196 167.931 113.392 167.58 113.647 167.306C113.903 167.029 114.211 166.843 114.57 166.747C114.929 166.651 115.236 166.672 115.491 166.811C115.748 166.948 115.943 167.195 116.078 167.55C116.214 167.904 116.282 168.356 116.282 168.907C116.282 169.462 116.215 169.953 116.08 170.381C115.946 170.807 115.751 171.157 115.496 171.431C115.241 171.703 114.932 171.888 114.57 171.985ZM114.57 171.437C114.929 171.341 115.208 171.087 115.407 170.675C115.606 170.264 115.705 169.726 115.705 169.062C115.705 168.62 115.66 168.257 115.568 167.971C115.478 167.685 115.348 167.483 115.179 167.366C115.01 167.248 114.807 167.221 114.57 167.285C114.214 167.38 113.936 167.636 113.736 168.054C113.535 168.469 113.435 169.008 113.435 169.67C113.435 170.112 113.48 170.475 113.57 170.759C113.659 171.044 113.789 171.244 113.957 171.36C114.127 171.476 114.331 171.501 114.57 171.437Z" fill="#2D2D2D"/>
<path d="M109.077 193.115V198.214L108.48 198.374V193.922L108.451 193.93L107.249 195.078V194.451L108.48 193.275L109.077 193.115ZM111.761 197.564C111.398 197.661 111.09 197.642 110.835 197.506C110.58 197.369 110.385 197.123 110.251 196.769C110.116 196.413 110.049 195.958 110.049 195.404C110.049 194.853 110.116 194.364 110.251 193.938C110.387 193.51 110.582 193.159 110.837 192.885C111.094 192.608 111.402 192.422 111.761 192.326C112.12 192.23 112.427 192.251 112.682 192.39C112.938 192.527 113.134 192.774 113.269 193.129C113.405 193.483 113.473 193.935 113.473 194.486C113.473 195.041 113.406 195.532 113.271 195.959C113.136 196.386 112.942 196.736 112.687 197.01C112.432 197.282 112.123 197.467 111.761 197.564ZM111.761 197.016C112.12 196.92 112.399 196.666 112.598 196.254C112.796 195.843 112.896 195.305 112.896 194.641C112.896 194.199 112.85 193.836 112.759 193.55C112.669 193.263 112.539 193.062 112.369 192.945C112.201 192.827 111.998 192.8 111.761 192.864C111.405 192.959 111.127 193.215 110.926 193.633C110.726 194.048 110.626 194.587 110.626 195.249C110.626 195.691 110.671 196.054 110.76 196.338C110.85 196.623 110.979 196.823 111.148 196.939C111.318 197.055 111.522 197.08 111.761 197.016ZM115.655 196.521C115.292 196.618 114.984 196.599 114.729 196.463C114.474 196.325 114.279 196.079 114.144 195.725C114.01 195.37 113.942 194.915 113.942 194.36C113.942 193.809 114.01 193.321 114.144 192.895C114.281 192.466 114.476 192.115 114.731 191.841C114.988 191.565 115.296 191.379 115.655 191.283C116.014 191.186 116.321 191.208 116.576 191.347C116.832 191.484 117.028 191.73 117.163 192.086C117.299 192.44 117.367 192.892 117.367 193.443C117.367 193.997 117.3 194.488 117.165 194.916C117.03 195.342 116.835 195.692 116.581 195.966C116.326 196.239 116.017 196.424 115.655 196.521ZM115.655 195.973C116.014 195.877 116.293 195.623 116.492 195.211C116.69 194.799 116.79 194.261 116.79 193.598C116.79 193.156 116.744 192.792 116.653 192.506C116.563 192.22 116.433 192.018 116.263 191.901C116.095 191.784 115.892 191.757 115.655 191.82C115.299 191.916 115.021 192.172 114.82 192.589C114.62 193.005 114.52 193.544 114.52 194.206C114.52 194.647 114.565 195.01 114.654 195.295C114.744 195.58 114.873 195.78 115.041 195.896C115.211 196.011 115.416 196.037 115.655 195.973Z" fill="#2D2D2D"/>
<path d="M108.913 217.915C109.115 217.863 109.317 217.848 109.519 217.872C109.721 217.896 109.905 217.976 110.072 218.112C110.239 218.247 110.373 218.456 110.474 218.739C110.575 219.023 110.625 219.398 110.625 219.866C110.625 220.319 110.584 220.733 110.5 221.107C110.418 221.479 110.3 221.807 110.144 222.089C109.99 222.371 109.803 222.604 109.582 222.788C109.362 222.971 109.113 223.1 108.836 223.174C108.56 223.248 108.314 223.257 108.098 223.203C107.883 223.146 107.707 223.034 107.569 222.869C107.432 222.701 107.345 222.488 107.307 222.229L107.893 222.072C107.946 222.292 108.051 222.457 108.208 222.568C108.367 222.676 108.576 222.696 108.836 222.626C109.216 222.524 109.516 222.272 109.735 221.87C109.957 221.467 110.067 220.952 110.067 220.325L110.029 220.335C109.939 220.498 109.832 220.647 109.709 220.782C109.586 220.916 109.448 221.031 109.298 221.126C109.147 221.221 108.987 221.291 108.817 221.337C108.535 221.412 108.276 221.41 108.04 221.328C107.806 221.245 107.618 221.095 107.477 220.879C107.338 220.661 107.268 220.387 107.268 220.059C107.268 219.747 107.335 219.443 107.47 219.148C107.606 218.851 107.797 218.593 108.042 218.372C108.289 218.152 108.58 218 108.913 217.915ZM108.913 218.463C108.711 218.517 108.529 218.618 108.367 218.766C108.207 218.912 108.079 219.085 107.985 219.287C107.892 219.486 107.845 219.692 107.845 219.904C107.845 220.117 107.89 220.298 107.98 220.448C108.071 220.596 108.196 220.701 108.353 220.762C108.511 220.82 108.692 220.823 108.894 220.768C109.046 220.728 109.188 220.659 109.319 220.562C109.451 220.464 109.565 220.348 109.663 220.214C109.763 220.078 109.84 219.933 109.897 219.78C109.953 219.626 109.981 219.473 109.981 219.322C109.981 219.123 109.934 218.949 109.841 218.799C109.75 218.649 109.623 218.542 109.461 218.478C109.301 218.413 109.118 218.408 108.913 218.463ZM112.839 222.102C112.476 222.199 112.168 222.179 111.913 222.043C111.658 221.906 111.463 221.66 111.329 221.306C111.194 220.951 111.127 220.496 111.127 219.941C111.127 219.39 111.194 218.902 111.329 218.475C111.465 218.047 111.66 217.696 111.915 217.422C112.172 217.146 112.48 216.959 112.839 216.863C113.198 216.767 113.505 216.788 113.76 216.928C114.016 217.065 114.212 217.311 114.347 217.667C114.483 218.02 114.551 218.473 114.551 219.024C114.551 219.578 114.484 220.069 114.349 220.497C114.214 220.923 114.02 221.273 113.765 221.547C113.51 221.82 113.201 222.004 112.839 222.102ZM112.839 221.554C113.198 221.458 113.477 221.204 113.676 220.792C113.874 220.38 113.974 219.842 113.974 219.178C113.974 218.737 113.928 218.373 113.837 218.087C113.747 217.801 113.617 217.599 113.447 217.482C113.279 217.364 113.076 217.337 112.839 217.401C112.483 217.496 112.205 217.753 112.004 218.17C111.804 218.585 111.704 219.124 111.704 219.787C111.704 220.228 111.749 220.591 111.838 220.876C111.928 221.16 112.057 221.361 112.226 221.477C112.395 221.592 112.6 221.618 112.839 221.554Z" fill="#2D2D2D"/>
<path d="M108.923 247.977C108.592 248.066 108.301 248.083 108.047 248.03C107.796 247.974 107.599 247.859 107.458 247.682C107.317 247.504 107.247 247.277 107.249 247.001C107.247 246.786 107.288 246.576 107.371 246.371C107.455 246.164 107.569 245.98 107.713 245.819C107.859 245.655 108.022 245.533 108.201 245.452V245.422C107.965 245.422 107.778 245.335 107.638 245.162C107.499 244.987 107.43 244.764 107.432 244.493C107.43 244.234 107.493 243.986 107.622 243.747C107.75 243.509 107.926 243.3 108.151 243.122C108.377 242.944 108.634 242.816 108.923 242.739C109.208 242.662 109.463 242.653 109.687 242.711C109.912 242.768 110.088 242.882 110.216 243.052C110.346 243.221 110.412 243.435 110.414 243.694C110.412 243.965 110.341 244.225 110.2 244.475C110.06 244.724 109.875 244.91 109.644 245.035V245.065C109.822 245.05 109.982 245.086 110.125 245.173C110.268 245.257 110.382 245.38 110.467 245.542C110.551 245.702 110.595 245.889 110.596 246.104C110.595 246.38 110.523 246.645 110.38 246.899C110.239 247.151 110.042 247.372 109.791 247.563C109.541 247.751 109.251 247.889 108.923 247.977ZM108.923 247.429C109.145 247.37 109.338 247.281 109.5 247.163C109.662 247.045 109.787 246.906 109.875 246.746C109.963 246.586 110.008 246.415 110.01 246.232C110.008 246.04 109.96 245.882 109.865 245.76C109.771 245.638 109.642 245.556 109.478 245.515C109.316 245.474 109.131 245.481 108.923 245.537C108.713 245.593 108.525 245.686 108.36 245.815C108.196 245.943 108.067 246.094 107.973 246.267C107.88 246.44 107.834 246.622 107.836 246.814C107.834 246.997 107.876 247.145 107.963 247.258C108.051 247.371 108.177 247.442 108.341 247.473C108.504 247.504 108.698 247.489 108.923 247.429ZM108.923 245.009C109.099 244.962 109.255 244.884 109.392 244.774C109.529 244.664 109.638 244.533 109.716 244.381C109.795 244.229 109.835 244.064 109.836 243.888C109.835 243.716 109.796 243.576 109.719 243.469C109.642 243.36 109.535 243.289 109.399 243.256C109.262 243.221 109.104 243.228 108.923 243.277C108.738 243.326 108.577 243.405 108.439 243.513C108.301 243.62 108.195 243.748 108.119 243.898C108.044 244.046 108.007 244.206 108.009 244.378C108.007 244.554 108.045 244.698 108.122 244.808C108.2 244.918 108.309 244.991 108.446 245.027C108.584 245.063 108.743 245.057 108.923 245.009ZM112.786 246.942C112.424 247.039 112.115 247.02 111.86 246.884C111.605 246.746 111.41 246.5 111.276 246.146C111.141 245.791 111.074 245.336 111.074 244.782C111.074 244.23 111.141 243.742 111.276 243.316C111.412 242.888 111.607 242.536 111.862 242.262C112.119 241.986 112.427 241.8 112.786 241.704C113.145 241.607 113.452 241.629 113.707 241.768C113.963 241.905 114.159 242.151 114.294 242.507C114.43 242.861 114.498 243.313 114.498 243.864C114.498 244.418 114.431 244.909 114.296 245.337C114.161 245.763 113.967 246.113 113.712 246.388C113.457 246.66 113.148 246.845 112.786 246.942ZM112.786 246.394C113.145 246.298 113.424 246.044 113.623 245.632C113.822 245.22 113.921 244.682 113.921 244.019C113.921 243.577 113.875 243.213 113.784 242.927C113.694 242.641 113.564 242.439 113.394 242.322C113.226 242.205 113.023 242.178 112.786 242.241C112.43 242.337 112.152 242.593 111.951 243.01C111.751 243.426 111.651 243.965 111.651 244.627C111.651 245.068 111.696 245.431 111.785 245.716C111.875 246.001 112.004 246.201 112.173 246.317C112.343 246.432 112.547 246.458 112.786 246.394Z" fill="#2D2D2D"/>
<rect width="14.0218" height="42.0655" rx="4.20655" transform="matrix(0.965926 -0.258819 0 1 145.436 198.423)" fill="#EAECF0"/>
<rect width="14.0218" height="56.0873" rx="4.20655" transform="matrix(0.965926 -0.258819 0 1 183.359 174.239)" fill="#EAECF0"/>
<rect width="14.0218" height="42.0655" rx="4.20655" transform="matrix(0.965926 -0.258819 0 1 219.928 178.462)" fill="#EAECF0"/>
<g filter="url(#filter1_dddd_8117_13323)">
<rect width="14.0218" height="85.5331" rx="4.20655" transform="matrix(0.965926 -0.258819 0 1 256.497 125.196)" fill="#7A5AF8"/>
</g>
<rect width="14.0218" height="75.0168" rx="4.20655" transform="matrix(0.965926 -0.258819 0 1 294.42 125.551)" fill="#EAECF0"/>
<path d="M145.339 250.701C145.311 250.456 145.193 250.292 144.988 250.207C144.783 250.123 144.531 250.12 144.233 250.2C144.015 250.259 143.824 250.346 143.661 250.463C143.499 250.58 143.372 250.714 143.281 250.866C143.191 251.018 143.146 251.175 143.146 251.338C143.146 251.474 143.177 251.583 143.24 251.664C143.304 251.743 143.386 251.802 143.485 251.84C143.585 251.876 143.689 251.901 143.798 251.913C143.907 251.923 144.007 251.929 144.098 251.929L144.599 251.935C144.727 251.935 144.87 251.945 145.027 251.964C145.185 251.983 145.337 252.027 145.481 252.094C145.627 252.16 145.747 252.262 145.842 252.401C145.937 252.54 145.984 252.729 145.984 252.968C145.984 253.243 145.914 253.511 145.775 253.771C145.637 254.03 145.435 254.261 145.169 254.463C144.904 254.665 144.583 254.817 144.204 254.919C143.852 255.013 143.546 255.036 143.288 254.987C143.032 254.938 142.83 254.828 142.682 254.657C142.536 254.485 142.454 254.262 142.434 253.989L143.05 253.824C143.066 254.012 143.129 254.154 143.238 254.251C143.348 254.346 143.488 254.402 143.656 254.418C143.826 254.432 144.009 254.413 144.204 254.361C144.432 254.3 144.636 254.207 144.818 254.082C144.999 253.955 145.142 253.809 145.248 253.643C145.354 253.475 145.407 253.298 145.407 253.112C145.407 252.943 145.361 252.818 145.27 252.736C145.178 252.654 145.058 252.6 144.909 252.574C144.76 252.547 144.599 252.532 144.426 252.529L143.82 252.512C143.435 252.501 143.13 252.419 142.906 252.266C142.681 252.114 142.569 251.866 142.569 251.523C142.569 251.237 142.644 250.968 142.793 250.716C142.943 250.461 143.145 250.241 143.399 250.055C143.654 249.868 143.938 249.732 144.252 249.647C144.57 249.562 144.852 249.546 145.099 249.597C145.346 249.647 145.541 249.754 145.686 249.918C145.832 250.082 145.909 250.291 145.917 250.546L145.339 250.701ZM146.549 255.635V250.377L147.097 250.23V250.837L147.165 250.819C147.206 250.741 147.264 250.641 147.338 250.519C147.413 250.394 147.52 250.272 147.66 250.154C147.801 250.033 147.992 249.94 148.232 249.876C148.543 249.792 148.817 249.799 149.055 249.897C149.292 249.994 149.477 250.173 149.61 250.433C149.743 250.692 149.81 251.023 149.81 251.425C149.81 251.83 149.743 252.199 149.61 252.531C149.477 252.862 149.293 253.141 149.057 253.367C148.821 253.591 148.55 253.744 148.242 253.827C148.005 253.89 147.815 253.901 147.672 253.857C147.529 253.813 147.419 253.748 147.342 253.664C147.266 253.579 147.206 253.507 147.165 253.448L147.116 253.461V255.483L146.549 255.635ZM147.107 252.139C147.107 252.428 147.148 252.672 147.229 252.871C147.311 253.068 147.431 253.208 147.588 253.29C147.745 253.371 147.937 253.38 148.165 253.319C148.402 253.256 148.6 253.138 148.759 252.966C148.919 252.792 149.039 252.584 149.12 252.342C149.201 252.097 149.242 251.839 149.242 251.567C149.242 251.298 149.202 251.066 149.122 250.872C149.044 250.676 148.924 250.536 148.764 250.453C148.605 250.368 148.405 250.357 148.165 250.422C147.934 250.483 147.74 250.596 147.583 250.759C147.426 250.921 147.307 251.12 147.227 251.357C147.147 251.593 147.107 251.854 147.107 252.139ZM150.337 253.186V249.362L150.885 249.215V249.792L150.924 249.782C150.991 249.575 151.113 249.388 151.289 249.223C151.466 249.058 151.664 248.946 151.886 248.887C151.927 248.876 151.979 248.862 152.042 248.847C152.105 248.832 152.152 248.822 152.184 248.817V249.414C152.165 249.415 152.121 249.419 152.052 249.427C151.984 249.434 151.913 249.447 151.838 249.467C151.658 249.515 151.498 249.597 151.357 249.713C151.217 249.827 151.107 249.963 151.025 250.121C150.945 250.277 150.905 250.441 150.905 250.614V253.034L150.337 253.186ZM152.518 252.601V248.777L153.086 248.625V252.449L152.518 252.601ZM152.807 248.062C152.696 248.092 152.601 248.079 152.52 248.022C152.442 247.965 152.403 247.882 152.403 247.772C152.403 247.663 152.442 247.558 152.52 247.459C152.601 247.36 152.696 247.295 152.807 247.266C152.917 247.236 153.012 247.25 153.09 247.307C153.171 247.363 153.211 247.446 153.211 247.556C153.211 247.665 153.171 247.77 153.09 247.869C153.012 247.968 152.917 248.033 152.807 248.062ZM154.354 249.809V252.109L153.786 252.261V248.437L154.335 248.29V248.888L154.383 248.875C154.469 248.658 154.601 248.466 154.777 248.301C154.954 248.134 155.181 248.014 155.46 247.939C155.71 247.872 155.929 247.866 156.117 247.922C156.304 247.977 156.45 248.097 156.554 248.283C156.659 248.468 156.711 248.723 156.711 249.048V251.478L156.143 251.63V249.24C156.143 248.939 156.068 248.726 155.917 248.598C155.766 248.469 155.56 248.44 155.297 248.511C155.116 248.559 154.954 248.643 154.811 248.763C154.67 248.882 154.558 249.03 154.477 249.208C154.395 249.386 154.354 249.586 154.354 249.809ZM159.016 247.036V247.534L157.101 248.047V247.549L159.016 247.036ZM157.659 246.483L158.227 246.331V249.976C158.227 250.142 158.25 250.26 158.297 250.331C158.345 250.399 158.406 250.438 158.479 250.446C158.555 250.453 158.634 250.445 158.717 250.422C158.78 250.405 158.831 250.388 158.871 250.371C158.911 250.352 158.944 250.337 158.968 250.325L159.083 250.822C159.045 250.847 158.991 250.877 158.922 250.91C158.853 250.945 158.766 250.977 158.66 251.005C158.499 251.048 158.342 251.055 158.188 251.025C158.036 250.994 157.909 250.919 157.808 250.8C157.709 250.681 157.659 250.51 157.659 250.288V246.483ZM162.819 244.742V249.841L162.222 250.001V245.549L162.193 245.557L160.991 246.706V246.079L162.222 244.902L162.819 244.742Z" fill="#A3ADC8"/>
<path d="M182.586 240.721C182.557 240.476 182.44 240.311 182.235 240.227C182.029 240.143 181.778 240.14 181.479 240.22C181.261 240.279 181.071 240.366 180.907 240.483C180.745 240.6 180.619 240.734 180.527 240.886C180.437 241.038 180.393 241.195 180.393 241.358C180.393 241.494 180.424 241.603 180.486 241.684C180.55 241.763 180.632 241.822 180.732 241.86C180.831 241.896 180.935 241.92 181.044 241.933C181.153 241.943 181.253 241.949 181.345 241.949L181.845 241.955C181.973 241.955 182.116 241.965 182.273 241.984C182.432 242.003 182.583 242.046 182.728 242.114C182.873 242.18 182.994 242.282 183.088 242.421C183.183 242.56 183.23 242.749 183.23 242.988C183.23 243.263 183.16 243.531 183.021 243.791C182.883 244.05 182.681 244.281 182.415 244.483C182.15 244.685 181.829 244.837 181.451 244.938C181.098 245.033 180.793 245.056 180.534 245.007C180.278 244.958 180.076 244.848 179.928 244.677C179.782 244.505 179.7 244.282 179.681 244.009L180.296 243.844C180.312 244.032 180.375 244.174 180.484 244.271C180.595 244.366 180.734 244.422 180.902 244.438C181.072 244.452 181.255 244.433 181.451 244.381C181.678 244.32 181.883 244.227 182.064 244.102C182.245 243.975 182.389 243.829 182.494 243.663C182.6 243.495 182.653 243.318 182.653 243.132C182.653 242.963 182.607 242.838 182.516 242.756C182.425 242.674 182.304 242.62 182.155 242.594C182.006 242.567 181.845 242.552 181.672 242.549L181.066 242.532C180.681 242.521 180.376 242.439 180.152 242.286C179.928 242.134 179.815 241.886 179.815 241.542C179.815 241.257 179.89 240.988 180.039 240.736C180.19 240.481 180.392 240.261 180.645 240.075C180.9 239.888 181.184 239.752 181.499 239.667C181.816 239.582 182.098 239.566 182.345 239.617C182.592 239.667 182.788 239.774 182.932 239.938C183.078 240.101 183.155 240.311 183.163 240.566L182.586 240.721ZM183.795 245.655V240.396L184.344 240.25V240.857L184.411 240.839C184.453 240.761 184.51 240.661 184.584 240.539C184.659 240.414 184.767 240.292 184.906 240.173C185.047 240.053 185.238 239.96 185.479 239.896C185.79 239.812 186.064 239.819 186.301 239.917C186.538 240.014 186.724 240.193 186.857 240.452C186.99 240.712 187.056 241.043 187.056 241.445C187.056 241.85 186.99 242.219 186.857 242.551C186.724 242.882 186.539 243.161 186.303 243.387C186.068 243.611 185.796 243.764 185.488 243.847C185.251 243.91 185.061 243.92 184.918 243.877C184.776 243.833 184.666 243.768 184.589 243.684C184.512 243.599 184.453 243.527 184.411 243.468L184.363 243.481V245.503L183.795 245.655ZM184.353 242.159C184.353 242.448 184.394 242.692 184.476 242.89C184.558 243.088 184.677 243.227 184.834 243.31C184.991 243.391 185.184 243.4 185.411 243.339C185.649 243.276 185.847 243.158 186.005 242.986C186.166 242.812 186.286 242.604 186.366 242.362C186.448 242.117 186.489 241.859 186.489 241.587C186.489 241.318 186.449 241.086 186.368 240.892C186.29 240.696 186.17 240.556 186.01 240.473C185.851 240.387 185.652 240.377 185.411 240.441C185.18 240.503 184.986 240.616 184.829 240.779C184.672 240.941 184.554 241.14 184.473 241.377C184.393 241.613 184.353 241.874 184.353 242.159ZM187.583 243.206V239.381L188.132 239.234V239.812L188.17 239.802C188.237 239.595 188.359 239.408 188.536 239.243C188.712 239.078 188.911 238.966 189.132 238.907C189.174 238.896 189.226 238.882 189.288 238.867C189.351 238.852 189.398 238.842 189.43 238.837V239.434C189.411 239.434 189.367 239.439 189.298 239.447C189.231 239.454 189.159 239.467 189.084 239.487C188.904 239.535 188.744 239.617 188.603 239.733C188.463 239.847 188.353 239.983 188.271 240.141C188.191 240.297 188.151 240.461 188.151 240.634V243.053L187.583 243.206ZM189.764 242.621V238.797L190.332 238.645V242.469L189.764 242.621ZM190.053 238.082C189.942 238.112 189.847 238.099 189.767 238.042C189.688 237.985 189.649 237.902 189.649 237.792C189.649 237.683 189.688 237.578 189.767 237.479C189.847 237.38 189.942 237.315 190.053 237.286C190.164 237.256 190.258 237.27 190.337 237.327C190.417 237.383 190.457 237.466 190.457 237.576C190.457 237.685 190.417 237.79 190.337 237.889C190.258 237.988 190.164 238.053 190.053 238.082ZM191.6 239.829V242.129L191.033 242.281V238.457L191.581 238.31V238.908L191.629 238.895C191.716 238.677 191.847 238.486 192.024 238.321C192.2 238.154 192.428 238.034 192.707 237.959C192.957 237.892 193.176 237.886 193.363 237.942C193.551 237.997 193.697 238.117 193.801 238.303C193.905 238.488 193.957 238.742 193.957 239.068V241.498L193.39 241.65V239.26C193.39 238.959 193.314 238.745 193.164 238.618C193.013 238.489 192.806 238.46 192.543 238.53C192.362 238.579 192.2 238.663 192.057 238.783C191.916 238.902 191.805 239.05 191.723 239.228C191.641 239.406 191.6 239.606 191.6 239.829ZM196.262 237.056V237.554L194.348 238.067V237.569L196.262 237.056ZM194.906 236.503L195.473 236.351V239.996C195.473 240.162 195.496 240.28 195.543 240.351C195.591 240.419 195.652 240.458 195.726 240.466C195.801 240.472 195.88 240.464 195.964 240.442C196.026 240.425 196.078 240.408 196.118 240.391C196.158 240.372 196.19 240.357 196.214 240.345L196.329 240.842C196.291 240.867 196.237 240.897 196.168 240.93C196.099 240.965 196.012 240.997 195.906 241.025C195.746 241.068 195.589 241.075 195.435 241.044C195.282 241.014 195.156 240.939 195.055 240.82C194.955 240.701 194.906 240.53 194.906 240.307V236.503ZM198.334 240.325V239.877L199.959 237.599C200.15 237.332 200.307 237.102 200.431 236.91C200.554 236.716 200.645 236.54 200.705 236.383C200.766 236.224 200.796 236.067 200.796 235.911C200.796 235.732 200.754 235.587 200.671 235.479C200.589 235.369 200.477 235.298 200.334 235.265C200.192 235.232 200.031 235.239 199.853 235.287C199.664 235.338 199.499 235.423 199.358 235.542C199.219 235.659 199.11 235.8 199.033 235.965C198.958 236.129 198.92 236.309 198.92 236.503L198.353 236.655C198.353 236.356 198.419 236.076 198.552 235.815C198.685 235.553 198.867 235.329 199.096 235.141C199.327 234.953 199.586 234.821 199.873 234.744C200.161 234.667 200.417 234.661 200.64 234.728C200.863 234.794 201.037 234.917 201.164 235.098C201.291 235.278 201.354 235.499 201.354 235.761C201.354 235.949 201.321 236.141 201.255 236.338C201.191 236.533 201.079 236.761 200.919 237.023C200.76 237.283 200.54 237.608 200.257 237.997L199.151 239.518V239.558L201.441 238.945V239.492L198.334 240.325Z" fill="#A3ADC8"/>
<path d="M219.155 230.922C219.126 230.677 219.009 230.513 218.803 230.428C218.598 230.344 218.347 230.342 218.048 230.422C217.83 230.48 217.64 230.568 217.476 230.685C217.314 230.801 217.187 230.935 217.096 231.088C217.006 231.239 216.961 231.397 216.961 231.559C216.961 231.695 216.993 231.804 217.055 231.885C217.119 231.964 217.201 232.023 217.3 232.061C217.4 232.098 217.504 232.122 217.613 232.134C217.722 232.145 217.822 232.15 217.914 232.151L218.414 232.156C218.542 232.157 218.685 232.166 218.842 232.186C219.001 232.205 219.152 232.248 219.296 232.315C219.442 232.381 219.563 232.483 219.657 232.622C219.752 232.761 219.799 232.95 219.799 233.189C219.799 233.465 219.729 233.732 219.59 233.992C219.452 234.251 219.25 234.482 218.984 234.685C218.719 234.887 218.398 235.038 218.019 235.14C217.667 235.234 217.361 235.257 217.103 235.209C216.847 235.159 216.645 235.049 216.497 234.878C216.351 234.706 216.269 234.484 216.25 234.21L216.865 234.045C216.881 234.233 216.944 234.376 217.053 234.473C217.163 234.568 217.303 234.623 217.471 234.639C217.641 234.654 217.824 234.635 218.019 234.582C218.247 234.521 218.452 234.428 218.633 234.303C218.814 234.177 218.957 234.03 219.063 233.864C219.169 233.697 219.222 233.52 219.222 233.334C219.222 233.165 219.176 233.039 219.085 232.957C218.993 232.876 218.873 232.821 218.724 232.795C218.575 232.769 218.414 232.754 218.241 232.75L217.635 232.733C217.25 232.722 216.945 232.64 216.721 232.488C216.496 232.335 216.384 232.087 216.384 231.744C216.384 231.458 216.459 231.189 216.608 230.937C216.759 230.683 216.961 230.462 217.214 230.277C217.469 230.089 217.753 229.953 218.068 229.869C218.385 229.784 218.667 229.767 218.914 229.819C219.161 229.869 219.357 229.976 219.501 230.139C219.647 230.303 219.724 230.512 219.732 230.767L219.155 230.922ZM220.364 235.856V230.598L220.912 230.451V231.058L220.98 231.04C221.021 230.963 221.079 230.863 221.153 230.74C221.228 230.615 221.336 230.494 221.475 230.375C221.616 230.254 221.807 230.161 222.047 230.097C222.358 230.014 222.633 230.021 222.87 230.118C223.107 230.216 223.292 230.394 223.425 230.654C223.559 230.914 223.625 231.244 223.625 231.646C223.625 232.051 223.559 232.42 223.425 232.753C223.292 233.084 223.108 233.362 222.872 233.588C222.637 233.812 222.365 233.966 222.057 234.048C221.82 234.112 221.63 234.122 221.487 234.079C221.344 234.034 221.235 233.97 221.158 233.886C221.081 233.8 221.021 233.728 220.98 233.669L220.932 233.682V235.704L220.364 235.856ZM220.922 232.36C220.922 232.649 220.963 232.893 221.045 233.092C221.126 233.289 221.246 233.429 221.403 233.511C221.56 233.592 221.752 233.602 221.98 233.541C222.217 233.477 222.415 233.359 222.574 233.187C222.734 233.013 222.855 232.805 222.935 232.563C223.017 232.319 223.057 232.06 223.057 231.788C223.057 231.519 223.017 231.288 222.937 231.093C222.859 230.897 222.739 230.757 222.579 230.674C222.42 230.589 222.221 230.578 221.98 230.643C221.749 230.705 221.555 230.817 221.398 230.981C221.241 231.142 221.122 231.342 221.042 231.579C220.962 231.814 220.922 232.075 220.922 232.36ZM224.152 233.407V229.583L224.7 229.436V230.014L224.739 230.003C224.806 229.796 224.928 229.61 225.104 229.445C225.281 229.28 225.48 229.167 225.701 229.108C225.743 229.097 225.795 229.084 225.857 229.069C225.92 229.054 225.967 229.043 225.999 229.038V229.636C225.98 229.636 225.936 229.64 225.867 229.649C225.799 229.655 225.728 229.668 225.653 229.689C225.473 229.737 225.313 229.819 225.172 229.935C225.032 230.048 224.922 230.184 224.84 230.342C224.76 230.498 224.72 230.662 224.72 230.835V233.255L224.152 233.407ZM226.333 232.823V228.998L226.901 228.846V232.67L226.333 232.823ZM226.622 228.284C226.511 228.313 226.416 228.3 226.336 228.243C226.257 228.186 226.218 228.103 226.218 227.994C226.218 227.884 226.257 227.78 226.336 227.681C226.416 227.581 226.511 227.517 226.622 227.487C226.732 227.457 226.827 227.471 226.906 227.528C226.986 227.585 227.026 227.668 227.026 227.777C227.026 227.887 226.986 227.991 226.906 228.091C226.827 228.19 226.732 228.254 226.622 228.284ZM228.169 230.03V232.331L227.602 232.483V228.659L228.15 228.512V229.109L228.198 229.096C228.285 228.879 228.416 228.688 228.592 228.523C228.769 228.356 228.996 228.235 229.275 228.16C229.526 228.093 229.744 228.088 229.932 228.144C230.12 228.198 230.265 228.318 230.37 228.504C230.474 228.689 230.526 228.944 230.526 229.269V231.699L229.958 231.851V229.461C229.958 229.161 229.883 228.947 229.732 228.82C229.582 228.691 229.375 228.661 229.112 228.732C228.931 228.78 228.769 228.864 228.626 228.984C228.485 229.103 228.374 229.252 228.292 229.43C228.21 229.608 228.169 229.808 228.169 230.03ZM232.831 227.257V227.755L230.917 228.268V227.77L232.831 227.257ZM231.475 226.705L232.042 226.553V230.197C232.042 230.363 232.065 230.482 232.112 230.552C232.16 230.621 232.221 230.659 232.295 230.668C232.37 230.674 232.449 230.666 232.533 230.644C232.595 230.627 232.646 230.61 232.687 230.592C232.727 230.573 232.759 230.558 232.783 230.547L232.898 231.044C232.86 231.069 232.806 231.098 232.737 231.132C232.668 231.167 232.581 231.198 232.475 231.227C232.315 231.27 232.158 231.276 232.004 231.246C231.851 231.215 231.725 231.141 231.624 231.022C231.524 230.902 231.475 230.731 231.475 230.509V226.705ZM236.567 230.15C236.249 230.235 235.966 230.255 235.718 230.208C235.471 230.162 235.274 230.057 235.128 229.896C234.984 229.732 234.906 229.518 234.893 229.254L235.499 229.092C235.512 229.253 235.566 229.38 235.662 229.474C235.759 229.566 235.884 229.623 236.04 229.647C236.195 229.67 236.368 229.656 236.557 229.605C236.769 229.548 236.956 229.46 237.12 229.34C237.283 229.22 237.411 229.079 237.504 228.918C237.597 228.757 237.644 228.587 237.644 228.408C237.644 228.22 237.599 228.067 237.509 227.948C237.419 227.828 237.288 227.75 237.115 227.715C236.942 227.68 236.73 227.696 236.48 227.763L236.086 227.869V227.321L236.48 227.216C236.676 227.163 236.847 227.081 236.995 226.968C237.144 226.855 237.26 226.721 237.343 226.566C237.428 226.411 237.471 226.243 237.471 226.064C237.471 225.891 237.434 225.751 237.36 225.643C237.286 225.535 237.182 225.463 237.048 225.428C236.914 225.392 236.757 225.399 236.576 225.447C236.406 225.493 236.246 225.568 236.095 225.673C235.946 225.776 235.824 225.901 235.73 226.047C235.635 226.192 235.584 226.35 235.576 226.522L234.999 226.677C235.008 226.407 235.086 226.152 235.232 225.912C235.378 225.67 235.569 225.462 235.804 225.286C236.041 225.109 236.302 224.983 236.586 224.907C236.89 224.825 237.152 224.819 237.37 224.888C237.588 224.956 237.755 225.078 237.872 225.254C237.989 225.43 238.048 225.639 238.048 225.879C238.048 226.167 237.975 226.431 237.829 226.672C237.685 226.914 237.488 227.107 237.24 227.251V227.291C237.551 227.261 237.794 227.333 237.969 227.506C238.143 227.679 238.231 227.927 238.231 228.25C238.231 228.528 238.158 228.796 238.012 229.056C237.868 229.314 237.67 229.539 237.42 229.732C237.17 229.925 236.886 230.065 236.567 230.15Z" fill="#A3ADC8"/>
<path d="M256.273 221.103C256.251 220.892 256.156 220.748 255.989 220.671C255.824 220.594 255.609 220.591 255.345 220.662C255.159 220.712 254.999 220.784 254.866 220.877C254.733 220.971 254.631 221.077 254.561 221.196C254.49 221.314 254.454 221.438 254.453 221.566C254.453 221.672 254.476 221.758 254.522 221.824C254.571 221.889 254.636 221.938 254.717 221.97C254.799 222.002 254.89 222.022 254.989 222.032C255.088 222.042 255.189 222.046 255.29 222.044L255.751 222.039C255.937 222.034 256.116 222.047 256.288 222.078C256.461 222.107 256.615 222.162 256.752 222.242C256.89 222.321 256.999 222.432 257.079 222.575C257.159 222.718 257.199 222.9 257.199 223.12C257.199 223.419 257.125 223.702 256.978 223.969C256.83 224.234 256.617 224.468 256.338 224.671C256.061 224.871 255.725 225.024 255.331 225.13C254.947 225.233 254.615 225.26 254.332 225.213C254.052 225.165 253.832 225.045 253.674 224.852C253.516 224.658 253.431 224.394 253.419 224.059L254.296 223.824C254.309 223.998 254.362 224.131 254.455 224.224C254.548 224.317 254.669 224.373 254.818 224.391C254.969 224.408 255.137 224.392 255.323 224.343C255.517 224.291 255.687 224.215 255.833 224.116C255.981 224.015 256.096 223.9 256.179 223.77C256.263 223.638 256.305 223.499 256.307 223.352C256.305 223.22 256.268 223.12 256.194 223.054C256.12 222.985 256.017 222.94 255.884 222.918C255.752 222.893 255.598 222.881 255.422 222.882L254.862 222.883C254.456 222.884 254.135 222.806 253.9 222.65C253.666 222.492 253.549 222.231 253.549 221.865C253.549 221.565 253.627 221.281 253.784 221.013C253.943 220.745 254.159 220.512 254.431 220.314C254.704 220.115 255.012 219.969 255.357 219.877C255.706 219.783 256.013 219.764 256.276 219.82C256.54 219.874 256.748 219.992 256.898 220.174C257.049 220.354 257.127 220.587 257.132 220.873L256.273 221.103ZM257.617 225.874V220.616L258.474 220.386V221.019L258.524 221.005C258.569 220.9 258.632 220.785 258.714 220.658C258.796 220.53 258.906 220.41 259.046 220.298C259.185 220.184 259.363 220.098 259.58 220.04C259.865 219.964 260.122 219.97 260.352 220.06C260.583 220.147 260.765 220.32 260.9 220.578C261.036 220.833 261.104 221.174 261.104 221.599C261.104 222.018 261.038 222.393 260.905 222.723C260.772 223.052 260.591 223.325 260.361 223.54C260.132 223.756 259.872 223.903 259.582 223.981C259.371 224.037 259.195 224.048 259.055 224.012C258.916 223.977 258.804 223.919 258.719 223.839C258.635 223.756 258.571 223.675 258.524 223.595L258.488 223.604V225.641L257.617 225.874ZM258.471 222.299C258.471 222.546 258.505 222.754 258.572 222.922C258.641 223.089 258.74 223.208 258.868 223.278C258.998 223.346 259.155 223.356 259.339 223.306C259.532 223.255 259.693 223.159 259.823 223.017C259.952 222.875 260.05 222.702 260.116 222.498C260.183 222.293 260.217 222.07 260.217 221.831C260.217 221.594 260.184 221.392 260.118 221.225C260.053 221.059 259.955 220.941 259.825 220.871C259.695 220.801 259.533 220.792 259.339 220.844C259.153 220.894 258.995 220.987 258.865 221.123C258.736 221.259 258.637 221.427 258.57 221.628C258.504 221.828 258.471 222.052 258.471 222.299ZM261.511 223.397V219.572L262.355 219.346V219.984L262.394 219.973C262.461 219.735 262.577 219.533 262.74 219.37C262.905 219.205 263.094 219.094 263.305 219.037C263.353 219.024 263.407 219.012 263.466 219.001C263.527 218.988 263.578 218.981 263.618 218.978V219.807C263.581 219.804 263.523 219.808 263.442 219.819C263.364 219.829 263.288 219.843 263.214 219.863C263.055 219.906 262.913 219.98 262.786 220.085C262.661 220.188 262.562 220.312 262.49 220.455C262.418 220.599 262.382 220.752 262.382 220.915V223.163L261.511 223.397ZM263.858 222.768V218.944L264.728 218.71V222.535L263.858 222.768ZM264.295 218.284C264.157 218.321 264.039 218.305 263.939 218.237C263.84 218.168 263.79 218.065 263.79 217.931C263.79 217.795 263.84 217.666 263.939 217.545C264.039 217.422 264.157 217.342 264.295 217.305C264.435 217.268 264.553 217.284 264.651 217.354C264.751 217.422 264.8 217.524 264.8 217.66C264.8 217.795 264.751 217.924 264.651 218.046C264.553 218.167 264.435 218.246 264.295 218.284ZM266.155 219.911V222.152L265.285 222.385V218.561L266.117 218.338V218.988L266.16 218.977C266.245 218.74 266.381 218.533 266.567 218.357C266.754 218.181 266.986 218.056 267.262 217.982C267.517 217.914 267.739 217.91 267.928 217.973C268.119 218.034 268.266 218.158 268.37 218.345C268.476 218.53 268.528 218.776 268.527 219.082V221.517L267.656 221.75V219.455C267.656 219.199 267.592 219.016 267.464 218.906C267.337 218.796 267.161 218.771 266.937 218.831C266.785 218.871 266.649 218.943 266.531 219.044C266.414 219.144 266.321 219.267 266.254 219.415C266.188 219.562 266.155 219.727 266.155 219.911ZM270.917 217.052V217.749L268.794 218.318V217.621L270.917 217.052ZM269.318 216.564L270.189 216.331V219.921C270.189 220.042 270.206 220.131 270.242 220.186C270.279 220.239 270.327 220.269 270.386 220.277C270.445 220.284 270.511 220.278 270.583 220.259C270.638 220.244 270.687 220.227 270.732 220.206C270.779 220.186 270.814 220.169 270.838 220.156L270.985 220.821C270.938 220.85 270.872 220.886 270.785 220.929C270.7 220.972 270.596 221.011 270.473 221.048C270.255 221.113 270.058 221.131 269.883 221.103C269.709 221.074 269.57 220.993 269.467 220.861C269.366 220.729 269.317 220.543 269.318 220.304V216.564ZM272.549 219.493V218.758L274.639 214.78L275.231 214.622V215.667L274.87 215.764L273.463 218.449V218.489L276.38 217.707V218.466L272.549 219.493ZM274.899 219.809V218.639L274.909 218.308V214.708L275.75 214.482V219.581L274.899 219.809Z" fill="#2D2D2D"/>
<path d="M295.001 210.599C294.972 210.354 294.855 210.19 294.65 210.105C294.445 210.021 294.193 210.019 293.895 210.099C293.677 210.157 293.486 210.245 293.323 210.361C293.161 210.478 293.034 210.612 292.943 210.765C292.853 210.916 292.808 211.074 292.808 211.236C292.808 211.372 292.839 211.481 292.902 211.562C292.966 211.641 293.048 211.7 293.147 211.738C293.247 211.774 293.351 211.799 293.46 211.811C293.569 211.822 293.669 211.827 293.76 211.828L294.261 211.833C294.389 211.834 294.531 211.843 294.689 211.863C294.847 211.882 294.999 211.925 295.143 211.992C295.289 212.058 295.409 212.16 295.504 212.299C295.598 212.438 295.646 212.627 295.646 212.866C295.646 213.142 295.576 213.409 295.437 213.669C295.299 213.928 295.097 214.159 294.83 214.362C294.566 214.564 294.245 214.715 293.866 214.817C293.513 214.911 293.208 214.934 292.95 214.886C292.693 214.836 292.491 214.726 292.344 214.555C292.198 214.383 292.115 214.161 292.096 213.887L292.712 213.722C292.728 213.91 292.79 214.053 292.899 214.15C293.01 214.244 293.15 214.3 293.318 214.316C293.488 214.331 293.671 214.311 293.866 214.259C294.094 214.198 294.298 214.105 294.479 213.98C294.661 213.854 294.804 213.707 294.91 213.541C295.016 213.373 295.069 213.197 295.069 213.011C295.069 212.841 295.023 212.716 294.932 212.634C294.84 212.552 294.72 212.498 294.571 212.472C294.422 212.445 294.261 212.431 294.087 212.427L293.481 212.41C293.097 212.399 292.792 212.317 292.568 212.165C292.343 212.012 292.231 211.764 292.231 211.421C292.231 211.135 292.305 210.866 292.455 210.614C292.605 210.36 292.807 210.139 293.061 209.954C293.315 209.766 293.6 209.63 293.914 209.546C294.232 209.461 294.514 209.444 294.761 209.496C295.008 209.546 295.203 209.653 295.348 209.816C295.493 209.98 295.57 210.189 295.578 210.444L295.001 210.599ZM296.211 215.533V210.275L296.759 210.128V210.735L296.826 210.717C296.868 210.64 296.926 210.54 297 210.417C297.075 210.292 297.182 210.17 297.322 210.052C297.463 209.931 297.654 209.838 297.894 209.774C298.205 209.691 298.479 209.698 298.717 209.795C298.954 209.892 299.139 210.071 299.272 210.331C299.405 210.591 299.472 210.921 299.472 211.323C299.472 211.728 299.405 212.097 299.272 212.43C299.139 212.761 298.955 213.039 298.719 213.265C298.483 213.489 298.212 213.642 297.904 213.725C297.666 213.789 297.477 213.799 297.334 213.756C297.191 213.711 297.081 213.647 297.004 213.563C296.927 213.477 296.868 213.405 296.826 213.346L296.778 213.359V215.381L296.211 215.533ZM296.769 212.037C296.769 212.326 296.81 212.57 296.891 212.769C296.973 212.966 297.093 213.106 297.25 213.188C297.407 213.269 297.599 213.279 297.827 213.218C298.064 213.154 298.262 213.036 298.421 212.864C298.581 212.69 298.701 212.482 298.782 212.24C298.863 211.996 298.904 211.737 298.904 211.465C298.904 211.196 298.864 210.965 298.784 210.77C298.705 210.574 298.586 210.434 298.426 210.351C298.267 210.266 298.067 210.255 297.827 210.32C297.596 210.382 297.402 210.494 297.245 210.657C297.088 210.819 296.969 211.018 296.889 211.256C296.809 211.491 296.769 211.752 296.769 212.037ZM299.999 213.084V209.26L300.547 209.113V209.69L300.586 209.68C300.653 209.473 300.775 209.287 300.951 209.122C301.128 208.957 301.326 208.844 301.548 208.785C301.589 208.774 301.641 208.761 301.704 208.746C301.766 208.731 301.814 208.72 301.846 208.715V209.313C301.827 209.313 301.782 209.317 301.714 209.326C301.646 209.332 301.575 209.345 301.499 209.366C301.32 209.414 301.16 209.496 301.019 209.611C300.879 209.725 300.768 209.861 300.687 210.019C300.606 210.175 300.566 210.339 300.566 210.512V212.932L299.999 213.084ZM302.18 212.499V208.675L302.747 208.523V212.347L302.18 212.499ZM302.469 207.961C302.358 207.99 302.262 207.977 302.182 207.92C302.104 207.863 302.064 207.78 302.064 207.671C302.064 207.561 302.104 207.457 302.182 207.358C302.262 207.258 302.358 207.194 302.469 207.164C302.579 207.134 302.674 207.148 302.752 207.205C302.832 207.261 302.873 207.345 302.873 207.454C302.873 207.564 302.832 207.668 302.752 207.768C302.674 207.867 302.579 207.931 302.469 207.961ZM304.016 209.707V212.008L303.448 212.16V208.335L303.997 208.189V208.786L304.045 208.773C304.131 208.556 304.263 208.365 304.439 208.199C304.616 208.033 304.843 207.912 305.122 207.837C305.372 207.77 305.591 207.765 305.779 207.821C305.966 207.875 306.112 207.995 306.216 208.181C306.321 208.366 306.373 208.621 306.373 208.946V211.376L305.805 211.528V209.138C305.805 208.838 305.73 208.624 305.579 208.497C305.428 208.368 305.222 208.338 304.959 208.409C304.777 208.457 304.616 208.541 304.473 208.661C304.332 208.78 304.22 208.929 304.139 209.107C304.057 209.284 304.016 209.485 304.016 209.707ZM308.678 206.934V207.432L306.763 207.945V207.447L308.678 206.934ZM307.321 206.382L307.889 206.229V209.874C307.889 210.04 307.912 210.159 307.959 210.229C308.007 210.298 308.068 210.336 308.141 210.344C308.217 210.351 308.296 210.343 308.379 210.32C308.442 210.304 308.493 210.287 308.533 210.269C308.573 210.25 308.605 210.235 308.629 210.224L308.745 210.72C308.706 210.746 308.653 210.775 308.584 210.808C308.515 210.844 308.427 210.875 308.322 210.904C308.161 210.947 308.004 210.953 307.85 210.923C307.698 210.892 307.571 210.818 307.47 210.699C307.371 210.579 307.321 210.408 307.321 210.186V206.382ZM312.288 209.861C312.006 209.936 311.752 209.946 311.526 209.891C311.3 209.835 311.119 209.724 310.982 209.558C310.846 209.392 310.772 209.182 310.759 208.926L311.336 208.771C311.358 208.996 311.459 209.16 311.639 209.263C311.82 209.364 312.036 209.38 312.288 209.313C312.49 209.259 312.67 209.162 312.827 209.022C312.986 208.881 313.11 208.714 313.2 208.519C313.291 208.321 313.337 208.114 313.337 207.897C313.337 207.674 313.289 207.489 313.195 207.34C313.102 207.189 312.974 207.084 312.81 207.027C312.646 206.97 312.46 206.968 312.25 207.023C312.099 207.062 311.944 207.127 311.786 207.219C311.627 207.31 311.496 207.407 311.394 207.511L310.836 207.591L311.134 205.001L313.693 204.316V204.864L311.634 205.415L311.461 206.965L311.49 206.958C311.591 206.848 311.717 206.745 311.87 206.649C312.022 206.554 312.181 206.484 312.346 206.439C312.647 206.359 312.916 206.361 313.152 206.448C313.389 206.532 313.575 206.684 313.709 206.906C313.846 207.126 313.914 207.402 313.914 207.732C313.914 208.057 313.843 208.367 313.702 208.66C313.563 208.952 313.37 209.204 313.125 209.417C312.88 209.629 312.601 209.777 312.288 209.861Z" fill="#A3ADC8"/>
<circle cx="7.20279" cy="7.20279" r="6.9777" transform="matrix(0.965926 -0.258819 0 1 293.924 106.208)" fill="#FD824C" stroke="#FEFEFE" stroke-width="0.450174"/>
<mask id="path-26-inside-1_8117_13323" fill="white">
<path d="M297.75 115.987C297.558 116.038 297.4 115.919 297.42 115.716C297.454 115.357 297.537 114.992 297.667 114.631C297.842 114.147 298.098 113.681 298.421 113.26C298.744 112.839 299.128 112.471 299.55 112.177C299.972 111.883 300.424 111.669 300.881 111.547C301.338 111.424 301.79 111.396 302.212 111.464C302.634 111.532 303.018 111.694 303.341 111.942C303.664 112.19 303.92 112.518 304.095 112.909C304.225 113.199 304.308 113.52 304.342 113.861C304.361 114.054 304.204 114.258 304.012 114.309C303.82 114.36 303.666 114.24 303.642 114.049C303.611 113.802 303.547 113.569 303.452 113.356C303.312 113.044 303.107 112.782 302.849 112.583C302.59 112.385 302.284 112.255 301.946 112.201C301.608 112.146 301.246 112.169 300.881 112.267C300.515 112.365 300.154 112.536 299.816 112.771C299.478 113.007 299.172 113.301 298.913 113.638C298.655 113.975 298.45 114.347 298.31 114.734C298.214 114.998 298.151 115.265 298.12 115.529C298.096 115.732 297.942 115.935 297.75 115.987Z"/>
</mask>
<path d="M297.75 115.987C297.558 116.038 297.4 115.919 297.42 115.716C297.454 115.357 297.537 114.992 297.667 114.631C297.842 114.147 298.098 113.681 298.421 113.26C298.744 112.839 299.128 112.471 299.55 112.177C299.972 111.883 300.424 111.669 300.881 111.547C301.338 111.424 301.79 111.396 302.212 111.464C302.634 111.532 303.018 111.694 303.341 111.942C303.664 112.19 303.92 112.518 304.095 112.909C304.225 113.199 304.308 113.52 304.342 113.861C304.361 114.054 304.204 114.258 304.012 114.309C303.82 114.36 303.666 114.24 303.642 114.049C303.611 113.802 303.547 113.569 303.452 113.356C303.312 113.044 303.107 112.782 302.849 112.583C302.59 112.385 302.284 112.255 301.946 112.201C301.608 112.146 301.246 112.169 300.881 112.267C300.515 112.365 300.154 112.536 299.816 112.771C299.478 113.007 299.172 113.301 298.913 113.638C298.655 113.975 298.45 114.347 298.31 114.734C298.214 114.998 298.151 115.265 298.12 115.529C298.096 115.732 297.942 115.935 297.75 115.987Z" fill="#523102" stroke="#523102" stroke-width="0.450174" mask="url(#path-26-inside-1_8117_13323)"/>
<path d="M297.054 110.771V111.852" stroke="#523102" stroke-width="0.900349" stroke-linecap="round"/>
<path d="M304.708 108.72V109.801" stroke="#523102" stroke-width="0.900349" stroke-linecap="round"/>
<circle cx="7.20279" cy="7.20279" r="6.9777" transform="matrix(0.965926 -0.258819 0 1 145.21 180.269)" fill="#47C28B" stroke="#FEFEFE" stroke-width="0.450174"/>
<mask id="path-30-inside-2_8117_13323" fill="white">
<path d="M155.298 185.219C155.49 185.167 155.648 185.287 155.629 185.49C155.595 185.848 155.512 186.214 155.381 186.575C155.206 187.058 154.95 187.524 154.627 187.945C154.304 188.366 153.921 188.734 153.499 189.028C153.077 189.322 152.624 189.537 152.167 189.659C151.711 189.781 151.258 189.809 150.836 189.742C150.414 189.674 150.031 189.511 149.708 189.263C149.385 189.015 149.128 188.687 148.954 188.297C148.823 188.006 148.74 187.685 148.706 187.345C148.687 187.152 148.844 186.948 149.037 186.897C149.229 186.845 149.382 186.966 149.406 187.157C149.437 187.403 149.501 187.636 149.596 187.849C149.736 188.161 149.941 188.424 150.2 188.622C150.458 188.82 150.765 188.95 151.102 189.005C151.44 189.059 151.802 189.037 152.167 188.939C152.533 188.841 152.895 188.669 153.232 188.434C153.57 188.199 153.877 187.904 154.135 187.568C154.394 187.231 154.599 186.858 154.739 186.471C154.834 186.207 154.898 185.94 154.929 185.677C154.953 185.473 155.106 185.27 155.298 185.219Z"/>
</mask>
<path d="M155.298 185.219C155.49 185.167 155.648 185.287 155.629 185.49C155.595 185.848 155.512 186.214 155.381 186.575C155.206 187.058 154.95 187.524 154.627 187.945C154.304 188.366 153.921 188.734 153.499 189.028C153.077 189.322 152.624 189.537 152.167 189.659C151.711 189.781 151.258 189.809 150.836 189.742C150.414 189.674 150.031 189.511 149.708 189.263C149.385 189.015 149.128 188.687 148.954 188.297C148.823 188.006 148.74 187.685 148.706 187.345C148.687 187.152 148.844 186.948 149.037 186.897C149.229 186.845 149.382 186.966 149.406 187.157C149.437 187.403 149.501 187.636 149.596 187.849C149.736 188.161 149.941 188.424 150.2 188.622C150.458 188.82 150.765 188.95 151.102 189.005C151.44 189.059 151.802 189.037 152.167 188.939C152.533 188.841 152.895 188.669 153.232 188.434C153.57 188.199 153.877 187.904 154.135 187.568C154.394 187.231 154.599 186.858 154.739 186.471C154.834 186.207 154.898 185.94 154.929 185.677C154.953 185.473 155.106 185.27 155.298 185.219Z" fill="#065202" stroke="#065202" stroke-width="0.450174" mask="url(#path-30-inside-2_8117_13323)"/>
<path d="M148.341 184.832V185.912" stroke="#065202" stroke-width="0.900349" stroke-linecap="round"/>
<path d="M155.994 182.781V183.862" stroke="#065202" stroke-width="0.900349" stroke-linecap="round"/>
<circle cx="7.20279" cy="7.20279" r="6.9777" transform="matrix(0.965926 -0.258819 0 1 219.132 159.561)" fill="#47C28B" stroke="#FEFEFE" stroke-width="0.450174"/>
<mask id="path-34-inside-3_8117_13323" fill="white">
<path d="M229.22 164.511C229.412 164.46 229.57 164.579 229.551 164.782C229.517 165.141 229.434 165.506 229.303 165.867C229.128 166.351 228.872 166.816 228.549 167.237C228.226 167.658 227.843 168.026 227.421 168.321C226.998 168.615 226.546 168.829 226.089 168.951C225.632 169.074 225.18 169.102 224.758 169.034C224.336 168.966 223.953 168.804 223.629 168.556C223.306 168.308 223.05 167.979 222.875 167.589C222.745 167.298 222.662 166.977 222.628 166.637C222.609 166.444 222.766 166.24 222.958 166.189C223.151 166.137 223.304 166.258 223.328 166.449C223.359 166.696 223.423 166.929 223.518 167.141C223.658 167.454 223.863 167.716 224.121 167.915C224.38 168.113 224.687 168.243 225.024 168.297C225.362 168.351 225.724 168.329 226.089 168.231C226.455 168.133 226.817 167.962 227.154 167.726C227.492 167.491 227.799 167.197 228.057 166.86C228.316 166.523 228.521 166.151 228.66 165.764C228.756 165.5 228.82 165.233 228.851 164.969C228.874 164.766 229.028 164.563 229.22 164.511Z"/>
</mask>
<path d="M229.22 164.511C229.412 164.46 229.57 164.579 229.551 164.782C229.517 165.141 229.434 165.506 229.303 165.867C229.128 166.351 228.872 166.816 228.549 167.237C228.226 167.658 227.843 168.026 227.421 168.321C226.998 168.615 226.546 168.829 226.089 168.951C225.632 169.074 225.18 169.102 224.758 169.034C224.336 168.966 223.953 168.804 223.629 168.556C223.306 168.308 223.05 167.979 222.875 167.589C222.745 167.298 222.662 166.977 222.628 166.637C222.609 166.444 222.766 166.24 222.958 166.189C223.151 166.137 223.304 166.258 223.328 166.449C223.359 166.696 223.423 166.929 223.518 167.141C223.658 167.454 223.863 167.716 224.121 167.915C224.38 168.113 224.687 168.243 225.024 168.297C225.362 168.351 225.724 168.329 226.089 168.231C226.455 168.133 226.817 167.962 227.154 167.726C227.492 167.491 227.799 167.197 228.057 166.86C228.316 166.523 228.521 166.151 228.66 165.764C228.756 165.5 228.82 165.233 228.851 164.969C228.874 164.766 229.028 164.563 229.22 164.511Z" fill="#065202" stroke="#065202" stroke-width="0.450174" mask="url(#path-34-inside-3_8117_13323)"/>
<path d="M222.262 164.124V165.205" stroke="#065202" stroke-width="0.900349" stroke-linecap="round"/>
<path d="M229.916 162.074V163.154" stroke="#065202" stroke-width="0.900349" stroke-linecap="round"/>
<circle cx="7.20279" cy="7.20279" r="6.9777" transform="matrix(0.965926 -0.258819 0 1 182.606 154.943)" fill="#FEC84B" stroke="#FEFEFE" stroke-width="0.450174"/>
<path d="M186.519 162.447L192.607 160.816" stroke="#523902" stroke-width="0.900349" stroke-linecap="round"/>
<path d="M185.737 159.506V160.586" stroke="#523902" stroke-width="0.900349" stroke-linecap="round"/>
<path d="M193.39 157.455V158.536" stroke="#523902" stroke-width="0.900349" stroke-linecap="round"/>
<circle cx="7.20279" cy="7.20279" r="6.9777" transform="matrix(0.965926 -0.258819 0 1 255.658 105.657)" fill="#F95555" stroke="#FEFEFE" stroke-width="0.450174"/>
<mask id="path-42-inside-4_8117_13323" fill="white">
<path d="M259.485 115.436C259.293 115.487 259.135 115.368 259.154 115.165C259.188 114.806 259.271 114.441 259.402 114.08C259.576 113.596 259.833 113.13 260.156 112.709C260.479 112.289 260.862 111.92 261.284 111.626C261.706 111.332 262.159 111.118 262.616 110.996C263.072 110.873 263.525 110.845 263.947 110.913C264.369 110.981 264.752 111.143 265.075 111.391C265.398 111.639 265.655 111.968 265.829 112.358C265.96 112.648 266.043 112.969 266.077 113.31C266.096 113.503 265.938 113.707 265.746 113.758C265.554 113.81 265.401 113.689 265.377 113.498C265.346 113.251 265.282 113.018 265.187 112.805C265.047 112.493 264.842 112.231 264.583 112.032C264.325 111.834 264.018 111.704 263.681 111.65C263.343 111.595 262.981 111.618 262.616 111.716C262.25 111.814 261.888 111.985 261.551 112.221C261.213 112.456 260.906 112.75 260.648 113.087C260.389 113.424 260.184 113.796 260.044 114.183C259.949 114.447 259.885 114.714 259.854 114.978C259.83 115.181 259.677 115.384 259.485 115.436Z"/>
</mask>
<path d="M259.485 115.436C259.293 115.487 259.135 115.368 259.154 115.165C259.188 114.806 259.271 114.441 259.402 114.08C259.576 113.596 259.833 113.13 260.156 112.709C260.479 112.289 260.862 111.92 261.284 111.626C261.706 111.332 262.159 111.118 262.616 110.996C263.072 110.873 263.525 110.845 263.947 110.913C264.369 110.981 264.752 111.143 265.075 111.391C265.398 111.639 265.655 111.968 265.829 112.358C265.96 112.648 266.043 112.969 266.077 113.31C266.096 113.503 265.938 113.707 265.746 113.758C265.554 113.81 265.401 113.689 265.377 113.498C265.346 113.251 265.282 113.018 265.187 112.805C265.047 112.493 264.842 112.231 264.583 112.032C264.325 111.834 264.018 111.704 263.681 111.65C263.343 111.595 262.981 111.618 262.616 111.716C262.25 111.814 261.888 111.985 261.551 112.221C261.213 112.456 260.906 112.75 260.648 113.087C260.389 113.424 260.184 113.796 260.044 114.183C259.949 114.447 259.885 114.714 259.854 114.978C259.83 115.181 259.677 115.384 259.485 115.436Z" fill="#520204" stroke="#520204" stroke-width="0.450174" mask="url(#path-42-inside-4_8117_13323)"/>
<path d="M259.344 110.914L258.606 110.348" stroke="#520204" stroke-width="0.900349" stroke-linecap="round"/>
<path d="M266.293 109.233L266.973 108.231" stroke="#520204" stroke-width="0.900349" stroke-linecap="round"/>
</g>
<defs>
<filter id="filter0_dddd_8117_13323" x="-129.239" y="0.137579" width="491.958" height="508.924" filterUnits="userSpaceOnUse" color-interpolation-filters="sRGB">
<feFlood flood-opacity="0" result="BackgroundImageFix"/>
<feColorMatrix in="SourceAlpha" type="matrix" values="0 0 0 0 0 0 0 0 0 0 0 0 0 0 0 0 0 0 127 0" result="hardAlpha"/>
<feOffset dx="-8.87643" dy="8.87643"/>
<feGaussianBlur stdDeviation="13.8694"/>
<feColorMatrix type="matrix" values="0 0 0 0 0.760784 0 0 0 0 0.831373 0 0 0 0 1 0 0 0 0.1 0"/>
<feBlend mode="normal" in2="BackgroundImageFix" result="effect1_dropShadow_8117_13323"/>
<feColorMatrix in="SourceAlpha" type="matrix" values="0 0 0 0 0 0 0 0 0 0 0 0 0 0 0 0 0 0 127 0" result="hardAlpha"/>
<feOffset dx="-35.5057" dy="35.5057"/>
<feGaussianBlur stdDeviation="25.5197"/>
<feColorMatrix type="matrix" values="0 0 0 0 0.760784 0 0 0 0 0.831373 0 0 0 0 1 0 0 0 0.09 0"/>
<feBlend mode="normal" in2="effect1_dropShadow_8117_13323" result="effect2_dropShadow_8117_13323"/>
<feColorMatrix in="SourceAlpha" type="matrix" values="0 0 0 0 0 0 0 0 0 0 0 0 0 0 0 0 0 0 127 0" result="hardAlpha"/>
<feOffset dx="-80.9975" dy="80.9975"/>
<feGaussianBlur stdDeviation="34.3962"/>
<feColorMatrix type="matrix" values="0 0 0 0 0.760784 0 0 0 0 0.831373 0 0 0 0 1 0 0 0 0.05 0"/>
<feBlend mode="normal" in2="effect2_dropShadow_8117_13323" result="effect3_dropShadow_8117_13323"/>
<feColorMatrix in="SourceAlpha" type="matrix" values="0 0 0 0 0 0 0 0 0 0 0 0 0 0 0 0 0 0 127 0" result="hardAlpha"/>
<feOffset dx="-144.242" dy="144.242"/>
<feGaussianBlur stdDeviation="40.4987"/>
<feColorMatrix type="matrix" values="0 0 0 0 0.760784 0 0 0 0 0.831373 0 0 0 0 1 0 0 0 0.01 0"/>
<feBlend mode="normal" in2="effect3_dropShadow_8117_13323" result="effect4_dropShadow_8117_13323"/>
<feBlend mode="normal" in="SourceGraphic" in2="effect4_dropShadow_8117_13323" result="shape"/>
</filter>
<filter id="filter1_dddd_8117_13323" x="249.497" y="121.516" width="27.5439" height="112.264" filterUnits="userSpaceOnUse" color-interpolation-filters="sRGB">
<feFlood flood-opacity="0" result="BackgroundImageFix"/>
<feColorMatrix in="SourceAlpha" type="matrix" values="0 0 0 0 0 0 0 0 0 0 0 0 0 0 0 0 0 0 127 0" result="hardAlpha"/>
<feOffset dy="1"/>
<feGaussianBlur stdDeviation="1"/>
<feColorMatrix type="matrix" values="0 0 0 0 0.521569 0 0 0 0 0.6 0 0 0 0 1 0 0 0 0.1 0"/>
<feBlend mode="normal" in2="BackgroundImageFix" result="effect1_dropShadow_8117_13323"/>
<feColorMatrix in="SourceAlpha" type="matrix" values="0 0 0 0 0 0 0 0 0 0 0 0 0 0 0 0 0 0 127 0" result="hardAlpha"/>
<feOffset dy="4"/>
<feGaussianBlur stdDeviation="2"/>
<feColorMatrix type="matrix" values="0 0 0 0 0.521569 0 0 0 0 0.6 0 0 0 0 1 0 0 0 0.09 0"/>
<feBlend mode="normal" in2="effect1_dropShadow_8117_13323" result="effect2_dropShadow_8117_13323"/>
<feColorMatrix in="SourceAlpha" type="matrix" values="0 0 0 0 0 0 0 0 0 0 0 0 0 0 0 0 0 0 127 0" result="hardAlpha"/>
<feOffset dy="10"/>
<feGaussianBlur stdDeviation="3"/>
<feColorMatrix type="matrix" values="0 0 0 0 0.521569 0 0 0 0 0.6 0 0 0 0 1 0 0 0 0.05 0"/>
<feBlend mode="normal" in2="effect2_dropShadow_8117_13323" result="effect3_dropShadow_8117_13323"/>
<feColorMatrix in="SourceAlpha" type="matrix" values="0 0 0 0 0 0 0 0 0 0 0 0 0 0 0 0 0 0 127 0" result="hardAlpha"/>
<feOffset dy="17"/>
<feGaussianBlur stdDeviation="3.5"/>
<feColorMatrix type="matrix" values="0 0 0 0 0.521569 0 0 0 0 0.6 0 0 0 0 1 0 0 0 0.01 0"/>
<feBlend mode="normal" in2="effect3_dropShadow_8117_13323" result="effect4_dropShadow_8117_13323"/>
<feBlend mode="normal" in="SourceGraphic" in2="effect4_dropShadow_8117_13323" result="shape"/>
</filter>
</defs>
</svg>
