<svg width="330" height="512" viewBox="0 0 330 512" fill="none" xmlns="http://www.w3.org/2000/svg">
<g filter="url(#filter0_dddd_8117_16676)">
<path d="M54 92.6438C54 89.4612 56.4921 86.2135 59.5662 85.3898L305.502 19.4915C308.576 18.6678 311.068 20.58 311.068 23.7626V218.021C311.068 221.203 308.576 224.451 305.502 225.275L59.5662 291.173C56.4921 291.997 54 290.084 54 286.902V92.6438Z" fill="#FEFEFE"/>
<path d="M67.4484 103.004L65.4301 96.1407L66.8234 95.7673L68.1119 100.863L68.1782 100.845L69.554 95.0357L70.8216 94.696L72.2009 99.7708L72.2638 99.7539L73.5523 93.9643L74.9455 93.591L72.9272 101.536L71.6492 101.878L70.2175 97.0667L70.1616 97.0817L68.7265 102.661L67.4484 103.004ZM77.5802 100.397C77.0564 100.538 76.6024 100.54 76.2183 100.404C75.8342 100.269 75.5363 100.015 75.3244 99.6424C75.1149 99.2695 75.0101 98.7963 75.0101 98.2227C75.0101 97.6491 75.1149 97.1185 75.3244 96.631C75.5363 96.1428 75.8342 95.728 76.2183 95.3865C76.6024 95.045 77.0564 94.804 77.5802 94.6637C78.104 94.5233 78.5579 94.521 78.942 94.6567C79.3261 94.7923 79.6229 95.0478 79.8325 95.4231C80.0443 95.7977 80.1502 96.2718 80.1502 96.8454C80.1502 97.419 80.0443 97.9487 79.8325 98.4344C79.6229 98.9196 79.3261 99.3329 78.942 99.6744C78.5579 100.016 78.104 100.257 77.5802 100.397ZM77.5872 99.347C77.8712 99.2709 78.1086 99.1265 78.2995 98.9139C78.4904 98.6988 78.6324 98.4415 78.7255 98.1418C78.821 97.8415 78.8687 97.5226 78.8687 97.1852C78.8687 96.8454 78.821 96.5509 78.7255 96.3017C78.6324 96.0495 78.4904 95.867 78.2995 95.7543C78.1086 95.6416 77.8712 95.6232 77.5872 95.6993C77.2962 95.7773 77.0541 95.9241 76.8608 96.1398C76.67 96.3548 76.5268 96.6137 76.4313 96.9164C76.3382 97.2161 76.2917 97.5359 76.2917 97.8757C76.2917 98.2131 76.3382 98.5067 76.4313 98.7565C76.5268 99.0057 76.67 99.1866 76.8608 99.2994C77.0541 99.4091 77.2962 99.4249 77.5872 99.347ZM81.2231 99.3126V93.7599L82.4488 93.4314V94.3569L82.5046 94.3419C82.6024 93.9952 82.77 93.7033 83.0075 93.4661C83.2473 93.2259 83.5208 93.0647 83.8281 92.9823C83.8979 92.9636 83.9759 92.9463 84.062 92.9305C84.1505 92.9116 84.2238 92.9004 84.282 92.8968V94.1007C84.2285 94.0957 84.1435 94.1016 84.0271 94.1184C83.913 94.1321 83.8025 94.1533 83.6954 94.1819C83.4649 94.2437 83.2577 94.351 83.0738 94.5039C82.8922 94.6538 82.7491 94.8332 82.6443 95.042C82.5396 95.2508 82.4872 95.4733 82.4872 95.7095V98.9739L81.2231 99.3126ZM86.2742 96.2167L86.2707 94.6379L86.4732 94.5836L88.4007 91.8366L89.8778 91.4408L87.5068 94.8092L87.2449 94.8793L86.2742 96.2167ZM85.1218 98.268V90.8643L86.3859 90.5256V97.9293L85.1218 98.268ZM88.488 97.366L86.7421 95.3069L87.5941 94.1567L90 96.9609L88.488 97.366ZM90.7202 96.7679V91.2151L91.9843 90.8764V96.4292L90.7202 96.7679ZM91.3558 90.2567C91.1556 90.3104 90.9833 90.2879 90.839 90.1892C90.6946 90.088 90.6225 89.9399 90.6225 89.7447C90.6225 89.547 90.6946 89.3602 90.839 89.1842C90.9833 89.0057 91.1556 88.8897 91.3558 88.836C91.5583 88.7817 91.7306 88.8055 91.8726 88.9072C92.0169 89.0059 92.0891 89.1541 92.0891 89.3517C92.0891 89.5469 92.0169 89.7337 91.8726 89.9122C91.7306 90.0876 91.5583 90.2025 91.3558 90.2567ZM94.5482 92.4886V95.7422L93.2842 96.0809V90.5281L94.4924 90.2044V91.1479L94.5552 91.1311C94.6786 90.7871 94.8753 90.4874 95.1453 90.2319C95.4177 89.9757 95.7541 89.794 96.1545 89.6867C96.5246 89.5875 96.8471 89.5831 97.1218 89.6734C97.3988 89.763 97.613 89.943 97.7643 90.2134C97.9179 90.4831 97.9936 90.84 97.9913 91.2841V94.8196L96.7272 95.1583V91.8252C96.7272 91.4541 96.6341 91.1886 96.4478 91.0288C96.2639 90.8684 96.009 90.8319 95.6831 90.9192C95.4619 90.9785 95.2652 91.0818 95.093 91.2292C94.923 91.3735 94.7892 91.5528 94.6914 91.767C94.596 91.9805 94.5482 92.2211 94.5482 92.4886ZM101.609 96.0483C101.155 96.1699 100.765 96.2105 100.439 96.1701C100.113 96.1321 99.8513 96.0336 99.6534 95.8745C99.4555 95.7155 99.3182 95.5173 99.2414 95.28L100.38 94.6894C100.431 94.7841 100.505 94.8714 100.603 94.9512C100.701 95.0335 100.832 95.0874 100.998 95.113C101.165 95.1404 101.376 95.1201 101.63 95.0521C101.988 94.9561 102.285 94.7861 102.52 94.5424C102.755 94.301 102.873 93.9755 102.873 93.5658V92.5138L102.81 92.5307C102.745 92.6831 102.649 92.8472 102.524 93.0231C102.4 93.1984 102.236 93.3616 102.031 93.5129C101.829 93.6636 101.574 93.7801 101.267 93.8625C100.855 93.9729 100.481 93.973 100.146 93.8627C99.8129 93.7495 99.5475 93.5194 99.3496 93.1723C99.1541 92.8222 99.0563 92.3447 99.0563 91.7398C99.0563 91.13 99.1541 90.5893 99.3496 90.1176C99.5475 89.6428 99.814 89.252 100.149 88.9453C100.484 88.6362 100.858 88.4264 101.27 88.316C101.584 88.2318 101.843 88.218 102.045 88.2746C102.25 88.3281 102.413 88.4158 102.534 88.5376C102.655 88.657 102.747 88.7758 102.81 88.8939L102.88 88.8752V87.9569L104.127 87.6229V93.2661C104.127 93.7408 104.017 94.163 103.798 94.5325C103.579 94.9021 103.28 95.2148 102.901 95.4707C102.521 95.7266 102.091 95.9191 101.609 96.0483ZM101.619 92.7413C101.887 92.6695 102.115 92.5409 102.304 92.3554C102.492 92.1699 102.635 91.9376 102.733 91.6583C102.831 91.3791 102.88 91.0623 102.88 90.708C102.88 90.3586 102.831 90.0656 102.733 89.8291C102.638 89.592 102.496 89.4264 102.307 89.3323C102.121 89.2352 101.892 89.2231 101.619 89.2961C101.338 89.3716 101.103 89.5105 100.914 89.7128C100.725 89.9152 100.583 90.1617 100.488 90.4524C100.393 90.7407 100.345 91.0523 100.345 91.3873C100.345 91.7271 100.393 92.012 100.488 92.2419C100.586 92.4687 100.729 92.628 100.917 92.7197C101.108 92.8083 101.342 92.8155 101.619 92.7413ZM107.917 92.16V84.7563L110.599 84.0378C111.148 83.8905 111.609 83.8731 111.982 83.9854C112.356 84.097 112.639 84.3128 112.83 84.6328C113.023 84.9498 113.12 85.3433 113.12 85.8132C113.12 86.288 113.023 86.7357 112.83 87.1562C112.637 87.5767 112.352 87.9435 111.975 88.2566C111.597 88.5674 111.133 88.7967 110.581 88.9445L108.804 89.4207V88.3181L110.407 87.8887C110.728 87.8026 110.991 87.6743 111.196 87.5037C111.401 87.3331 111.552 87.1335 111.65 86.9049C111.75 86.6756 111.8 86.4296 111.8 86.1669C111.8 85.9042 111.75 85.6863 111.65 85.5131C111.552 85.3392 111.4 85.2246 111.192 85.1693C110.988 85.1109 110.723 85.1251 110.4 85.2118L109.212 85.5299V91.8129L107.917 92.16ZM116.487 89.9722C115.949 90.1162 115.485 90.125 115.094 89.9984C114.705 89.8688 114.406 89.6188 114.196 89.2484C113.987 88.8755 113.882 88.3987 113.882 87.8179C113.882 87.2467 113.987 86.7173 114.196 86.2298C114.408 85.7392 114.704 85.3226 115.083 84.9799C115.463 84.6348 115.909 84.3936 116.421 84.2564C116.751 84.1678 117.063 84.1397 117.356 84.1719C117.652 84.2012 117.913 84.3 118.139 84.4685C118.367 84.6363 118.546 84.8799 118.676 85.1992C118.807 85.5162 118.872 85.9181 118.872 86.4049V86.8062L114.476 87.9841V87.1021L117.66 86.2487C117.658 85.9987 117.606 85.7898 117.503 85.6221C117.401 85.4519 117.258 85.3348 117.074 85.2708C116.892 85.2062 116.68 85.2063 116.438 85.2712C116.18 85.3404 115.953 85.4663 115.757 85.6488C115.562 85.829 115.409 86.0385 115.3 86.2775C115.193 86.5135 115.138 86.7559 115.136 87.0048V87.7748C115.136 88.0977 115.193 88.3596 115.307 88.5604C115.421 88.7588 115.58 88.892 115.785 88.96C115.99 89.0256 116.23 89.0216 116.504 88.948C116.688 88.8987 116.855 88.8276 117.004 88.7347C117.153 88.6393 117.282 88.524 117.391 88.3886C117.501 88.2533 117.583 88.0998 117.639 87.9281L118.82 87.7493C118.745 88.0922 118.603 88.4122 118.394 88.7094C118.186 89.0035 117.921 89.2601 117.597 89.4794C117.274 89.6963 116.904 89.8605 116.487 89.9722ZM119.941 88.9381V83.3853L121.167 83.0569V83.9824L121.223 83.9674C121.321 83.6207 121.488 83.3287 121.726 83.0916C121.966 82.8514 122.239 82.6901 122.546 82.6078C122.616 82.5891 122.694 82.5718 122.78 82.556C122.869 82.5371 122.942 82.5259 123 82.5223V83.7261C122.947 83.7212 122.862 83.7271 122.745 83.7438C122.631 83.7575 122.521 83.7787 122.414 83.8074C122.183 83.8692 121.976 83.9765 121.792 84.1294C121.611 84.2793 121.467 84.4586 121.363 84.6675C121.258 84.8763 121.205 85.0988 121.205 85.335V88.5994L119.941 88.9381ZM123.84 87.8935V82.3407L125.104 82.002V87.5547L123.84 87.8935ZM124.476 81.3823C124.275 81.4359 124.103 81.4134 123.959 81.3147C123.814 81.2136 123.742 81.0654 123.742 80.8702C123.742 80.6726 123.814 80.4858 123.959 80.3097C124.103 80.1313 124.275 80.0152 124.476 79.9616C124.678 79.9073 124.85 79.931 124.992 80.0328C125.137 80.1315 125.209 80.2796 125.209 80.4773C125.209 80.6725 125.137 80.8593 124.992 81.0378C124.85 81.2132 124.678 81.328 124.476 81.3823ZM128.744 86.688C128.22 86.8284 127.766 86.8307 127.382 86.695C126.998 86.5593 126.7 86.3054 126.488 85.9332C126.278 85.5603 126.174 85.0871 126.174 84.5135C126.174 83.9399 126.278 83.4093 126.488 82.9218C126.7 82.4336 126.998 82.0188 127.382 81.6773C127.766 81.3358 128.22 81.0948 128.744 80.9545C129.267 80.8141 129.721 80.8118 130.105 80.9475C130.49 81.0831 130.786 81.3386 130.996 81.7139C131.208 82.0885 131.314 82.5626 131.314 83.1362C131.314 83.7098 131.208 84.2395 130.996 84.7252C130.786 85.2104 130.49 85.6237 130.105 85.9652C129.721 86.3067 129.267 86.5477 128.744 86.688ZM128.751 85.6378C129.035 85.5617 129.272 85.4173 129.463 85.2047C129.654 84.9896 129.796 84.7323 129.889 84.4326C129.984 84.1323 130.032 83.8134 130.032 83.476C130.032 83.1362 129.984 82.8417 129.889 82.5925C129.796 82.3403 129.654 82.1578 129.463 82.0451C129.272 81.9324 129.035 81.914 128.751 81.9901C128.46 82.0681 128.217 82.2149 128.024 82.4306C127.833 82.6456 127.69 82.9045 127.595 83.2072C127.502 83.5069 127.455 83.8267 127.455 84.1665C127.455 84.5039 127.502 84.7975 127.595 85.0473C127.69 85.2965 127.833 85.4774 128.024 85.5902C128.217 85.6999 128.46 85.7157 128.751 85.6378ZM134.377 85.1677C133.956 85.2806 133.578 85.2696 133.246 85.1347C132.913 84.9997 132.65 84.7449 132.456 84.3701C132.263 83.9952 132.167 83.503 132.167 82.8932C132.167 82.2763 132.264 81.7295 132.46 81.2529C132.658 80.7733 132.924 80.3802 133.26 80.0734C133.595 79.7643 133.968 79.5545 134.38 79.4441C134.695 79.3599 134.953 79.3461 135.156 79.4027C135.358 79.4569 135.519 79.5452 135.637 79.6676C135.756 79.7876 135.848 79.9064 135.913 80.0239L135.966 80.0099V77.2407L137.233 76.9011V84.3048L135.99 84.6378V83.763L135.913 83.7836C135.848 83.936 135.754 84.1047 135.631 84.2896C135.507 84.472 135.344 84.6434 135.142 84.8038C134.939 84.9641 134.684 85.0854 134.377 85.1677ZM134.73 83.9995C134.997 83.9278 135.225 83.792 135.414 83.592C135.603 83.3897 135.746 83.1404 135.844 82.8443C135.941 82.5482 135.99 82.2206 135.99 81.8615C135.99 81.5024 135.941 81.2034 135.844 80.9644C135.748 80.7249 135.606 80.5569 135.418 80.4604C135.231 80.3633 135.002 80.3512 134.73 80.4242C134.448 80.4997 134.213 80.6386 134.024 80.841C133.836 81.0433 133.694 81.2911 133.598 81.5841C133.503 81.8772 133.455 82.1961 133.455 82.5407C133.455 82.8878 133.503 83.1847 133.598 83.4315C133.696 83.6752 133.839 83.8501 134.028 83.9562C134.219 84.0593 134.453 84.0738 134.73 83.9995Z" fill="#101828"/>
<path d="M66.2317 116.784L65.4535 116.992L67.7043 110.043L68.4705 109.838L70.7213 115.581L69.9431 115.789L68.1114 110.938L68.0635 110.951L66.2317 116.784ZM66.5191 114.228L69.6558 113.387V114.069L66.5191 114.91V114.228ZM74.7635 109.738L73.0634 114.953L72.3451 115.146L70.645 110.842L71.4112 110.637L72.6803 114.089L72.7282 114.076L73.9972 109.944L74.7635 109.738ZM77.4587 113.875C77.0157 113.993 76.6336 113.995 76.3124 113.878C75.9931 113.759 75.7467 113.54 75.5731 113.221C75.4015 112.899 75.3157 112.495 75.3157 112.007C75.3157 111.52 75.4015 111.067 75.5731 110.649C75.7467 110.229 75.9881 109.873 76.2974 109.581C76.6087 109.287 76.9718 109.085 77.3869 108.973C77.6263 108.909 77.8628 108.887 78.0962 108.907C78.3297 108.927 78.5422 109.005 78.7338 109.139C78.9253 109.272 79.078 109.475 79.1917 109.748C79.3054 110.021 79.3623 110.38 79.3623 110.824V111.134L75.8185 112.083V111.451L78.644 110.694C78.644 110.425 78.5921 110.2 78.4883 110.017C78.3866 109.833 78.2409 109.706 78.0513 109.635C77.8638 109.563 77.6423 109.562 77.3869 109.63C77.1055 109.706 76.8621 109.843 76.6566 110.043C76.453 110.24 76.2964 110.468 76.1867 110.727C76.0769 110.985 76.022 111.246 76.022 111.508V111.93C76.022 112.289 76.0819 112.578 76.2016 112.796C76.3233 113.011 76.492 113.155 76.7075 113.227C76.923 113.297 77.1734 113.294 77.4587 113.218C77.6443 113.168 77.8119 113.096 77.9615 113.003C78.1132 112.906 78.2439 112.788 78.3536 112.65C78.4634 112.509 78.5482 112.348 78.608 112.166L79.2905 112.182C79.2186 112.441 79.0979 112.684 78.9283 112.911C78.7587 113.136 78.5492 113.333 78.2998 113.501C78.0503 113.667 77.77 113.791 77.4587 113.875ZM80.4368 112.978V108.218L81.1192 108.035V108.754L81.1671 108.741C81.2509 108.483 81.4026 108.252 81.6221 108.046C81.8416 107.841 82.089 107.701 82.3643 107.627C82.4162 107.613 82.4811 107.597 82.5589 107.578C82.6367 107.559 82.6956 107.547 82.7355 107.54V108.284C82.7115 108.284 82.6567 108.29 82.5709 108.3C82.4871 108.308 82.3983 108.325 82.3045 108.35C82.081 108.41 81.8815 108.512 81.7059 108.656C81.5323 108.797 81.3946 108.966 81.2928 109.163C81.1931 109.357 81.1432 109.562 81.1432 109.776V112.788L80.4368 112.978ZM84.9257 111.886C84.6343 111.964 84.3699 111.978 84.1325 111.928C83.895 111.876 83.7065 111.761 83.5668 111.581C83.4271 111.4 83.3573 111.154 83.3573 110.844C83.3573 110.571 83.4092 110.336 83.5129 110.139C83.6167 109.94 83.7554 109.769 83.929 109.625C84.1026 109.481 84.2941 109.358 84.5036 109.254C84.7151 109.148 84.9277 109.052 85.1412 108.966C85.4205 108.853 85.647 108.765 85.8206 108.7C85.9962 108.632 86.1239 108.564 86.2037 108.495C86.2855 108.425 86.3264 108.332 86.3264 108.214V108.189C86.3264 107.884 86.2456 107.668 86.084 107.542C85.9243 107.415 85.6819 107.395 85.3567 107.482C85.0194 107.573 84.7551 107.72 84.5635 107.924C84.3719 108.128 84.2373 108.328 84.1594 108.522L83.489 108.454C83.6087 108.133 83.7683 107.865 83.9679 107.65C84.1694 107.433 84.3889 107.26 84.6264 107.133C84.8658 107.002 85.1013 106.906 85.3327 106.844C85.4804 106.805 85.65 106.778 85.8415 106.764C86.0351 106.747 86.2217 106.77 86.4012 106.834C86.5828 106.897 86.7335 107.025 86.8532 107.218C86.9729 107.411 87.0328 107.696 87.0328 108.074V111.21L86.3264 111.4V110.755L86.2905 110.765C86.2426 110.881 86.1628 111.013 86.051 111.16C85.9393 111.308 85.7907 111.448 85.6051 111.58C85.4195 111.713 85.193 111.815 84.9257 111.886ZM85.0334 111.201C85.3128 111.126 85.5482 111.006 85.7398 110.841C85.9333 110.675 86.079 110.49 86.1768 110.284C86.2765 110.077 86.3264 109.875 86.3264 109.677V109.007C86.2965 109.053 86.2306 109.104 86.1289 109.163C86.0291 109.218 85.9134 109.275 85.7817 109.333C85.652 109.388 85.5253 109.441 85.4016 109.491C85.2798 109.538 85.1811 109.577 85.1052 109.607C84.9217 109.681 84.7501 109.767 84.5904 109.866C84.4328 109.962 84.3051 110.078 84.2073 110.213C84.1115 110.347 84.0637 110.506 84.0637 110.692C84.0637 110.946 84.1544 111.114 84.336 111.195C84.5196 111.274 84.7521 111.276 85.0334 111.201ZM90.1777 112.252C89.8365 112.343 89.5432 112.376 89.2978 112.351C89.0523 112.328 88.8478 112.265 88.6842 112.162C88.5226 112.061 88.3939 111.94 88.2981 111.801L88.8608 111.241C88.9246 111.311 89.0055 111.388 89.1032 111.474C89.201 111.561 89.3347 111.623 89.5043 111.66C89.6759 111.699 89.9004 111.681 90.1777 111.607C90.5489 111.508 90.8552 111.333 91.0966 111.082C91.338 110.831 91.4588 110.508 91.4588 110.111V109.144L91.3989 109.16C91.347 109.261 91.2732 109.388 91.1774 109.542C91.0836 109.693 90.948 109.842 90.7704 109.989C90.5948 110.133 90.3573 110.245 90.058 110.325C89.6869 110.425 89.3536 110.423 89.0583 110.32C88.765 110.217 88.5325 110.015 88.3609 109.714C88.1913 109.412 88.1065 109.014 88.1065 108.518C88.1065 108.03 88.1893 107.584 88.355 107.178C88.5206 106.77 88.751 106.427 89.0464 106.15C89.3417 105.87 89.6829 105.679 90.07 105.575C90.3693 105.495 90.6067 105.483 90.7823 105.539C90.9599 105.593 91.0956 105.672 91.1894 105.777C91.2852 105.879 91.359 105.965 91.4109 106.034L91.4827 106.014V105.258L92.1651 105.076V109.971C92.1651 110.38 92.0753 110.737 91.8958 111.041C91.7182 111.347 91.4787 111.6 91.1774 111.801C90.8781 112.003 90.5449 112.153 90.1777 112.252ZM90.1538 109.643C90.4371 109.567 90.6766 109.435 90.8721 109.249C91.0677 109.062 91.2163 108.829 91.3181 108.55C91.4199 108.271 91.4707 107.955 91.4707 107.604C91.4707 107.261 91.4209 106.972 91.3211 106.736C91.2213 106.501 91.0737 106.335 90.8781 106.238C90.6826 106.142 90.4411 106.132 90.1538 106.209C89.8545 106.29 89.6051 106.435 89.4055 106.645C89.208 106.855 89.0593 107.106 88.9596 107.397C88.8618 107.688 88.8129 107.994 88.8129 108.316C88.8129 108.647 88.8628 108.926 88.9626 109.153C89.0643 109.378 89.214 109.536 89.4115 109.628C89.611 109.717 89.8585 109.722 90.1538 109.643ZM95.3857 109.071C94.9427 109.19 94.5606 109.191 94.2393 109.075C93.9201 108.956 93.6736 108.737 93.5 108.418C93.3284 108.096 93.2426 107.691 93.2426 107.204C93.2426 106.716 93.3284 106.264 93.5 105.846C93.6736 105.425 93.9151 105.069 94.2244 104.778C94.5356 104.484 94.8988 104.281 95.3138 104.17C95.5533 104.106 95.7897 104.084 96.0232 104.104C96.2566 104.124 96.4692 104.201 96.6607 104.336C96.8523 104.468 97.0049 104.671 97.1186 104.944C97.2324 105.217 97.2893 105.576 97.2893 106.02V106.33L93.7455 107.28V106.648L96.5709 105.891C96.5709 105.622 96.519 105.396 96.4153 105.213C96.3135 105.03 96.1679 104.903 95.9783 104.832C95.7907 104.76 95.5692 104.758 95.3138 104.827C95.0325 104.902 94.789 105.04 94.5835 105.239C94.38 105.436 94.2234 105.664 94.1136 105.923C94.0039 106.182 93.949 106.442 93.949 106.705V107.126C93.949 107.485 94.0089 107.774 94.1286 107.992C94.2503 108.207 94.4189 108.351 94.6344 108.424C94.8499 108.494 95.1003 108.491 95.3857 108.414C95.5712 108.365 95.7388 108.293 95.8885 108.199C96.0401 108.103 96.1708 107.985 96.2806 107.846C96.3903 107.705 96.4751 107.544 96.535 107.363L97.2174 107.378C97.1456 107.637 97.0249 107.88 96.8553 108.107C96.6857 108.332 96.4761 108.529 96.2267 108.697C95.9773 108.863 95.6969 108.988 95.3857 109.071ZM101.189 109.202C101.069 109.234 100.963 109.252 100.869 109.257C100.775 109.263 100.71 109.262 100.674 109.253L100.854 108.56C101.026 108.56 101.177 108.536 101.309 108.488C101.441 108.44 101.557 108.348 101.659 108.211C101.763 108.076 101.858 107.876 101.943 107.612L102.075 107.204L100.375 102.876L101.141 102.67L102.41 106.123L102.458 106.11L103.727 101.977L104.494 101.772L102.542 107.749C102.454 108.018 102.346 108.251 102.216 108.446C102.086 108.644 101.935 108.806 101.764 108.93C101.594 109.054 101.403 109.145 101.189 109.202ZM107.129 105.925C106.714 106.036 106.35 106.031 106.036 105.911C105.725 105.79 105.482 105.569 105.306 105.248C105.133 104.927 105.046 104.52 105.046 104.029C105.046 103.533 105.133 103.077 105.306 102.661C105.482 102.244 105.725 101.891 106.036 101.603C106.35 101.315 106.714 101.115 107.129 101.004C107.544 100.893 107.907 100.898 108.218 101.019C108.532 101.139 108.775 101.361 108.949 101.685C109.124 102.007 109.212 102.417 109.212 102.912C109.212 103.404 109.124 103.857 108.949 104.272C108.775 104.686 108.532 105.038 108.218 105.326C107.907 105.614 107.544 105.813 107.129 105.925ZM107.129 105.268C107.444 105.183 107.704 105.03 107.907 104.808C108.111 104.586 108.261 104.326 108.359 104.027C108.457 103.728 108.506 103.42 108.506 103.102C108.506 102.783 108.457 102.5 108.359 102.252C108.261 102.003 108.111 101.821 107.907 101.706C107.704 101.592 107.444 101.576 107.129 101.661C106.814 101.745 106.554 101.9 106.351 102.124C106.147 102.347 105.997 102.61 105.899 102.911C105.801 103.212 105.752 103.521 105.752 103.839C105.752 104.158 105.801 104.44 105.899 104.686C105.997 104.933 106.147 105.112 106.351 105.225C106.554 105.338 106.814 105.352 107.129 105.268ZM113.188 102.256V99.4425L113.894 99.2533V104.013L113.188 104.202V103.396L113.14 103.409C113.032 103.68 112.864 103.93 112.637 104.161C112.409 104.389 112.122 104.55 111.775 104.643C111.488 104.72 111.232 104.723 111.009 104.653C110.785 104.58 110.61 104.429 110.482 104.199C110.354 103.967 110.29 103.648 110.29 103.243V100.219L110.997 100.03V103.004C110.997 103.351 111.091 103.603 111.278 103.759C111.468 103.915 111.709 103.954 112.002 103.875C112.178 103.828 112.357 103.734 112.538 103.592C112.722 103.45 112.875 103.266 112.999 103.041C113.125 102.815 113.188 102.554 113.188 102.256ZM115.188 103.666V98.9066L115.87 98.7238V99.4426L115.918 99.4298C116.002 99.1719 116.154 98.9401 116.373 98.7347C116.593 98.5292 116.84 98.3895 117.115 98.3158C117.167 98.3019 117.232 98.2855 117.31 98.2667C117.388 98.2479 117.447 98.2353 117.486 98.2287V98.9724C117.462 98.9726 117.408 98.978 117.322 98.9886C117.238 98.9966 117.149 99.0132 117.055 99.0383C116.832 99.0982 116.632 99.2002 116.457 99.3443C116.283 99.4859 116.146 99.655 116.044 99.8516C115.944 100.046 115.894 100.25 115.894 100.465V103.477L115.188 103.666ZM121.736 101.912L120.335 97.5274L121.077 97.3285L122.071 100.706L122.119 100.693L123.101 96.7864L123.855 96.5843L124.825 99.956L124.873 99.9432L125.866 96.0453L126.609 95.8464L125.208 100.981L124.513 101.167L123.508 97.7804L123.436 97.7996L122.43 101.726L121.736 101.912ZM129.254 99.9963C128.839 100.108 128.474 100.103 128.161 99.9823C127.85 99.8612 127.606 99.6403 127.431 99.3197C127.257 98.9985 127.17 98.5921 127.17 98.1004C127.17 97.6046 127.257 97.1486 127.431 96.7323C127.606 96.3155 127.85 95.9631 128.161 95.6752C128.474 95.3867 128.839 95.1869 129.254 95.0757C129.669 94.9645 130.032 94.9694 130.343 95.0905C130.656 95.2111 130.9 95.433 131.073 95.7563C131.249 96.079 131.337 96.4882 131.337 96.984C131.337 97.4757 131.249 97.9289 131.073 98.3436C130.9 98.7579 130.656 99.1092 130.343 99.3977C130.032 99.6856 129.669 99.8851 129.254 99.9963ZM129.254 99.3394C129.569 99.255 129.828 99.1018 130.032 98.8799C130.235 98.6581 130.386 98.3977 130.484 98.0988C130.582 97.7999 130.63 97.4914 130.63 97.1733C130.63 96.8552 130.582 96.5718 130.484 96.3233C130.386 96.0747 130.235 95.893 130.032 95.7782C129.828 95.6633 129.569 95.6481 129.254 95.7326C128.938 95.8171 128.679 95.9713 128.475 96.1952C128.272 96.4191 128.121 96.6816 128.024 96.9825C127.926 97.2835 127.877 97.593 127.877 97.9111C127.877 98.2293 127.926 98.5116 128.024 98.758C128.121 99.0045 128.272 99.1842 128.475 99.297C128.679 99.4097 128.938 99.4239 129.254 99.3394ZM132.415 99.0501V94.2906L133.098 94.1077V94.8266L133.145 94.8138C133.229 94.5558 133.381 94.3241 133.6 94.1186C133.82 93.9131 134.067 93.7735 134.343 93.6997C134.395 93.6858 134.459 93.6695 134.537 93.6507C134.615 93.6319 134.674 93.6192 134.714 93.6127V94.3563C134.69 94.3566 134.635 94.362 134.549 94.3726C134.465 94.3806 134.377 94.3971 134.283 94.4222C134.059 94.4821 133.86 94.5841 133.684 94.7283C133.511 94.8698 133.373 95.0389 133.271 95.2356C133.171 95.4296 133.121 95.6341 133.121 95.8489V98.8608L132.415 99.0501ZM136.21 96.2981L136.198 95.3965L136.341 95.358L138.353 92.6996L139.227 92.4654L137.084 95.2831L137.024 95.2991L136.21 96.2981ZM135.551 98.2098V91.8638L136.257 91.6745V98.0205L135.551 98.2098ZM138.472 97.4271L136.676 95.5533L137.179 94.9104L139.37 97.1865L138.472 97.4271ZM140.136 96.9814V92.2218L140.842 92.0326V96.7921L140.136 96.9814ZM140.495 91.3323C140.357 91.3692 140.238 91.3525 140.139 91.2821C140.041 91.2113 139.992 91.1076 139.992 90.9713C139.992 90.835 140.041 90.7051 140.139 90.5818C140.238 90.458 140.357 90.3777 140.495 90.3408C140.633 90.3039 140.75 90.3209 140.848 90.3918C140.948 90.4621 140.998 90.5655 140.998 90.7018C140.998 90.8382 140.948 90.9682 140.848 91.0921C140.75 91.2154 140.633 91.2955 140.495 91.3323ZM142.842 93.393V96.2562L142.136 96.4454V91.6859L142.818 91.5031V92.2467L142.878 92.2307C142.986 91.9601 143.149 91.7221 143.369 91.5166C143.588 91.3091 143.872 91.1588 144.219 91.0657C144.53 90.9823 144.803 90.9755 145.036 91.0451C145.27 91.1127 145.451 91.2624 145.581 91.4941C145.711 91.7238 145.775 92.041 145.775 92.4459V95.4702L145.069 95.6595V92.6848C145.069 92.3109 144.975 92.0447 144.788 91.8863C144.6 91.7259 144.343 91.6895 144.015 91.7772C143.79 91.8376 143.588 91.9422 143.411 92.091C143.235 92.2393 143.097 92.4242 142.995 92.6456C142.893 92.8671 142.842 93.1162 142.842 93.393ZM148.922 96.5111C148.581 96.6025 148.287 96.6357 148.042 96.6105C147.796 96.5875 147.592 96.5245 147.428 96.4217C147.267 96.3204 147.138 96.2 147.042 96.0604L147.605 95.5006C147.669 95.5702 147.75 95.6477 147.847 95.7331C147.945 95.8205 148.079 95.8828 148.248 95.92C148.42 95.9587 148.644 95.9409 148.922 95.8666C149.293 95.7671 149.599 95.5921 149.841 95.3415C150.082 95.0909 150.203 94.7673 150.203 94.3706V93.4039L150.143 93.4199C150.091 93.5206 150.017 93.6478 149.922 93.8015C149.828 93.9526 149.692 94.1016 149.514 94.2483C149.339 94.3925 149.101 94.5046 148.802 94.5848C148.431 94.6843 148.098 94.6827 147.802 94.58C147.509 94.4768 147.277 94.2747 147.105 93.9736C146.935 93.672 146.851 93.2733 146.851 92.7775C146.851 92.29 146.933 91.8433 147.099 91.4374C147.265 91.0295 147.495 90.6868 147.79 90.4093C148.086 90.1298 148.427 89.9382 148.814 89.8345C149.113 89.7543 149.351 89.7423 149.526 89.7986C149.704 89.8522 149.84 89.9315 149.933 90.0365C150.029 90.1389 150.103 90.2245 150.155 90.2932L150.227 90.274V89.5179L150.909 89.3351V94.2309C150.909 94.64 150.819 94.9966 150.64 95.3009C150.462 95.6067 150.223 95.8599 149.922 96.0604C149.622 96.2625 149.289 96.4127 148.922 96.5111ZM148.898 93.9023C149.181 93.8263 149.421 93.695 149.616 93.5084C149.812 93.3217 149.96 93.0887 150.062 92.8094C150.164 92.5301 150.215 92.2149 150.215 91.8637C150.215 91.5208 150.165 91.2315 150.065 90.9959C149.965 90.7603 149.818 90.5943 149.622 90.498C149.427 90.4016 149.185 90.392 148.898 90.469C148.599 90.5492 148.349 90.6945 148.15 90.9049C147.952 91.1149 147.803 91.3654 147.704 91.6566C147.606 91.9472 147.557 92.2536 147.557 92.5759C147.557 92.9064 147.607 93.1853 147.707 93.4127C147.808 93.6375 147.958 93.7957 148.156 93.8873C148.355 93.9764 148.603 93.9814 148.898 93.9023ZM154.573 94.8978V88.3534L155.255 88.1706V88.9267L155.339 88.9042C155.391 88.8077 155.463 88.6831 155.554 88.5304C155.648 88.3751 155.782 88.2236 155.956 88.0759C156.131 87.9255 156.369 87.8103 156.668 87.7301C157.055 87.6264 157.396 87.6351 157.692 87.7564C157.987 87.8776 158.217 88.0999 158.383 88.4232C158.549 88.7466 158.631 89.1582 158.631 89.6581C158.631 90.1621 158.549 90.6212 158.383 91.0354C158.217 91.4475 157.988 91.794 157.694 92.0751C157.401 92.3541 157.063 92.5449 156.68 92.6475C156.385 92.7266 156.148 92.7394 155.97 92.6858C155.793 92.6301 155.656 92.55 155.56 92.4455C155.465 92.3389 155.391 92.2492 155.339 92.1764L155.279 92.1924V94.7085L154.573 94.8978ZM155.267 90.5471C155.267 90.9066 155.318 91.21 155.42 91.4575C155.522 91.7029 155.67 91.8769 155.866 91.9794C156.061 92.0799 156.301 92.0922 156.584 92.0163C156.879 91.9371 157.126 91.7905 157.323 91.5765C157.523 91.3598 157.673 91.1008 157.772 90.7993C157.874 90.4952 157.925 90.1738 157.925 89.835C157.925 89.5003 157.875 89.2121 157.775 88.9703C157.678 88.7259 157.529 88.5519 157.329 88.4483C157.132 88.3422 156.883 88.3292 156.584 88.4094C156.297 88.4864 156.055 88.6265 155.86 88.8297C155.664 89.0309 155.517 89.2791 155.417 89.5743C155.317 89.8676 155.267 90.1918 155.267 90.5471ZM161.636 91.3194C161.193 91.4381 160.811 91.4393 160.49 91.3229C160.171 91.204 159.924 90.9849 159.751 90.6658C159.579 90.3441 159.493 89.9394 159.493 89.4519C159.493 88.9644 159.579 88.5117 159.751 88.0939C159.924 87.6735 160.166 87.3175 160.475 87.026C160.786 86.7319 161.149 86.5292 161.565 86.418C161.804 86.3539 162.04 86.3318 162.274 86.3519C162.507 86.372 162.72 86.4493 162.911 86.5839C163.103 86.7164 163.256 86.9193 163.369 87.1925C163.483 87.4657 163.54 87.8243 163.54 88.2685V88.5783L159.996 89.5279V88.8958L162.822 88.1387C162.822 87.8701 162.77 87.6444 162.666 87.4615C162.564 87.2781 162.419 87.1508 162.229 87.0797C162.041 87.0081 161.82 87.0065 161.565 87.0749C161.283 87.1503 161.04 87.2879 160.834 87.4875C160.631 87.6846 160.474 87.9125 160.364 88.1712C160.255 88.4299 160.2 88.6904 160.2 88.9528V89.3742C160.2 89.7336 160.26 90.0223 160.379 90.2402C160.501 90.4555 160.67 90.5993 160.885 90.6717C161.101 90.742 161.351 90.739 161.636 90.6625C161.822 90.6128 161.99 90.541 162.139 90.4472C162.291 90.3508 162.422 90.2332 162.531 90.0943C162.641 89.9533 162.726 89.7922 162.786 89.6109L163.468 89.6263C163.396 89.8852 163.276 90.1283 163.106 90.3555C162.936 90.5807 162.727 90.7773 162.477 90.9453C162.228 91.1113 161.948 91.236 161.636 91.3194ZM164.614 90.4223V85.6628L165.297 85.4799V86.1988L165.345 86.186C165.429 85.928 165.58 85.6963 165.8 85.4908C166.019 85.2853 166.267 85.1457 166.542 85.0719C166.594 85.058 166.659 85.0417 166.737 85.0229C166.814 85.0041 166.873 84.9914 166.913 84.9849V85.7285C166.889 85.7288 166.834 85.7342 166.749 85.7448C166.665 85.7528 166.576 85.7693 166.482 85.7945C166.259 85.8543 166.059 85.9563 165.884 86.1005C165.71 86.242 165.572 86.4111 165.47 86.6078C165.371 86.8018 165.321 87.0063 165.321 87.2211V90.233L164.614 90.4223ZM167.75 89.582V84.8225L168.457 84.6332V89.3927L167.75 89.582ZM168.11 83.933C167.972 83.9699 167.853 83.9532 167.753 83.8828C167.656 83.8119 167.607 83.7083 167.607 83.5719C167.607 83.4356 167.656 83.3058 167.753 83.1825C167.853 83.0587 167.972 82.9783 168.11 82.9414C168.247 82.9045 168.365 82.9215 168.463 82.9924C168.563 83.0628 168.612 83.1661 168.612 83.3025C168.612 83.4388 168.563 83.5689 168.463 83.6927C168.365 83.816 168.247 83.8961 168.11 83.933ZM171.618 88.6448C171.203 88.756 170.839 88.7513 170.526 88.6308C170.214 88.5096 169.971 88.2888 169.795 87.9681C169.622 87.6469 169.535 87.2405 169.535 86.7488C169.535 86.2531 169.622 85.797 169.795 85.3807C169.971 84.9639 170.214 84.6116 170.526 84.3236C170.839 84.0352 171.203 83.8354 171.618 83.7241C172.033 83.6129 172.396 83.6179 172.708 83.739C173.021 83.8596 173.264 84.0815 173.438 84.4047C173.614 84.7274 173.701 85.1367 173.701 85.6325C173.701 86.1241 173.614 86.5773 173.438 86.9921C173.264 87.4063 173.021 87.7577 172.708 88.0461C172.396 88.334 172.033 88.5336 171.618 88.6448ZM171.618 87.9879C171.934 87.9034 172.193 87.7502 172.396 87.5284C172.6 87.3065 172.751 87.0461 172.848 86.7473C172.946 86.4484 172.995 86.1399 172.995 85.8217C172.995 85.5036 172.946 85.2203 172.848 84.9717C172.751 84.7232 172.6 84.5415 172.396 84.4266C172.193 84.3118 171.934 84.2966 171.618 84.3811C171.303 84.4655 171.044 84.6197 170.84 84.8437C170.637 85.0676 170.486 85.33 170.388 85.631C170.29 85.9319 170.241 86.2415 170.241 86.5596C170.241 86.8777 170.29 87.16 170.388 87.4065C170.486 87.653 170.637 87.8326 170.84 87.9454C171.044 88.0582 171.303 88.0724 171.618 87.9879ZM176.516 87.3325C176.133 87.4352 175.794 87.4256 175.501 87.3038C175.208 87.18 174.978 86.9564 174.813 86.6331C174.647 86.3077 174.564 85.893 174.564 85.3889C174.564 84.889 174.647 84.433 174.813 84.0209C174.978 83.6088 175.209 83.263 175.504 82.9835C175.799 82.704 176.14 82.5124 176.528 82.4087C176.827 82.3285 177.063 82.3168 177.237 82.3735C177.413 82.4277 177.546 82.5076 177.638 82.6131C177.732 82.7161 177.805 82.8019 177.857 82.8706L177.916 82.8546V80.512L178.623 80.3228V86.6688L177.94 86.8516V86.1204L177.857 86.1428C177.805 86.2435 177.731 86.3727 177.635 86.5306C177.539 86.6864 177.403 86.8398 177.225 86.9906C177.047 87.1394 176.811 87.2534 176.516 87.3325ZM176.611 86.65C176.895 86.574 177.134 86.4334 177.33 86.2282C177.525 86.0209 177.674 85.7672 177.776 85.4673C177.877 85.1653 177.928 84.8345 177.928 84.4751C177.928 84.1198 177.878 83.8222 177.779 83.5825C177.679 83.3407 177.531 83.1716 177.336 83.0753C177.14 82.9769 176.899 82.9661 176.611 83.0431C176.312 83.1233 176.063 83.2697 175.863 83.4822C175.666 83.6922 175.517 83.9458 175.417 84.2431C175.319 84.5379 175.271 84.8526 175.271 85.1872C175.271 85.526 175.32 85.8205 175.42 86.0705C175.522 86.318 175.672 86.4969 175.869 86.6072C176.069 86.7148 176.316 86.7291 176.611 86.65Z" fill="#475467"/>
<path d="M65.238 128.776L299.83 65.9171" stroke="#EBEFFA" stroke-width="0.727149"/>
<path d="M91.928 248.875L289.295 195.991" stroke="#E2E6F0" stroke-width="0.727149" stroke-dasharray="2.91 2.91"/>
<path d="M91.928 168.162L289.295 115.278" stroke="#E2E6F0" stroke-width="0.727149" stroke-dasharray="2.91 2.91"/>
<path d="M91.928 220.517L289.295 167.632" stroke="#E2E6F0" stroke-width="0.727149" stroke-dasharray="2.91 2.91"/>
<path d="M91.928 194.339L289.295 141.455" stroke="#E2E6F0" stroke-width="0.727149" stroke-dasharray="2.91 2.91"/>
<path d="M91.928 141.984L289.295 89.1003" stroke="#E2E6F0" stroke-width="0.727149" stroke-dasharray="2.91 2.91"/>
<path d="M67.4629 151.249C67.2534 151.302 67.0439 151.317 66.8343 151.294C66.6248 151.271 66.4336 151.189 66.2607 151.047C66.0877 150.904 65.9489 150.686 65.8441 150.392C65.7394 150.096 65.687 149.704 65.687 149.215C65.687 148.747 65.7294 148.321 65.8142 147.937C65.899 147.551 66.0221 147.212 66.1833 146.921C66.3446 146.628 66.5392 146.387 66.767 146.197C66.9965 146.006 67.255 145.872 67.5427 145.795C67.8287 145.718 68.0831 145.71 68.3059 145.769C68.5304 145.826 68.7133 145.94 68.8547 146.112C68.996 146.284 69.0874 146.502 69.129 146.764L68.5204 146.927C68.4639 146.705 68.3541 146.537 68.1912 146.424C68.0282 146.311 67.8121 146.291 67.5427 146.363C67.1469 146.469 66.8352 146.731 66.6074 147.148C66.3812 147.565 66.2673 148.096 66.2657 148.74L66.3056 148.729C66.3987 148.558 66.5093 148.404 66.6373 148.266C66.767 148.126 66.91 148.007 67.0663 147.908C67.2226 147.81 67.3881 147.737 67.5626 147.69C67.8553 147.612 68.123 147.616 68.3658 147.702C68.6086 147.787 68.8031 147.942 68.9494 148.168C69.0958 148.392 69.1689 148.675 69.1689 149.016C69.1689 149.343 69.0983 149.661 68.9569 149.971C68.8156 150.279 68.6169 150.548 68.3608 150.776C68.1064 151.003 67.8071 151.161 67.4629 151.249ZM67.4629 150.681C67.6724 150.625 67.8603 150.521 68.0266 150.368C68.1945 150.214 68.3267 150.033 68.4232 149.825C68.5213 149.616 68.5703 149.4 68.5703 149.176C68.5703 148.957 68.5229 148.771 68.4281 148.618C68.335 148.462 68.2062 148.353 68.0415 148.29C67.8786 148.227 67.6923 148.223 67.4828 148.28C67.3249 148.322 67.1777 148.394 67.0414 148.496C66.905 148.596 66.7853 148.716 66.6822 148.856C66.5808 148.995 66.5009 149.144 66.4427 149.305C66.3845 149.463 66.3554 149.621 66.3554 149.78C66.3554 149.99 66.4028 150.173 66.4976 150.331C66.5941 150.487 66.7254 150.599 66.8917 150.666C67.0596 150.733 67.25 150.738 67.4629 150.681ZM71.4647 150.177C71.0889 150.278 70.7688 150.258 70.5045 150.117C70.2401 149.974 70.038 149.719 69.8984 149.352C69.7587 148.983 69.6888 148.511 69.6888 147.936C69.6888 147.365 69.7587 146.858 69.8984 146.416C70.0397 145.972 70.2426 145.608 70.507 145.324C70.773 145.037 71.0923 144.844 71.4647 144.744C71.8372 144.644 72.1556 144.667 72.42 144.811C72.6861 144.953 72.8889 145.209 73.0286 145.577C73.1699 145.944 73.2406 146.413 73.2406 146.985C73.2406 147.56 73.1708 148.069 73.0311 148.513C72.8914 148.955 72.6894 149.318 72.425 149.602C72.1606 149.885 71.8405 150.076 71.4647 150.177ZM71.4647 149.609C71.8372 149.509 72.1265 149.246 72.3327 148.819C72.5389 148.392 72.642 147.834 72.642 147.145C72.642 146.687 72.5946 146.31 72.4998 146.013C72.4067 145.717 72.272 145.507 72.0958 145.386C71.9212 145.264 71.7108 145.236 71.4647 145.302C71.0956 145.401 70.8071 145.667 70.5992 146.099C70.3914 146.53 70.2875 147.089 70.2875 147.776C70.2875 148.234 70.334 148.611 70.4271 148.906C70.5203 149.201 70.6541 149.409 70.8287 149.529C71.005 149.649 71.217 149.675 71.4647 149.609ZM76.0601 146.487V148.873L75.4714 149.031V143.743L76.0601 143.585V145.527L76.11 145.514C76.1998 145.285 76.3344 145.086 76.514 144.917C76.6953 144.746 76.9364 144.621 77.2374 144.54C77.4984 144.47 77.727 144.463 77.9233 144.519C78.1195 144.573 78.2716 144.697 78.3797 144.89C78.4894 145.081 78.5443 145.347 78.5443 145.688V148.208L77.9557 148.366V145.887C77.9557 145.572 77.8767 145.349 77.7187 145.219C77.5624 145.087 77.3454 145.059 77.0677 145.133C76.8749 145.185 76.7019 145.273 76.5489 145.398C76.3976 145.523 76.2779 145.679 76.1898 145.864C76.1033 146.049 76.0601 146.257 76.0601 146.487ZM79.27 148.013V144.047L79.8387 143.895V144.494L79.8786 144.483C79.9484 144.268 80.0748 144.075 80.2577 143.904C80.4406 143.733 80.6468 143.616 80.8763 143.555C80.9195 143.543 80.9736 143.529 81.0384 143.514C81.1033 143.498 81.1523 143.488 81.1856 143.482V144.102C81.1656 144.102 81.1199 144.107 81.0484 144.115C80.9786 144.122 80.9046 144.136 80.8264 144.157C80.6402 144.207 80.4739 144.292 80.3276 144.412C80.1829 144.53 80.0682 144.671 79.9834 144.835C79.9002 144.996 79.8587 145.167 79.8587 145.346V147.856L79.27 148.013ZM84.2459 143.602L83.7171 143.899C83.6838 143.816 83.6348 143.741 83.5699 143.672C83.5067 143.601 83.4203 143.552 83.3105 143.525C83.2008 143.497 83.0603 143.507 82.889 143.552C82.6545 143.615 82.4592 143.724 82.3029 143.877C82.1482 144.029 82.0709 144.19 82.0709 144.36C82.0709 144.512 82.1241 144.617 82.2305 144.677C82.3369 144.736 82.5032 144.764 82.7294 144.762L83.2981 144.755C83.6406 144.749 83.8958 144.812 84.0638 144.945C84.2317 145.075 84.3157 145.279 84.3157 145.556C84.3157 145.783 84.2525 146.003 84.1261 146.216C84.0014 146.429 83.8268 146.617 83.6023 146.78C83.3779 146.944 83.1168 147.065 82.8192 147.145C82.4284 147.25 82.105 147.249 81.8489 147.142C81.5928 147.035 81.4307 146.822 81.3625 146.502L81.9212 146.208C81.9745 146.407 82.0751 146.54 82.223 146.608C82.3727 146.674 82.5681 146.675 82.8092 146.611C83.0836 146.537 83.3014 146.418 83.4627 146.255C83.6256 146.089 83.7071 145.921 83.7071 145.75C83.7071 145.613 83.6605 145.51 83.5674 145.442C83.4743 145.372 83.3313 145.34 83.1384 145.345L82.4999 145.361C82.149 145.369 81.8913 145.305 81.7267 145.168C81.5637 145.029 81.4823 144.823 81.4823 144.549C81.4823 144.325 81.543 144.111 81.6643 143.906C81.7874 143.701 81.9545 143.521 82.1657 143.367C82.3785 143.212 82.6196 143.098 82.889 143.026C83.2681 142.924 83.5658 142.93 83.7819 143.045C83.9998 143.158 84.1544 143.344 84.2459 143.602Z" fill="#2D2D2D"/>
<path d="M67.3631 177.728C67.0705 177.806 66.8069 177.816 66.5724 177.759C66.338 177.701 66.1501 177.586 66.0088 177.414C65.8674 177.242 65.7901 177.023 65.7768 176.758L66.3754 176.598C66.3987 176.831 66.5034 177.001 66.6897 177.108C66.8776 177.212 67.1021 177.23 67.3631 177.16C67.5726 177.103 67.7589 177.003 67.9218 176.858C68.0864 176.712 68.2153 176.538 68.3084 176.336C68.4032 176.131 68.4506 175.916 68.4506 175.691C68.4506 175.46 68.4015 175.267 68.3034 175.113C68.207 174.956 68.074 174.848 67.9044 174.789C67.7348 174.729 67.541 174.728 67.3232 174.784C67.1669 174.824 67.0064 174.892 66.8418 174.988C66.6772 175.082 66.5417 175.183 66.4353 175.291L65.8566 175.374L66.1659 172.688L68.8197 171.977V172.545L66.6847 173.117L66.5051 174.725L66.535 174.717C66.6398 174.602 66.7712 174.496 66.9291 174.397C67.0871 174.298 67.2517 174.225 67.423 174.179C67.7356 174.095 68.0141 174.098 68.2585 174.188C68.5046 174.275 68.6975 174.433 68.8372 174.663C68.9785 174.892 69.0492 175.177 69.0492 175.52C69.0492 175.857 68.976 176.178 68.8297 176.483C68.685 176.785 68.4855 177.046 68.2311 177.268C67.9767 177.487 67.6874 177.641 67.3631 177.728ZM71.355 176.658C70.9792 176.759 70.6591 176.739 70.3947 176.598C70.1303 176.455 69.9283 176.2 69.7886 175.833C69.6489 175.464 69.5791 174.992 69.5791 174.417C69.5791 173.846 69.6489 173.339 69.7886 172.897C69.93 172.453 70.1328 172.089 70.3972 171.804C70.6633 171.518 70.9825 171.325 71.355 171.225C71.7275 171.125 72.0459 171.148 72.3103 171.292C72.5763 171.434 72.7792 171.69 72.9189 172.058C73.0602 172.425 73.1309 172.894 73.1309 173.466C73.1309 174.041 73.061 174.55 72.9214 174.994C72.7817 175.436 72.5796 175.799 72.3153 176.083C72.0509 176.366 71.7308 176.557 71.355 176.658ZM71.355 176.09C71.7275 175.99 72.0168 175.727 72.223 175.3C72.4292 174.873 72.5323 174.315 72.5323 173.626C72.5323 173.168 72.4849 172.791 72.3901 172.494C72.297 172.197 72.1623 171.988 71.986 171.867C71.8114 171.745 71.6011 171.717 71.355 171.783C70.9858 171.882 70.6973 172.148 70.4895 172.58C70.2816 173.011 70.1777 173.57 70.1777 174.257C70.1777 174.715 70.2243 175.091 70.3174 175.387C70.4105 175.682 70.5444 175.89 70.719 176.01C70.8952 176.13 71.1072 176.156 71.355 176.09ZM75.9503 172.968V175.354L75.3617 175.512V170.224L75.9503 170.066V172.008L76.0002 171.995C76.09 171.766 76.2247 171.567 76.4043 171.398C76.5855 171.227 76.8266 171.102 77.1276 171.021C77.3887 170.951 77.6173 170.944 77.8135 171C78.0097 171.054 78.1619 171.178 78.27 171.371C78.3797 171.562 78.4346 171.828 78.4346 172.169V174.689L77.8459 174.846V172.368C77.8459 172.053 77.767 171.83 77.609 171.7C77.4527 171.568 77.2357 171.54 76.958 171.614C76.7651 171.666 76.5922 171.754 76.4392 171.879C76.2879 172.004 76.1682 172.16 76.08 172.345C75.9936 172.53 75.9503 172.738 75.9503 172.968ZM79.1603 174.494V170.528L79.729 170.376V170.975L79.7689 170.964C79.8387 170.749 79.9651 170.556 80.148 170.385C80.3309 170.214 80.5371 170.097 80.7665 170.036C80.8098 170.024 80.8638 170.01 80.9287 169.995C80.9935 169.979 81.0426 169.969 81.0758 169.963V170.583C81.0559 170.583 81.0101 170.588 80.9386 170.596C80.8688 170.603 80.7948 170.617 80.7167 170.638C80.5304 170.688 80.3641 170.773 80.2178 170.893C80.0732 171.011 79.9584 171.152 79.8736 171.316C79.7905 171.477 79.7489 171.648 79.7489 171.827V174.337L79.1603 174.494ZM84.1361 170.083L83.6073 170.38C83.5741 170.297 83.525 170.222 83.4602 170.153C83.397 170.082 83.3105 170.033 83.2008 170.006C83.091 169.978 82.9505 169.988 82.7793 170.033C82.5448 170.096 82.3494 170.205 82.1931 170.358C82.0385 170.51 81.9612 170.671 81.9612 170.841C81.9612 170.993 82.0144 171.098 82.1208 171.158C82.2272 171.217 82.3935 171.245 82.6196 171.243L83.1883 171.236C83.5308 171.23 83.7861 171.293 83.954 171.426C84.122 171.556 84.2059 171.76 84.2059 172.037C84.2059 172.264 84.1428 172.484 84.0164 172.697C83.8917 172.91 83.7171 173.098 83.4926 173.261C83.2681 173.425 83.0071 173.546 82.7094 173.626C82.3187 173.731 81.9952 173.73 81.7392 173.623C81.4831 173.516 81.321 173.303 81.2528 172.983L81.8115 172.689C81.8647 172.888 81.9653 173.021 82.1133 173.088C82.263 173.155 82.4583 173.156 82.6994 173.092C82.9738 173.018 83.1916 172.899 83.3529 172.736C83.5159 172.57 83.5974 172.402 83.5974 172.231C83.5974 172.093 83.5508 171.991 83.4577 171.923C83.3646 171.853 83.2216 171.821 83.0287 171.826L82.3902 171.842C82.0393 171.85 81.7816 171.786 81.6169 171.649C81.454 171.51 81.3725 171.304 81.3725 171.03C81.3725 170.806 81.4332 170.592 81.5546 170.387C81.6776 170.182 81.8448 170.002 82.0559 169.848C82.2688 169.693 82.5099 169.579 82.7793 169.507C83.1584 169.405 83.456 169.411 83.6722 169.526C83.89 169.639 84.0447 169.825 84.1361 170.083Z" fill="#2D2D2D"/>
<path d="M65.6471 203.482V202.955L67.8919 198.677L68.261 198.578V199.394L68.0116 199.461L66.3155 202.694V202.735L69.3385 201.925V202.493L65.6471 203.482ZM68.0515 203.922V202.678V202.433V198.634L68.6402 198.476V203.765L68.0515 203.922ZM71.5882 203.047C71.2124 203.148 70.8923 203.128 70.6279 202.987C70.3635 202.844 70.1615 202.589 70.0218 202.222C69.8821 201.853 69.8123 201.381 69.8123 200.807C69.8123 200.235 69.8821 199.728 70.0218 199.286C70.1632 198.842 70.366 198.478 70.6304 198.194C70.8965 197.907 71.2157 197.714 71.5882 197.614C71.9607 197.514 72.2791 197.537 72.5435 197.681C72.8095 197.823 73.0124 198.079 73.1521 198.448C73.2934 198.814 73.3641 199.283 73.3641 199.855C73.3641 200.43 73.2942 200.939 73.1546 201.383C73.0149 201.825 72.8129 202.188 72.5485 202.472C72.2841 202.755 71.964 202.946 71.5882 203.047ZM71.5882 202.479C71.9607 202.379 72.25 202.116 72.4562 201.689C72.6624 201.262 72.7655 200.704 72.7655 200.015C72.7655 199.557 72.7181 199.18 72.6233 198.884C72.5302 198.587 72.3955 198.377 72.2192 198.256C72.0446 198.134 71.8343 198.106 71.5882 198.172C71.219 198.271 70.9306 198.537 70.7227 198.969C70.5148 199.4 70.4109 199.959 70.4109 200.646C70.4109 201.104 70.4575 201.481 70.5506 201.776C70.6437 202.071 70.7776 202.279 70.9522 202.399C71.1284 202.519 71.3404 202.545 71.5882 202.479ZM76.1835 199.358V201.744L75.5949 201.901V196.613L76.1835 196.455V198.397L76.2334 198.384C76.3232 198.155 76.4579 197.956 76.6375 197.787C76.8187 197.617 77.0598 197.491 77.3608 197.41C77.6219 197.34 77.8505 197.333 78.0467 197.389C78.2429 197.443 78.3951 197.567 78.5032 197.76C78.6129 197.951 78.6678 198.217 78.6678 198.558V201.078L78.0791 201.236V198.757C78.0791 198.442 78.0002 198.219 77.8422 198.089C77.6859 197.957 77.4689 197.929 77.1912 198.003C76.9983 198.055 76.8254 198.143 76.6724 198.269C76.5211 198.393 76.4014 198.549 76.3132 198.734C76.2268 198.919 76.1835 199.127 76.1835 199.358ZM79.3935 200.883V196.917L79.9622 196.765V197.364L80.0021 197.353C80.0719 197.138 80.1983 196.945 80.3812 196.774C80.5641 196.603 80.7703 196.486 80.9998 196.425C81.043 196.413 81.097 196.4 81.1619 196.384C81.2267 196.368 81.2758 196.358 81.309 196.352V196.972C81.2891 196.972 81.2434 196.977 81.1719 196.985C81.102 196.992 81.028 197.006 80.9499 197.027C80.7636 197.077 80.5974 197.162 80.451 197.282C80.3064 197.4 80.1916 197.541 80.1068 197.705C80.0237 197.866 79.9821 198.037 79.9821 198.216V200.726L79.3935 200.883ZM84.3693 196.472L83.8405 196.769C83.8073 196.686 83.7582 196.611 83.6934 196.542C83.6302 196.471 83.5437 196.422 83.434 196.395C83.3242 196.367 83.1837 196.377 83.0125 196.423C82.778 196.485 82.5826 196.594 82.4263 196.747C82.2717 196.899 82.1944 197.06 82.1944 197.231C82.1944 197.382 82.2476 197.487 82.354 197.547C82.4604 197.606 82.6267 197.635 82.8528 197.633L83.4215 197.625C83.7641 197.619 84.0193 197.682 84.1872 197.815C84.3552 197.945 84.4392 198.149 84.4392 198.426C84.4392 198.653 84.376 198.874 84.2496 199.086C84.1249 199.299 83.9503 199.487 83.7258 199.65C83.5013 199.814 83.2403 199.935 82.9426 200.015C82.5519 200.12 82.2284 200.119 81.9724 200.012C81.7163 199.905 81.5542 199.692 81.486 199.372L82.0447 199.078C82.0979 199.277 82.1985 199.411 82.3465 199.478C82.4962 199.544 82.6915 199.545 82.9327 199.481C83.207 199.407 83.4248 199.289 83.5861 199.125C83.7491 198.959 83.8306 198.791 83.8306 198.62C83.8306 198.483 83.784 198.38 83.6909 198.312C83.5978 198.242 83.4548 198.21 83.2619 198.215L82.6234 198.231C82.2725 198.239 82.0148 198.175 81.8502 198.038C81.6872 197.899 81.6057 197.693 81.6057 197.419C81.6057 197.195 81.6664 196.981 81.7878 196.777C81.9109 196.571 82.078 196.392 82.2891 196.237C82.502 196.082 82.7431 195.968 83.0125 195.896C83.3916 195.794 83.6892 195.801 83.9054 195.915C84.1232 196.029 84.2779 196.214 84.3693 196.472Z" fill="#2D2D2D"/>
<path d="M67.4928 230.596C67.1636 230.684 66.8701 230.704 66.6124 230.656C66.3563 230.608 66.1526 230.5 66.0013 230.332C65.8516 230.162 65.7701 229.94 65.7568 229.667L66.3854 229.498C66.3987 229.665 66.4552 229.797 66.555 229.895C66.6548 229.99 66.7853 230.05 66.9466 230.074C67.1079 230.098 67.2866 230.083 67.4828 230.031C67.7023 229.972 67.8969 229.88 68.0665 229.755C68.2361 229.631 68.3691 229.485 68.4656 229.318C68.562 229.151 68.6102 228.975 68.6102 228.789C68.6102 228.594 68.5637 228.435 68.4705 228.312C68.3774 228.187 68.2411 228.107 68.0615 228.071C67.8819 228.034 67.6624 228.051 67.403 228.121L66.994 228.23V227.662L67.403 227.552C67.6059 227.498 67.7838 227.413 67.9368 227.296C68.0914 227.179 68.212 227.04 68.2984 226.879C68.3866 226.717 68.4306 226.544 68.4306 226.358C68.4306 226.179 68.3924 226.033 68.3159 225.921C68.2394 225.809 68.1313 225.735 67.9917 225.698C67.8536 225.661 67.6907 225.668 67.5028 225.718C67.3265 225.765 67.1602 225.844 67.0039 225.953C66.8493 226.059 66.7229 226.189 66.6248 226.341C66.5267 226.491 66.4735 226.655 66.4652 226.833L65.8666 226.993C65.8766 226.713 65.9572 226.449 66.1085 226.2C66.2598 225.95 66.4577 225.733 66.7021 225.551C66.9482 225.368 67.2184 225.237 67.5128 225.158C67.8287 225.073 68.0997 225.067 68.3259 225.139C68.552 225.209 68.7258 225.335 68.8472 225.518C68.9686 225.701 69.0293 225.917 69.0293 226.166C69.0293 226.464 68.9536 226.738 68.8023 226.989C68.6526 227.239 68.4489 227.439 68.1912 227.589V227.63C68.5138 227.599 68.7657 227.674 68.9469 227.854C69.1282 228.033 69.2188 228.29 69.2188 228.626C69.2188 228.913 69.1432 229.192 68.9918 229.461C68.8422 229.728 68.6377 229.962 68.3783 230.163C68.1189 230.363 67.8237 230.507 67.4928 230.596ZM71.5539 229.508C71.1781 229.609 70.858 229.588 70.5936 229.448C70.3292 229.305 70.1272 229.05 69.9875 228.683C69.8479 228.314 69.778 227.842 69.778 227.267C69.778 226.696 69.8479 226.189 69.9875 225.747C70.1289 225.303 70.3317 224.939 70.5961 224.654C70.8622 224.368 71.1814 224.175 71.5539 224.075C71.9264 223.975 72.2448 223.997 72.5092 224.142C72.7752 224.284 72.9781 224.539 73.1178 224.908C73.2591 225.275 73.3298 225.744 73.3298 226.316C73.3298 226.891 73.2599 227.4 73.1203 227.844C72.9806 228.286 72.7786 228.649 72.5142 228.933C72.2498 229.216 71.9297 229.407 71.5539 229.508ZM71.5539 228.94C71.9264 228.84 72.2157 228.577 72.4219 228.149C72.6281 227.722 72.7312 227.165 72.7312 226.476C72.7312 226.018 72.6838 225.641 72.589 225.344C72.4959 225.047 72.3612 224.838 72.1849 224.717C72.0103 224.595 71.8 224.567 71.5539 224.633C71.1848 224.732 70.8963 224.997 70.6884 225.43C70.4806 225.861 70.3766 226.42 70.3766 227.107C70.3766 227.565 70.4232 227.941 70.5163 228.237C70.6094 228.532 70.7433 228.74 70.9179 228.86C71.0941 228.98 71.3061 229.006 71.5539 228.94ZM76.1492 225.818V228.204L75.5606 228.362V223.074L76.1492 222.916V224.858L76.1991 224.844C76.2889 224.615 76.4236 224.417 76.6032 224.248C76.7844 224.077 77.0255 223.952 77.3265 223.871C77.5876 223.801 77.8162 223.794 78.0124 223.85C78.2086 223.904 78.3608 224.028 78.4689 224.221C78.5786 224.412 78.6335 224.678 78.6335 225.018V227.539L78.0449 227.696V225.217C78.0449 224.902 77.9659 224.68 77.8079 224.55C77.6516 224.418 77.4346 224.389 77.1569 224.464C76.964 224.515 76.7911 224.604 76.6381 224.729C76.4868 224.854 76.3671 225.009 76.2789 225.195C76.1925 225.38 76.1492 225.588 76.1492 225.818ZM79.3592 227.344V223.378L79.9279 223.226V223.825L79.9678 223.814C80.0376 223.599 80.164 223.406 80.3469 223.235C80.5298 223.063 80.736 222.947 80.9655 222.886C81.0087 222.874 81.0627 222.86 81.1276 222.845C81.1924 222.829 81.2415 222.818 81.2747 222.813V223.433C81.2548 223.433 81.2091 223.437 81.1376 223.446C81.0677 223.453 80.9937 223.467 80.9156 223.488C80.7293 223.538 80.5631 223.623 80.4167 223.743C80.2721 223.861 80.1573 224.002 80.0725 224.165C79.9894 224.327 79.9478 224.498 79.9478 224.677V227.186L79.3592 227.344ZM84.335 222.933L83.8063 223.23C83.773 223.147 83.7239 223.072 83.6591 223.003C83.5959 222.932 83.5094 222.883 83.3997 222.856C83.2899 222.828 83.1494 222.837 82.9782 222.883C82.7437 222.946 82.5483 223.054 82.392 223.208C82.2374 223.36 82.1601 223.521 82.1601 223.691C82.1601 223.843 82.2133 223.948 82.3197 224.007C82.4261 224.067 82.5924 224.095 82.8185 224.093L83.3872 224.085C83.7298 224.08 83.985 224.143 84.1529 224.275C84.3209 224.406 84.4049 224.61 84.4049 224.887C84.4049 225.114 84.3417 225.334 84.2153 225.547C84.0906 225.76 83.916 225.948 83.6915 226.111C83.467 226.274 83.206 226.396 82.9083 226.476C82.5176 226.581 82.1942 226.579 81.9381 226.472C81.682 226.365 81.5199 226.152 81.4517 225.833L82.0104 225.539C82.0636 225.738 82.1642 225.871 82.3122 225.938C82.4619 226.005 82.6572 226.006 82.8984 225.941C83.1727 225.868 83.3905 225.749 83.5518 225.586C83.7148 225.42 83.7963 225.251 83.7963 225.081C83.7963 224.943 83.7497 224.84 83.6566 224.772C83.5635 224.703 83.4205 224.67 83.2276 224.676L82.5891 224.692C82.2382 224.7 81.9805 224.635 81.8159 224.499C81.6529 224.36 81.5714 224.154 81.5714 223.88C81.5714 223.656 81.6321 223.442 81.7535 223.237C81.8766 223.032 82.0437 222.852 82.2548 222.698C82.4677 222.542 82.7088 222.429 82.9782 222.357C83.3573 222.255 83.6549 222.261 83.8711 222.376C84.0889 222.489 84.2436 222.675 84.335 222.933Z" fill="#2D2D2D"/>
<path d="M65.7668 257.438V256.973L67.4529 254.61C67.6508 254.334 67.8137 254.095 67.9418 253.896C68.0698 253.695 68.1646 253.512 68.2261 253.35C68.2893 253.185 68.3209 253.021 68.3209 252.859C68.3209 252.674 68.2777 252.524 68.1912 252.411C68.1064 252.298 67.99 252.224 67.842 252.19C67.694 252.156 67.5277 252.163 67.3432 252.213C67.1469 252.265 66.9757 252.353 66.8293 252.477C66.6847 252.598 66.5724 252.744 66.4926 252.916C66.4145 253.086 66.3754 253.272 66.3754 253.474L65.7868 253.631C65.7868 253.322 65.8558 253.031 65.9938 252.76C66.1318 252.489 66.3197 252.256 66.5575 252.062C66.7969 251.867 67.0655 251.729 67.3631 251.649C67.6624 251.569 67.9276 251.564 68.1588 251.632C68.3899 251.701 68.5711 251.829 68.7025 252.016C68.8339 252.203 68.8996 252.432 68.8996 252.704C68.8996 252.899 68.8655 253.098 68.7973 253.303C68.7308 253.505 68.6144 253.741 68.4481 254.013C68.2835 254.283 68.0548 254.62 67.7622 255.023L66.6148 256.601V256.642L68.9893 256.006V256.574L65.7668 257.438ZM71.3344 256.018C70.9586 256.119 70.6385 256.099 70.3741 255.958C70.1097 255.815 69.9077 255.56 69.768 255.193C69.6284 254.825 69.5585 254.353 69.5585 253.778C69.5585 253.206 69.6284 252.699 69.768 252.257C69.9094 251.813 70.1122 251.449 70.3766 251.165C70.6427 250.878 70.9619 250.685 71.3344 250.585C71.7069 250.486 72.0253 250.508 72.2897 250.652C72.5557 250.794 72.7586 251.05 72.8983 251.419C73.0396 251.785 73.1103 252.254 73.1103 252.826C73.1103 253.401 73.0405 253.91 72.9008 254.354C72.7611 254.796 72.5591 255.159 72.2947 255.443C72.0303 255.726 71.7102 255.918 71.3344 256.018ZM71.3344 255.45C71.7069 255.35 71.9962 255.087 72.2024 254.66C72.4086 254.233 72.5117 253.675 72.5117 252.986C72.5117 252.528 72.4643 252.151 72.3695 251.855C72.2764 251.558 72.1417 251.349 71.9654 251.227C71.7908 251.105 71.5805 251.077 71.3344 251.143C70.9653 251.242 70.6768 251.508 70.4689 251.94C70.2611 252.371 70.1571 252.93 70.1571 253.617C70.1571 254.075 70.2037 254.452 70.2968 254.747C70.3899 255.042 70.5238 255.25 70.6984 255.37C70.8746 255.49 71.0866 255.517 71.3344 255.45ZM75.9298 252.329V254.715L75.3411 254.872V249.584L75.9298 249.426V251.368L75.9796 251.355C76.0694 251.126 76.2041 250.927 76.3837 250.758C76.565 250.588 76.8061 250.462 77.107 250.381C77.3681 250.311 77.5967 250.304 77.7929 250.36C77.9891 250.414 78.1413 250.538 78.2494 250.731C78.3591 250.922 78.414 251.188 78.414 251.529V254.049L77.8254 254.207V251.728C77.8254 251.413 77.7464 251.19 77.5884 251.061C77.4321 250.929 77.2151 250.9 76.9374 250.974C76.7445 251.026 76.5716 251.114 76.4186 251.24C76.2673 251.365 76.1476 251.52 76.0595 251.705C75.973 251.89 75.9298 252.098 75.9298 252.329ZM79.1397 253.855V249.888L79.7084 249.736V250.335L79.7483 250.324C79.8181 250.109 79.9445 249.916 80.1274 249.745C80.3103 249.574 80.5165 249.457 80.746 249.396C80.7892 249.384 80.8432 249.371 80.9081 249.355C80.9729 249.339 81.022 249.329 81.0553 249.323V249.943C81.0353 249.943 80.9896 249.948 80.9181 249.957C80.8482 249.963 80.7742 249.977 80.6961 249.998C80.5098 250.048 80.3436 250.133 80.1972 250.253C80.0526 250.371 79.9378 250.512 79.853 250.676C79.7699 250.838 79.7283 251.008 79.7283 251.187V253.697L79.1397 253.855ZM84.1155 249.443L83.5868 249.74C83.5535 249.658 83.5045 249.582 83.4396 249.513C83.3764 249.443 83.2899 249.393 83.1802 249.366C83.0705 249.339 82.9299 249.348 82.7587 249.394C82.5242 249.457 82.3288 249.565 82.1725 249.719C82.0179 249.87 81.9406 250.031 81.9406 250.202C81.9406 250.353 81.9938 250.459 82.1002 250.518C82.2066 250.577 82.3729 250.606 82.599 250.604L83.1677 250.596C83.5103 250.59 83.7655 250.653 83.9335 250.786C84.1014 250.916 84.1854 251.12 84.1854 251.397C84.1854 251.625 84.1222 251.845 83.9958 252.058C83.8711 252.27 83.6965 252.458 83.472 252.621C83.2475 252.785 82.9865 252.906 82.6888 252.986C82.2981 253.091 81.9747 253.09 81.7186 252.983C81.4625 252.876 81.3004 252.663 81.2322 252.344L81.7909 252.049C81.8441 252.249 81.9447 252.382 82.0927 252.449C82.2424 252.515 82.4378 252.516 82.6789 252.452C82.9532 252.378 83.1711 252.26 83.3323 252.096C83.4953 251.93 83.5768 251.762 83.5768 251.591C83.5768 251.454 83.5302 251.351 83.4371 251.283C83.344 251.213 83.201 251.181 83.0081 251.186L82.3696 251.202C82.0187 251.21 81.761 251.146 81.5964 251.009C81.4334 250.87 81.3519 250.664 81.3519 250.39C81.3519 250.167 81.4126 249.952 81.534 249.748C81.6571 249.543 81.8242 249.363 82.0354 249.208C82.2482 249.053 82.4893 248.939 82.7587 248.867C83.1378 248.765 83.4354 248.772 83.6516 248.886C83.8694 249 84.0241 249.185 84.1155 249.443Z" fill="#2D2D2D"/>
<path d="M105.892 255.571L106.63 255.373L108.366 259.298L108.426 259.282L110.162 254.427L110.9 254.229V259.518L110.321 259.673V255.655L110.272 255.668L108.675 260.114L108.117 260.264L106.52 256.673L106.47 256.687V260.705L105.892 260.86V255.571ZM112.837 259.092C112.594 259.157 112.374 259.168 112.176 259.127C111.978 259.083 111.821 258.987 111.704 258.837C111.588 258.686 111.53 258.481 111.53 258.223C111.53 257.996 111.573 257.8 111.66 257.636C111.746 257.47 111.862 257.327 112.006 257.207C112.151 257.087 112.311 256.984 112.485 256.898C112.661 256.81 112.838 256.729 113.016 256.658C113.249 256.564 113.438 256.49 113.583 256.436C113.729 256.38 113.835 256.323 113.902 256.265C113.97 256.208 114.004 256.13 114.004 256.031V256.011C114.004 255.756 113.937 255.576 113.802 255.471C113.669 255.366 113.467 255.349 113.196 255.422C112.915 255.497 112.695 255.62 112.535 255.79C112.375 255.96 112.263 256.126 112.198 256.288L111.64 256.231C111.739 255.963 111.872 255.74 112.039 255.561C112.207 255.38 112.389 255.237 112.587 255.13C112.787 255.022 112.983 254.942 113.176 254.89C113.299 254.857 113.44 254.835 113.6 254.823C113.761 254.809 113.917 254.828 114.066 254.881C114.218 254.934 114.343 255.04 114.443 255.201C114.543 255.362 114.593 255.6 114.593 255.915V258.528L114.004 258.686V258.149L113.974 258.157C113.934 258.254 113.868 258.364 113.775 258.487C113.681 258.61 113.558 258.726 113.403 258.837C113.248 258.947 113.06 259.032 112.837 259.092ZM112.927 258.52C113.159 258.458 113.356 258.358 113.515 258.22C113.677 258.083 113.798 257.928 113.879 257.756C113.963 257.584 114.004 257.416 114.004 257.25V256.692C113.979 256.73 113.924 256.773 113.839 256.822C113.756 256.868 113.66 256.916 113.55 256.964C113.442 257.01 113.336 257.054 113.233 257.095C113.132 257.134 113.05 257.167 112.986 257.192C112.833 257.254 112.69 257.326 112.557 257.408C112.426 257.488 112.32 257.585 112.238 257.698C112.158 257.809 112.118 257.941 112.118 258.096C112.118 258.308 112.194 258.448 112.345 258.516C112.498 258.582 112.692 258.583 112.927 258.52ZM115.558 259.757C115.458 259.784 115.369 259.799 115.291 259.803C115.213 259.808 115.159 259.807 115.129 259.8L115.279 259.222C115.422 259.222 115.548 259.202 115.658 259.162C115.767 259.122 115.865 259.046 115.949 258.932C116.036 258.819 116.115 258.652 116.186 258.432L116.296 258.092L114.879 254.485L115.518 254.314L116.575 257.191L116.615 257.181L117.673 253.737L118.311 253.566L116.685 258.546C116.612 258.77 116.521 258.964 116.413 259.127C116.305 259.292 116.18 259.427 116.037 259.531C115.895 259.634 115.736 259.709 115.558 259.757Z" fill="#A3ADC8"/>
<path d="M147.882 244.32L148.501 244.154V247.935C148.501 248.272 148.441 248.575 148.321 248.843C148.202 249.11 148.033 249.335 147.815 249.515C147.597 249.696 147.34 249.826 147.044 249.905C146.765 249.98 146.516 249.994 146.299 249.947C146.081 249.899 145.909 249.793 145.785 249.631C145.66 249.468 145.598 249.251 145.598 248.981L146.206 248.818C146.206 248.968 146.242 249.089 146.314 249.182C146.387 249.272 146.486 249.332 146.613 249.36C146.739 249.388 146.883 249.38 147.044 249.337C147.222 249.289 147.374 249.21 147.498 249.099C147.623 248.988 147.718 248.849 147.783 248.682C147.849 248.513 147.882 248.319 147.882 248.1V244.32ZM151.724 246.957V244.613L152.313 244.455V248.421L151.724 248.579V247.908L151.684 247.918C151.594 248.144 151.455 248.352 151.265 248.544C151.075 248.735 150.836 248.868 150.547 248.946C150.307 249.01 150.094 249.013 149.908 248.954C149.722 248.894 149.576 248.768 149.469 248.576C149.363 248.383 149.31 248.117 149.31 247.78V245.26L149.898 245.102V247.581C149.898 247.87 149.976 248.08 150.133 248.21C150.291 248.34 150.492 248.372 150.736 248.306C150.883 248.267 151.031 248.189 151.183 248.071C151.336 247.952 151.464 247.799 151.567 247.611C151.672 247.423 151.724 247.205 151.724 246.957ZM153.628 245.683V248.069L153.04 248.226V244.26L153.608 244.108V244.727L153.658 244.714C153.748 244.489 153.884 244.29 154.067 244.119C154.25 243.946 154.486 243.821 154.776 243.743C155.035 243.674 155.262 243.668 155.456 243.726C155.651 243.782 155.802 243.907 155.91 244.1C156.018 244.292 156.073 244.556 156.073 244.893V247.414L155.484 247.571V245.093C155.484 244.781 155.406 244.559 155.249 244.427C155.093 244.293 154.879 244.263 154.606 244.336C154.418 244.387 154.25 244.474 154.102 244.598C153.956 244.721 153.84 244.875 153.755 245.06C153.671 245.244 153.628 245.452 153.628 245.683Z" fill="#A3ADC8"/>
<path d="M187.215 233.781L187.834 233.615V237.395C187.834 237.733 187.774 238.035 187.654 238.303C187.535 238.571 187.366 238.795 187.148 238.976C186.93 239.157 186.673 239.287 186.377 239.366C186.098 239.441 185.849 239.455 185.632 239.408C185.414 239.36 185.242 239.254 185.118 239.091C184.993 238.929 184.931 238.712 184.931 238.442L185.539 238.279C185.539 238.429 185.575 238.55 185.647 238.642C185.72 238.733 185.819 238.792 185.946 238.821C186.072 238.849 186.216 238.841 186.377 238.798C186.555 238.75 186.707 238.671 186.831 238.56C186.956 238.449 187.051 238.31 187.116 238.143C187.182 237.974 187.215 237.78 187.215 237.561V233.781ZM191.057 236.418V234.073L191.646 233.916V237.882L191.057 238.04V237.368L191.017 237.379C190.927 237.605 190.788 237.813 190.598 238.005C190.408 238.195 190.169 238.329 189.88 238.407C189.64 238.471 189.427 238.474 189.241 238.415C189.055 238.355 188.909 238.229 188.802 238.037C188.696 237.844 188.643 237.578 188.643 237.241V234.72L189.231 234.563V237.042C189.231 237.331 189.309 237.541 189.466 237.671C189.624 237.801 189.825 237.833 190.069 237.767C190.216 237.728 190.364 237.649 190.516 237.531C190.669 237.413 190.797 237.26 190.9 237.072C191.005 236.884 191.057 236.666 191.057 236.418ZM192.961 232.241V237.529L192.373 237.687V232.399L192.961 232.241Z" fill="#A3ADC8"/>
<path d="M221.622 229.85L220.634 230.114L222.433 224.344L223.575 224.038L225.376 228.844L224.388 229.109L223.024 225.27L222.984 225.281L221.622 229.85ZM221.654 227.768L224.348 227.046V227.815L221.654 228.537V227.768ZM228.099 226.446V224.148L229.002 223.906V227.872L228.127 228.107V227.402L228.087 227.413C228 227.658 227.858 227.878 227.66 228.072C227.464 228.265 227.222 228.401 226.935 228.478C226.683 228.545 226.461 228.547 226.269 228.483C226.077 228.418 225.928 228.288 225.82 228.095C225.712 227.9 225.657 227.644 225.657 227.328V224.802L226.56 224.56V226.941C226.56 227.192 226.627 227.374 226.76 227.487C226.893 227.599 227.068 227.626 227.284 227.568C227.417 227.533 227.546 227.465 227.67 227.364C227.795 227.264 227.897 227.136 227.977 226.982C228.059 226.826 228.099 226.648 228.099 226.446ZM231.246 228.841C230.921 228.928 230.643 228.957 230.41 228.928C230.177 228.901 229.99 228.831 229.849 228.717C229.708 228.603 229.609 228.462 229.555 228.292L230.368 227.87C230.404 227.938 230.457 228.001 230.527 228.058C230.597 228.116 230.691 228.155 230.809 228.173C230.929 228.193 231.079 228.178 231.261 228.13C231.517 228.061 231.729 227.94 231.897 227.766C232.065 227.593 232.149 227.361 232.149 227.068V226.317L232.104 226.329C232.057 226.437 231.989 226.555 231.899 226.68C231.811 226.805 231.694 226.922 231.547 227.03C231.403 227.138 231.221 227.221 231.001 227.28C230.707 227.359 230.44 227.359 230.201 227.28C229.963 227.199 229.773 227.035 229.632 226.787C229.492 226.537 229.422 226.196 229.422 225.764C229.422 225.328 229.492 224.942 229.632 224.605C229.773 224.266 229.964 223.987 230.203 223.768C230.443 223.547 230.709 223.397 231.004 223.318C231.228 223.258 231.413 223.248 231.557 223.288C231.704 223.327 231.82 223.389 231.907 223.476C231.993 223.562 232.059 223.646 232.104 223.731L232.154 223.717V223.062L233.044 222.823V226.854C233.044 227.193 232.966 227.495 232.81 227.758C232.653 228.022 232.44 228.246 232.169 228.429C231.897 228.611 231.59 228.749 231.246 228.841ZM231.253 226.479C231.444 226.428 231.607 226.336 231.742 226.203C231.877 226.071 231.979 225.905 232.049 225.705C232.119 225.506 232.154 225.28 232.154 225.027C232.154 224.777 232.119 224.568 232.049 224.399C231.981 224.229 231.879 224.111 231.745 224.044C231.611 223.975 231.448 223.966 231.253 224.018C231.052 224.072 230.884 224.171 230.749 224.316C230.615 224.46 230.513 224.636 230.445 224.844C230.377 225.05 230.343 225.273 230.343 225.512C230.343 225.755 230.377 225.958 230.445 226.122C230.515 226.284 230.617 226.398 230.752 226.464C230.888 226.527 231.055 226.532 231.253 226.479Z" fill="#2D2D2D"/>
<path d="M263.207 214.741C263.177 214.487 263.056 214.317 262.843 214.229C262.63 214.141 262.369 214.139 262.06 214.222C261.834 214.283 261.636 214.373 261.466 214.495C261.298 214.615 261.167 214.755 261.072 214.913C260.979 215.07 260.933 215.233 260.933 215.402C260.933 215.543 260.965 215.656 261.03 215.74C261.096 215.822 261.181 215.883 261.284 215.922C261.387 215.96 261.495 215.985 261.608 215.998C261.722 216.009 261.825 216.015 261.92 216.015L262.439 216.021C262.572 216.021 262.72 216.032 262.883 216.052C263.048 216.071 263.205 216.116 263.354 216.186C263.506 216.254 263.63 216.36 263.729 216.504C263.827 216.648 263.876 216.844 263.876 217.092C263.876 217.378 263.803 217.656 263.659 217.925C263.516 218.194 263.306 218.434 263.03 218.644C262.756 218.853 262.422 219.01 262.03 219.116C261.664 219.214 261.347 219.237 261.08 219.187C260.814 219.136 260.604 219.022 260.451 218.844C260.3 218.666 260.214 218.435 260.194 218.151L260.833 217.98C260.849 218.175 260.914 218.323 261.027 218.424C261.142 218.522 261.287 218.58 261.461 218.597C261.638 218.611 261.827 218.591 262.03 218.537C262.266 218.474 262.478 218.377 262.666 218.248C262.854 218.117 263.003 217.965 263.112 217.793C263.222 217.619 263.277 217.435 263.277 217.242C263.277 217.067 263.23 216.937 263.135 216.852C263.04 216.767 262.915 216.711 262.761 216.684C262.606 216.656 262.439 216.641 262.259 216.637L261.631 216.62C261.232 216.608 260.916 216.523 260.683 216.365C260.45 216.207 260.334 215.95 260.334 215.593C260.334 215.297 260.411 215.018 260.566 214.757C260.722 214.493 260.932 214.264 261.194 214.072C261.459 213.877 261.754 213.736 262.08 213.649C262.409 213.56 262.702 213.543 262.958 213.597C263.214 213.648 263.417 213.759 263.566 213.929C263.718 214.099 263.798 214.316 263.806 214.58L263.207 214.741ZM266.068 218.023C265.699 218.122 265.38 218.123 265.113 218.026C264.847 217.927 264.641 217.744 264.497 217.478C264.354 217.21 264.282 216.873 264.282 216.467C264.282 216.061 264.354 215.683 264.497 215.335C264.641 214.985 264.843 214.688 265.1 214.445C265.36 214.2 265.662 214.031 266.008 213.939C266.208 213.885 266.405 213.867 266.599 213.884C266.794 213.9 266.971 213.965 267.131 214.077C267.29 214.187 267.417 214.356 267.512 214.584C267.607 214.812 267.654 215.111 267.654 215.481V215.739L264.701 216.53V216.003L267.056 215.373C267.056 215.149 267.012 214.961 266.926 214.808C266.841 214.655 266.72 214.549 266.562 214.49C266.406 214.43 266.221 214.429 266.008 214.486C265.774 214.549 265.571 214.664 265.4 214.83C265.23 214.994 265.099 215.184 265.008 215.4C264.917 215.615 264.871 215.832 264.871 216.051V216.402C264.871 216.702 264.921 216.942 265.02 217.124C265.122 217.303 265.262 217.423 265.442 217.483C265.622 217.542 265.83 217.539 266.068 217.476C266.223 217.434 266.362 217.375 266.487 217.296C266.613 217.216 266.722 217.118 266.814 217.002C266.905 216.885 266.976 216.75 267.026 216.599L267.594 216.612C267.535 216.828 267.434 217.031 267.293 217.22C267.151 217.408 266.977 217.571 266.769 217.711C266.561 217.85 266.327 217.954 266.068 218.023ZM268.199 218.857V213.403L268.767 213.251V213.881L268.837 213.862C268.88 213.782 268.94 213.678 269.017 213.551C269.095 213.421 269.206 213.295 269.351 213.172C269.497 213.047 269.695 212.951 269.945 212.884C270.267 212.798 270.551 212.805 270.798 212.906C271.044 213.007 271.236 213.192 271.374 213.462C271.512 213.731 271.581 214.074 271.581 214.491C271.581 214.911 271.512 215.293 271.374 215.638C271.236 215.982 271.044 216.271 270.8 216.505C270.556 216.737 270.274 216.896 269.954 216.982C269.708 217.048 269.511 217.058 269.363 217.014C269.215 216.967 269.101 216.901 269.022 216.813C268.942 216.725 268.88 216.65 268.837 216.589L268.787 216.603V218.699L268.199 218.857ZM268.777 215.231C268.777 215.531 268.82 215.784 268.904 215.99C268.989 216.195 269.113 216.34 269.276 216.425C269.439 216.509 269.639 216.519 269.875 216.456C270.121 216.39 270.326 216.268 270.491 216.089C270.657 215.909 270.782 215.693 270.865 215.442C270.95 215.188 270.992 214.92 270.992 214.638C270.992 214.359 270.951 214.119 270.867 213.917C270.786 213.714 270.662 213.569 270.496 213.483C270.331 213.394 270.124 213.383 269.875 213.45C269.635 213.514 269.434 213.631 269.271 213.8C269.108 213.968 268.985 214.175 268.902 214.421C268.819 214.665 268.777 214.935 268.777 215.231ZM273.794 211.904V212.421L271.808 212.953V212.436L273.794 211.904ZM272.387 211.331L272.975 211.173V214.954C272.975 215.126 273 215.248 273.048 215.321C273.098 215.392 273.161 215.432 273.237 215.441C273.316 215.448 273.398 215.439 273.484 215.416C273.549 215.399 273.602 215.381 273.644 215.363C273.686 215.343 273.719 215.328 273.744 215.316L273.863 215.831C273.824 215.857 273.768 215.888 273.696 215.922C273.625 215.959 273.534 215.992 273.424 216.021C273.258 216.066 273.095 216.072 272.936 216.041C272.778 216.009 272.646 215.932 272.541 215.808C272.438 215.684 272.387 215.507 272.387 215.277V211.331Z" fill="#A3ADC8"/>
<rect width="26.8172" height="11.6344" transform="matrix(0.965926 -0.258819 0 1 213.438 129.786)" fill="white"/>
<path d="M216.61 136.272V135.511L218.777 131.384L219.391 131.22V132.305L219.017 132.405L217.558 135.189V135.231L220.583 134.42V135.208L216.61 136.272ZM219.047 136.601V135.387L219.057 135.043V131.31L219.93 131.076V136.364L219.047 136.601ZM222.899 135.641C222.655 135.704 222.416 135.724 222.184 135.701C221.951 135.675 221.741 135.589 221.555 135.443C221.369 135.295 221.221 135.072 221.111 134.774C221.001 134.475 220.947 134.082 220.949 133.596C220.949 133.144 220.995 132.728 221.089 132.348C221.182 131.968 221.316 131.633 221.49 131.342C221.665 131.049 221.875 130.805 222.121 130.61C222.369 130.414 222.646 130.276 222.952 130.194C223.273 130.108 223.557 130.097 223.805 130.161C224.054 130.225 224.255 130.35 224.408 130.537C224.561 130.721 224.656 130.95 224.693 131.225L223.782 131.469C223.736 131.278 223.64 131.142 223.495 131.06C223.352 130.976 223.171 130.964 222.952 131.022C222.598 131.117 222.325 131.35 222.134 131.719C221.944 132.089 221.848 132.551 221.847 133.108L221.882 133.099C221.963 132.925 222.069 132.767 222.199 132.624C222.328 132.481 222.475 132.358 222.637 132.256C222.802 132.151 222.976 132.075 223.159 132.026C223.458 131.945 223.727 131.948 223.964 132.032C224.204 132.116 224.393 132.269 224.533 132.491C224.673 132.712 224.742 132.99 224.74 133.324C224.742 133.672 224.665 134.004 224.511 134.323C224.356 134.64 224.141 134.915 223.865 135.147C223.589 135.379 223.267 135.544 222.899 135.641ZM222.894 134.867C223.076 134.819 223.238 134.73 223.381 134.6C223.524 134.47 223.637 134.317 223.72 134.14C223.803 133.963 223.844 133.778 223.842 133.586C223.844 133.396 223.804 133.235 223.722 133.104C223.643 132.972 223.532 132.88 223.391 132.829C223.249 132.777 223.088 132.775 222.907 132.824C222.772 132.86 222.647 132.92 222.53 133.005C222.414 133.089 222.312 133.191 222.226 133.308C222.139 133.425 222.071 133.551 222.021 133.689C221.973 133.824 221.948 133.961 221.947 134.101C221.948 134.285 221.99 134.443 222.071 134.576C222.153 134.71 222.265 134.803 222.408 134.858C222.551 134.913 222.713 134.916 222.894 134.867ZM227.536 132.002V134.326L226.633 134.568V129.279L227.516 129.043V131.039L227.561 131.027C227.651 130.779 227.789 130.565 227.977 130.386C228.167 130.204 228.408 130.074 228.701 129.996C228.967 129.925 229.199 129.92 229.397 129.982C229.594 130.045 229.747 130.172 229.856 130.366C229.965 130.558 230.02 130.815 230.02 131.135V133.66L229.117 133.902V131.521C229.117 131.255 229.051 131.065 228.918 130.953C228.786 130.838 228.602 130.813 228.364 130.876C228.204 130.919 228.061 130.993 227.935 131.1C227.81 131.204 227.712 131.332 227.641 131.486C227.571 131.639 227.536 131.811 227.536 132.002ZM230.589 133.508V129.541L231.465 129.307V129.968L231.505 129.957C231.575 129.71 231.694 129.501 231.864 129.332C232.035 129.16 232.231 129.045 232.45 128.986C232.5 128.973 232.556 128.96 232.617 128.949C232.68 128.936 232.733 128.928 232.774 128.925V129.785C232.736 129.781 232.675 129.786 232.592 129.798C232.511 129.807 232.432 129.822 232.355 129.843C232.191 129.887 232.043 129.964 231.911 130.073C231.782 130.18 231.679 130.308 231.604 130.457C231.53 130.606 231.492 130.765 231.492 130.934V133.266L230.589 133.508ZM236.051 129.126L235.228 129.44C235.205 129.36 235.164 129.29 235.106 129.23C235.049 129.169 234.973 129.129 234.876 129.108C234.78 129.087 234.662 129.096 234.522 129.133C234.334 129.184 234.176 129.268 234.048 129.387C233.922 129.505 233.859 129.631 233.861 129.765C233.859 129.881 233.9 129.964 233.983 130.014C234.068 130.063 234.208 130.085 234.402 130.079L235.056 130.049C235.418 130.033 235.688 130.089 235.864 130.217C236.042 130.345 236.132 130.551 236.133 130.834C236.132 131.084 236.061 131.324 235.921 131.552C235.783 131.779 235.591 131.978 235.345 132.151C235.099 132.323 234.816 132.453 234.497 132.538C234.028 132.664 233.651 132.663 233.365 132.537C233.079 132.409 232.908 132.169 232.853 131.819L233.734 131.495C233.774 131.664 233.858 131.776 233.988 131.833C234.118 131.889 234.287 131.89 234.495 131.834C234.709 131.776 234.881 131.685 235.011 131.559C235.142 131.432 235.208 131.302 235.208 131.168C235.208 131.054 235.165 130.971 235.081 130.92C234.998 130.868 234.868 130.846 234.692 130.854L234.038 130.887C233.671 130.906 233.399 130.846 233.222 130.705C233.046 130.563 232.959 130.347 232.961 130.058C232.959 129.814 233.023 129.585 233.153 129.371C233.284 129.155 233.466 128.967 233.699 128.806C233.933 128.644 234.204 128.521 234.509 128.439C234.958 128.319 235.312 128.323 235.57 128.452C235.829 128.581 235.989 128.805 236.051 129.126Z" fill="black"/>
<path d="M203.605 164.415L91.928 194.339V248.875L288.592 196.179V141.643L251.015 151.712L227.135 140.659L203.605 164.415Z" fill="url(#paint0_linear_8117_16676)"/>
<circle cx="2.9086" cy="2.9086" r="2.9086" transform="matrix(0.965926 -0.258819 0 1 108.785 186.914)" fill="#9B8AFB"/>
<circle cx="1.4543" cy="1.4543" r="1.4543" transform="matrix(0.965926 -0.258819 0 1 110.19 187.992)" fill="#ECE4FF"/>
<circle cx="2.9086" cy="2.9086" r="2.9086" transform="matrix(0.965926 -0.258819 0 1 145.308 177.127)" fill="#9B8AFB"/>
<circle cx="1.4543" cy="1.4543" r="1.4543" transform="matrix(0.965926 -0.258819 0 1 146.713 178.205)" fill="#ECE4FF"/>
<circle cx="2.9086" cy="2.9086" r="2.9086" transform="matrix(0.965926 -0.258819 0 1 186.046 166.212)" fill="#9B8AFB"/>
<circle cx="1.4543" cy="1.4543" r="1.4543" transform="matrix(0.965926 -0.258819 0 1 187.451 167.29)" fill="#ECE4FF"/>
<circle cx="2.9086" cy="2.9086" r="2.9086" transform="matrix(0.965926 -0.258819 0 1 223.974 139.325)" fill="#9B8AFB"/>
<circle cx="1.4543" cy="1.4543" r="1.4543" transform="matrix(0.965926 -0.258819 0 1 225.379 140.402)" fill="#ECE4FF"/>
<circle cx="2.9086" cy="2.9086" r="2.9086" transform="matrix(0.965926 -0.258819 0 1 264.009 145.322)" fill="#9B8AFB"/>
<circle cx="1.4543" cy="1.4543" r="1.4543" transform="matrix(0.965926 -0.258819 0 1 265.414 146.4)" fill="#ECE4FF"/>
</g>
<defs>
<filter id="filter0_dddd_8117_16676" x="-166.375" y="-0.455052" width="495.898" height="513.495" filterUnits="userSpaceOnUse" color-interpolation-filters="sRGB">
<feFlood flood-opacity="0" result="BackgroundImageFix"/>
<feColorMatrix in="SourceAlpha" type="matrix" values="0 0 0 0 0 0 0 0 0 0 0 0 0 0 0 0 0 0 127 0" result="hardAlpha"/>
<feOffset dx="-8.68473" dy="8.68473"/>
<feGaussianBlur stdDeviation="13.5699"/>
<feColorMatrix type="matrix" values="0 0 0 0 0.760784 0 0 0 0 0.831373 0 0 0 0 1 0 0 0 0.1 0"/>
<feBlend mode="normal" in2="BackgroundImageFix" result="effect1_dropShadow_8117_16676"/>
<feColorMatrix in="SourceAlpha" type="matrix" values="0 0 0 0 0 0 0 0 0 0 0 0 0 0 0 0 0 0 127 0" result="hardAlpha"/>
<feOffset dx="-34.7389" dy="34.7389"/>
<feGaussianBlur stdDeviation="24.9686"/>
<feColorMatrix type="matrix" values="0 0 0 0 0.760784 0 0 0 0 0.831373 0 0 0 0 1 0 0 0 0.09 0"/>
<feBlend mode="normal" in2="effect1_dropShadow_8117_16676" result="effect2_dropShadow_8117_16676"/>
<feColorMatrix in="SourceAlpha" type="matrix" values="0 0 0 0 0 0 0 0 0 0 0 0 0 0 0 0 0 0 127 0" result="hardAlpha"/>
<feOffset dx="-79.2482" dy="79.2482"/>
<feGaussianBlur stdDeviation="33.6533"/>
<feColorMatrix type="matrix" values="0 0 0 0 0.760784 0 0 0 0 0.831373 0 0 0 0 1 0 0 0 0.05 0"/>
<feBlend mode="normal" in2="effect2_dropShadow_8117_16676" result="effect3_dropShadow_8117_16676"/>
<feColorMatrix in="SourceAlpha" type="matrix" values="0 0 0 0 0 0 0 0 0 0 0 0 0 0 0 0 0 0 127 0" result="hardAlpha"/>
<feOffset dx="-141.127" dy="141.127"/>
<feGaussianBlur stdDeviation="39.6241"/>
<feColorMatrix type="matrix" values="0 0 0 0 0.760784 0 0 0 0 0.831373 0 0 0 0 1 0 0 0 0.01 0"/>
<feBlend mode="normal" in2="effect3_dropShadow_8117_16676" result="effect4_dropShadow_8117_16676"/>
<feBlend mode="normal" in="SourceGraphic" in2="effect4_dropShadow_8117_16676" result="shape"/>
</filter>
<linearGradient id="paint0_linear_8117_16676" x1="190.26" y1="150.54" x2="208.257" y2="217.705" gradientUnits="userSpaceOnUse">
<stop stop-color="#B9ACFF"/>
<stop offset="1" stop-color="white" stop-opacity="0"/>
</linearGradient>
</defs>
</svg>
