<svg width="60" height="60" viewBox="0 0 60 60" fill="none" xmlns="http://www.w3.org/2000/svg">
<g filter="url(#filter0_d_2073_13303)">
<path d="M2 10C2 5.58172 5.58172 2 10 2H50C54.4183 2 58 5.58172 58 10V50C58 54.4183 54.4183 58 50 58H10C5.58172 58 2 54.4183 2 50V10Z" fill="#6938EF"/>
<path d="M2.5 10C2.5 5.85786 5.85786 2.5 10 2.5H50C54.1421 2.5 57.5 5.85786 57.5 10V50C57.5 54.1421 54.1421 57.5 50 57.5H10C5.85786 57.5 2.5 54.1421 2.5 50V10Z" stroke="url(#paint0_linear_2073_13303)"/>
<path d="M18 20H43V40H18V20Z" fill="white"/>
<path d="M35.5 30L38 40H33L35.5 30Z" fill="#6938EF"/>
<path d="M25.5 30L28 20H23L25.5 30Z" fill="#6938EF"/>
<path d="M35.5 30L38 20H33L35.5 30Z" fill="#6938EF"/>
<path d="M25.5 30L28 40H23L25.5 30Z" fill="#6938EF"/>
</g>
<defs>
<filter id="filter0_d_2073_13303" x="0" y="0" width="60" height="60" filterUnits="userSpaceOnUse" color-interpolation-filters="sRGB">
<feFlood flood-opacity="0" result="BackgroundImageFix"/>
<feColorMatrix in="SourceAlpha" type="matrix" values="0 0 0 0 0 0 0 0 0 0 0 0 0 0 0 0 0 0 127 0" result="hardAlpha"/>
<feMorphology radius="2" operator="dilate" in="SourceAlpha" result="effect1_dropShadow_2073_13303"/>
<feOffset/>
<feComposite in2="hardAlpha" operator="out"/>
<feColorMatrix type="matrix" values="0 0 0 0 0.411765 0 0 0 0 0.219608 0 0 0 0 0.937255 0 0 0 1 0"/>
<feBlend mode="normal" in2="BackgroundImageFix" result="effect1_dropShadow_2073_13303"/>
<feBlend mode="normal" in="SourceGraphic" in2="effect1_dropShadow_2073_13303" result="shape"/>
</filter>
<linearGradient id="paint0_linear_2073_13303" x1="30" y1="2" x2="30" y2="59.9091" gradientUnits="userSpaceOnUse">
<stop stop-color="#A787FF"/>
<stop offset="1" stop-color="#4F1ED8"/>
</linearGradient>
</defs>
</svg>
